<?xml version="1.0" encoding="utf-8"?>
<!-- Generator: Adobe Illustrator 21.0.0, SVG Export Plug-In . SVG Version: 6.00 Build 0)  -->
<svg version="1.1" id="图层_1" xmlns="http://www.w3.org/2000/svg" xmlns:xlink="http://www.w3.org/1999/xlink" x="0px" y="0px"
	 viewBox="0 0 140 100" style="enable-background:new 0 0 140 100;" xml:space="preserve">
<style type="text/css">
	.st0{opacity:0.8;fill:#1E7145;enable-background:new    ;}
	.st1{fill:#FFFFFF;}
	.st2{filter:url(#Adobe_OpacityMaskFilter);}
	.st3{mask:url(#mask-14);fill:#FFFFFF;}
</style>
<rect id="Rectangle-20_2_" class="st0" width="140" height="100"/>
<g id="Page-1_4_" transform="translate(48.000000, 28.000000)">
	<g id="Group-3_2_" transform="translate(0.000000, 0.022015)">
		<path id="Fill-1_7_" class="st1" d="M12.9,23.8c0.2,0.4,0.4,0.6,0.5,0.9c0.4,1.1,0.9,2.2,1.3,3.4c0.4,1.2,0.5,1.3,1.7,1.4
			c0.2,0,0.3,0.1,0.5,0.1c0.5,0.1,1,0.1,1.7,0.2c-0.3-0.5-0.4-0.8-0.6-1.1c-1-2.2-2-4.4-3-6.6c-0.1-0.2-0.1-0.4-0.1-0.6
			c0.7-1.6,1.4-3.1,2.2-4.6c0.4-0.9,0.9-1.9,1.3-2.9c-0.9,0-1.7,0-2.5,0c-0.2,0-0.4,0.2-0.5,0.4c-0.3,0.7-0.6,1.4-0.9,2.1
			c-0.4,1-0.8,2-1.3,3.2c-0.2-0.3-0.3-0.5-0.4-0.7c-0.1-0.4-0.2-0.8-0.4-1.2c-0.3-0.9-0.6-1.8-0.9-2.7c-0.1-0.2-0.3-0.6-0.5-0.6
			c-0.7,0-1.5,0-2.3,0.1c-0.1,0-0.3,0.3-0.3,0.4c0.4,1.1,0.8,2.2,1.3,3.2c0.5,1.1,1,2.2,1.5,3.3c0.1,0.2,0.1,0.4,0,0.6
			c-0.6,1.4-1.2,2.7-1.9,4c-0.5,1-0.9,2-1.4,3c0.8,0,1.6,0.1,2.4,0.1c0.2,0,0.5-0.2,0.5-0.4C11.5,27.1,12.2,25.6,12.9,23.8
			 M25.7,0.1v43.7c-0.8-0.1-1.7-0.1-2.5-0.3c-0.7-0.1-1.4-0.3-2-0.4c-1.2-0.2-2.4-0.4-3.6-0.6c-1.1-0.2-2.1-0.4-3.2-0.5
			c-1.5-0.3-3.1-0.6-4.6-0.8c-0.9-0.1-1.7-0.2-2.6-0.4c-1.3-0.2-2.6-0.5-3.9-0.8c-0.9-0.2-1.7-0.3-2.6-0.4c-0.6,0-0.7-0.3-0.7-0.9
			c0-1.4,0-2.7,0-4.1V5.6c0-1,0-1,1-1.1c1.4-0.2,2.8-0.5,4.1-0.8c1-0.2,2-0.3,3-0.4c1.2-0.2,2.4-0.5,3.6-0.7
			c0.4-0.1,0.9-0.2,1.3-0.3c1.5-0.2,3-0.4,4.5-0.7c1.5-0.3,3-0.6,4.6-0.8C23.3,0.5,24.5,0.3,25.7,0.1"/>
	</g>
	<g id="Fill-4-Clipped_1_">
		<g>
			<g id="path-13_1_">
			</g>
			<defs>
				<filter id="Adobe_OpacityMaskFilter" filterUnits="userSpaceOnUse" x="26.9" y="5.3" width="18.1" height="33.5">
					<feColorMatrix  type="matrix" values="1 0 0 0 0  0 1 0 0 0  0 0 1 0 0  0 0 0 1 0"/>
				</filter>
			</defs>
			<mask maskUnits="userSpaceOnUse" x="26.9" y="5.3" width="18.1" height="33.5" id="mask-14">
				<g class="st2">
					<polygon id="path-13" class="st1" points="0,43.8 44.9,43.8 44.9,0.1 0,0.1 					"/>
				</g>
			</mask>
			<path id="Fill-4_3_" class="st3" d="M34.7,23.9H42v-4.3h-7.3V23.9z M34.7,18.1h7.3v-4.3h-7.3V18.1z M34.7,35.8h7.2v-4.5h-7.2
				V35.8z M34.7,29.9h7.2v-4.4h-7.2V29.9z M34.7,12.2H42V7.8h-7.3V12.2z M33.2,12.3V7.8h-6.3V5.3h0.7c5.5,0,10.9,0,16.4,0
				c1,0,1,0,1,1c0,10.5,0,21,0,31.5c0,0.9-0.1,1-1,1c-5.5,0-11,0-16.5,0h-0.6v-3h6.3v-4.5h-6.3V30h6.3v-4.5h-6.3V24h6.3v-4.4h-6.3
				v-1.4h6.3v-4.4h-6.3v-1.5H33.2z"/>
		</g>
	</g>
</g>
</svg>
