<?xml version="1.0" encoding="utf-8"?>
<!-- Generator: Adobe Illustrator 21.0.0, SVG Export Plug-In . SVG Version: 6.00 Build 0)  -->
<svg version="1.1" id="图层_1" xmlns="http://www.w3.org/2000/svg" xmlns:xlink="http://www.w3.org/1999/xlink" x="0px" y="0px"
	 viewBox="0 0 140 100" style="enable-background:new 0 0 140 100;" xml:space="preserve">
<style type="text/css">
	.st0{fill:#FF4E4B;}
	.st1{fill:#FFFFFF;}
</style>
<g id="Group-5">
	<rect id="Path_12_" class="st0" width="140" height="100"/>
	<path id="path2830" class="st1" d="M41.7,64.3c-1.7,0-2.8,0.5-3.4,1.7c-0.8,1.7-0.1,3,2.4,4.4c1.4,0.8,2,1.5,2,2.2
		c0,1.6-1.9,2.1-3.8,1.1c-0.4-0.2-0.7-0.4-0.8-0.4c-0.1,0.4,0,1.5,0,1.5s0.6,0.2,1.5,0.4c2.2,0.4,4.3-0.6,4.4-2.3
		c0.2-1.6-0.4-2.4-2.6-3.7c-1.5-0.9-2.1-1.5-2-2.3c0.2-2.1,2.8-1.8,4.2-1l0-1.4C43.6,64.7,42.8,64.4,41.7,64.3z M50.2,64.3
		c-0.1,0-0.2,0-0.3,0c-2.1,0.1-3.5,1-4.4,2.9c-0.7,1.6-0.6,3.8,0,5.4c0.7,1.6,2,2.5,4,2.8c0.4,0.1,0.7,0.3,1.5,1.3l1,1.2h1.8
		l-1.2-1.2c-0.7-0.7-1.2-1.3-1.2-1.3s0.3-0.2,0.6-0.3c1-0.3,1.9-1.1,2.5-2.3c0.5-1,0.6-1.3,0.6-2.5C55.3,66.6,53.4,64.3,50.2,64.3
		L50.2,64.3z M69.1,64.4c-1.7,0-2.8,0.5-3.4,1.7c-0.8,1.7-0.1,3,2.4,4.4c1.4,0.8,2,1.5,2,2.2c0,1.6-1.9,2.1-3.8,1.1
		c-0.4-0.2-0.7-0.4-0.8-0.4c-0.1,0.4,0,1.5,0,1.5s0.6,0.2,1.5,0.4c2.2,0.4,4.3-0.6,4.4-2.3c0.2-1.6-0.4-2.4-2.6-3.7
		c-1.5-0.9-2.1-1.5-2-2.3c0.2-2.1,2.8-1.8,4.2-1l0-1.4C71,64.7,70.2,64.4,69.1,64.4z M56.8,64.5v5.4v5.4h2.8h2.8v-0.5v-0.8h-4.3
		v-4.6v-4.9h-0.7H56.8z M50.1,65.5c2.2,0,3.5,1.4,3.7,4c0.1,2.1-0.6,3.8-2,4.4c-0.9,0.4-2.2,0.5-3.1,0.2c-0.9-0.3-1.7-1.2-2.1-2.3
		c-0.4-1.1-0.4-3.2,0.1-4.1C47.6,66.2,48.6,65.5,50.1,65.5z M95.6,67.4c-0.3,0-0.5,0-0.8,0.1c-1.8,0.5-2.8,2.2-2.7,3.9
		c0,1.5,0.3,2.2,1,3c1.5,1.2,2.8,1.3,4.6,0.7c0.3-0.1,0.6-0.3,0.6-0.3l0-1.2l-0.6,0.3c-1.4,0.6-2.5,0.6-3.4-0.1
		c-0.6-0.6-0.8-1.2-0.9-2H96h2.7v-1C98.7,68.7,97.4,67.3,95.6,67.4L95.6,67.4z M75.8,67.4c-0.3,0-0.5,0-0.8,0.1
		c-1.8,0.5-2.8,2.2-2.7,3.9c0,1.5,0.3,2.2,1,3c1.5,1.2,2.8,1.3,4.6,0.7c0.3-0.1,0.6-0.3,0.6-0.3v-1.2l-0.6,0.3
		c-1.4,0.6-2.5,0.6-3.4-0.1c-0.6-0.6-0.8-1.2-0.9-2h2.7h2.7v-1C78.9,68.7,77.7,67.4,75.8,67.4z M103.4,67.4c-0.8,0-1.4,0.3-1.8,0.9
		l-0.3,0.5l0-0.6l0-0.6h-0.7H100v3.8v3.8h0.7h0.7v-2.4c0-2.2,0-2.5,0.3-3.1c0.4-0.8,1.2-1.3,1.9-1l0.5,0.1v-0.7v-0.7H103.4
		L103.4,67.4z M83.7,67.5c-0.8,0-1.4,0.3-1.8,0.9l-0.3,0.5l0-0.6l0-0.6H81h-0.7v3.8v3.8H81h0.7v-2.4c0-2.2,0-2.5,0.3-3.1
		c0.4-0.8,1.2-1.3,1.9-1l0.5,0.1v-0.7v-0.7H83.7L83.7,67.5z M84.8,67.6c0.9,2.5,1.9,5.1,2.9,7.6c0.4,0,0.9,0,1.3,0l1.5-3.8l1.5-3.9
		h-1.3c0,0-0.6,1.5-1.2,3.2l-1.1,2.9l-1.1-2.9l-1.1-3.2H84.8z M95.5,68.5c0.4,0,0.8,0.1,1.1,0.4c0.7,0.5,0.8,1.8,0.8,1.8h-4
		c0,0,0.2-1.3,0.9-1.8C94.7,68.6,95.1,68.5,95.5,68.5z M75.8,68.5c0.4,0,0.8,0.1,1.1,0.4c0.7,0.5,0.8,1.8,0.8,1.8h-4
		c0,0,0.2-1.3,0.9-1.8C75,68.7,75.4,68.5,75.8,68.5z"/>
	<path id="path26" class="st1" d="M61.5,60.6c0-0.1,0-0.1,0-0.1c0,0-0.1,0-0.2,0h-0.1v0.3h0.1C61.4,60.7,61.5,60.7,61.5,60.6
		L61.5,60.6z M61.7,61.3h-0.2L61.4,61c-0.1-0.1-0.1-0.2-0.2-0.2h-0.1v0.4H61v-1h0.3c0.1,0,0.2,0,0.3,0.1c0.1,0,0.1,0.1,0.1,0.2
		c0,0.1,0,0.1-0.1,0.2c0,0-0.1,0.1-0.2,0.1v0c0.1,0,0.1,0.1,0.2,0.2L61.7,61.3L61.7,61.3z M62,60.8c0-0.2-0.1-0.4-0.2-0.5
		c-0.1-0.1-0.3-0.2-0.5-0.2c-0.2,0-0.4,0.1-0.5,0.2c-0.1,0.1-0.2,0.3-0.2,0.5c0,0.2,0.1,0.4,0.2,0.5c0.1,0.1,0.3,0.2,0.5,0.2
		c0.2,0,0.3-0.1,0.5-0.2C61.9,61.1,62,61,62,60.8z M62.1,60.8c0,0.2-0.1,0.4-0.2,0.5c-0.1,0.1-0.3,0.2-0.5,0.2
		c-0.2,0-0.4-0.1-0.5-0.2c-0.1-0.1-0.2-0.3-0.2-0.5c0-0.2,0.1-0.4,0.2-0.5c0.1-0.1,0.3-0.2,0.5-0.2c0.2,0,0.4,0.1,0.5,0.2
		C62,60.4,62.1,60.6,62.1,60.8z"/>
	<path id="path28" class="st1" d="M42.3,63.3h-0.4v-2.6c0-0.2,0-0.4,0-0.7h0c0,0.2-0.1,0.3-0.1,0.4l-1.3,2.9h-0.2l-1.3-2.9
		c0-0.1-0.1-0.2-0.1-0.4h0c0,0.2,0,0.4,0,0.7v2.5h-0.4v-3.8H39l1.2,2.6c0.1,0.2,0.1,0.4,0.2,0.5h0c0.1-0.2,0.1-0.4,0.2-0.5l1.2-2.6
		h0.6"/>
	<path id="path30" class="st1" d="M43.7,60.6v2.7h-0.4v-2.7H43.7z M43.7,59.6c0,0.1,0,0.1-0.1,0.2c-0.1,0.1-0.1,0.1-0.2,0.1
		c-0.1,0-0.1,0-0.2-0.1c-0.1-0.1-0.1-0.1-0.1-0.2c0-0.1,0-0.1,0.1-0.2c0.1-0.1,0.1-0.1,0.2-0.1c0.1,0,0.1,0,0.2,0.1
		C43.7,59.5,43.7,59.6,43.7,59.6z"/>
	<path id="path32" class="st1" d="M46.4,63.2c-0.2,0.1-0.5,0.2-0.7,0.2c-0.4,0-0.7-0.1-0.9-0.4c-0.2-0.3-0.3-0.6-0.3-1
		c0-0.4,0.1-0.8,0.4-1.1c0.3-0.3,0.6-0.4,1-0.4c0.2,0,0.4,0,0.6,0.1v0.4c-0.2-0.1-0.4-0.2-0.6-0.2c-0.3,0-0.5,0.1-0.7,0.3
		c-0.2,0.2-0.3,0.5-0.3,0.8c0,0.3,0.1,0.6,0.3,0.7c0.2,0.2,0.4,0.3,0.7,0.3c0.2,0,0.5-0.1,0.7-0.2"/>
	<path id="path34" class="st1" d="M48.4,61C48.4,61,48.2,61,48.1,61c-0.2,0-0.3,0.1-0.4,0.2c-0.1,0.2-0.2,0.4-0.2,0.7v1.4H47v-2.7
		h0.4v0.6h0c0.1-0.2,0.2-0.4,0.3-0.5c0.1-0.1,0.3-0.1,0.4-0.1c0.1,0,0.2,0,0.3,0"/>
	<path id="path36" class="st1" d="M50.9,62c0-0.3-0.1-0.6-0.2-0.8c-0.2-0.2-0.4-0.3-0.6-0.3c-0.3,0-0.5,0.1-0.6,0.3
		c-0.2,0.2-0.3,0.5-0.3,0.8c0,0.3,0.1,0.6,0.2,0.8c0.2,0.2,0.4,0.3,0.7,0.3c0.3,0,0.5-0.1,0.7-0.3C50.8,62.6,50.9,62.3,50.9,62
		 M51.3,62c0,0.4-0.1,0.8-0.4,1c-0.2,0.3-0.6,0.4-1,0.4c-0.4,0-0.7-0.1-1-0.4c-0.2-0.3-0.3-0.6-0.3-1c0-0.5,0.1-0.8,0.4-1.1
		c0.2-0.2,0.6-0.4,1-0.4c0.4,0,0.7,0.1,0.9,0.4C51.2,61.2,51.3,61.5,51.3,62"/>
	<path id="path38" class="st1" d="M53.5,62.6c0,0.2-0.1,0.4-0.2,0.6c-0.2,0.2-0.4,0.2-0.7,0.2c-0.3,0-0.5-0.1-0.7-0.2v-0.5
		c0.2,0.2,0.4,0.3,0.7,0.3c0.3,0,0.5-0.1,0.5-0.4c0-0.1,0-0.2-0.1-0.3c-0.1-0.1-0.2-0.2-0.4-0.2c-0.2-0.1-0.4-0.2-0.5-0.3
		c-0.1-0.1-0.2-0.3-0.2-0.5c0-0.2,0.1-0.4,0.3-0.6c0.2-0.1,0.4-0.2,0.7-0.2c0.2,0,0.4,0,0.6,0.1v0.4c-0.2-0.1-0.4-0.2-0.6-0.2
		c-0.1,0-0.3,0-0.3,0.1c-0.1,0.1-0.1,0.2-0.1,0.3c0,0.1,0,0.2,0.1,0.3c0.1,0.1,0.2,0.1,0.4,0.2c0.2,0.1,0.4,0.2,0.5,0.3
		C53.4,62.2,53.5,62.4,53.5,62.6"/>
	<path id="path40" class="st1" d="M56.1,62c0-0.3-0.1-0.6-0.2-0.8c-0.2-0.2-0.4-0.3-0.6-0.3c-0.3,0-0.5,0.1-0.6,0.3
		c-0.2,0.2-0.3,0.5-0.3,0.8c0,0.3,0.1,0.6,0.2,0.8c0.2,0.2,0.4,0.3,0.7,0.3c0.3,0,0.5-0.1,0.7-0.3C56,62.6,56.1,62.3,56.1,62
		 M56.6,62c0,0.4-0.1,0.8-0.4,1c-0.2,0.3-0.6,0.4-1,0.4c-0.4,0-0.7-0.1-1-0.4c-0.2-0.3-0.3-0.6-0.3-1c0-0.5,0.1-0.8,0.4-1.1
		c0.2-0.2,0.6-0.4,1-0.4c0.4,0,0.7,0.1,0.9,0.4C56.4,61.2,56.6,61.5,56.6,62"/>
	<path id="path42" class="st1" d="M58.5,59.7c-0.1,0-0.2-0.1-0.3-0.1c-0.3,0-0.5,0.2-0.5,0.6v0.4h0.6V61h-0.6v2.3h-0.4V61h-0.5v-0.4
		h0.5v-0.4c0-0.3,0.1-0.5,0.3-0.7c0.2-0.1,0.4-0.2,0.6-0.2c0.1,0,0.2,0,0.3,0"/>
	<path id="path44" class="st1" d="M60.2,63.3c-0.1,0.1-0.2,0.1-0.4,0.1c-0.5,0-0.7-0.3-0.7-0.8V61h-0.5v-0.4h0.5v-0.7
		c0.1,0,0.3-0.1,0.4-0.1v0.8h0.7V61h-0.7v1.5c0,0.2,0,0.3,0.1,0.4c0.1,0.1,0.2,0.1,0.3,0.1c0.1,0,0.2,0,0.3-0.1"/>
	<path id="path3151" class="st1" d="M105.4,67.9c0-0.1,0-0.1,0-0.1c0,0-0.1,0-0.2,0H105v0.3h0.1C105.3,68.1,105.4,68,105.4,67.9
		L105.4,67.9z M105.6,68.6h-0.2l-0.1-0.2c-0.1-0.1-0.1-0.2-0.2-0.2H105v0.4h-0.1v-1h0.3c0.1,0,0.2,0,0.3,0.1c0.1,0,0.1,0.1,0.1,0.2
		c0,0.1,0,0.1-0.1,0.2c0,0-0.1,0.1-0.2,0.1v0c0.1,0,0.1,0.1,0.2,0.2L105.6,68.6L105.6,68.6z M105.9,68.1c0-0.2-0.1-0.4-0.2-0.5
		s-0.3-0.2-0.5-0.2c-0.2,0-0.4,0.1-0.5,0.2c-0.1,0.1-0.2,0.3-0.2,0.5c0,0.2,0.1,0.4,0.2,0.5c0.1,0.1,0.3,0.2,0.5,0.2
		c0.2,0,0.3-0.1,0.5-0.2C105.8,68.5,105.9,68.3,105.9,68.1z M106,68.1c0,0.2-0.1,0.4-0.2,0.5c-0.1,0.1-0.3,0.2-0.5,0.2
		c-0.2,0-0.4-0.1-0.5-0.2c-0.1-0.1-0.2-0.3-0.2-0.5c0-0.2,0.1-0.4,0.2-0.5c0.1-0.1,0.3-0.2,0.5-0.2c0.2,0,0.4,0.1,0.5,0.2
		C105.9,67.7,106,67.9,106,68.1z"/>
	<path id="path3639" class="st1" d="M84.1,40.5l-7.5,2.4L70,45.8l-1.8,0.5c-0.5,0.4-1,0.9-1.5,1.3c-0.6,0.5-1.1,1-1.5,1.3
		c-0.5,0.4-1.1,1-1.5,1.5c-0.5,0.6-0.9,1.3-1.1,1.9c-0.3,1-0.2,1.9,0.4,2.8c0.8,1.1,2.3,2.3,4.1,3.1c0.9,0.4,2.5,0.9,3.6,1.2
		c1.9,0.5,5.6,1,7.7,1.1c0.4,0,1,0,1,0c0,0,0.4-0.6,0.7-1.4c1.3-2.6,2.2-5,2.7-7c0.3-1.2,0.5-2.9,0.7-4.9c0-0.6,0.1-2.4,0-3
		c-0.1-1-0.1-1.8-0.3-2.7c0-0.1,0-0.2,0-0.2c0,0,0.1,0,1-0.3L84.1,40.5L84.1,40.5z M82.4,41.5c0.1,0,0.2,1.7,0.3,2.8
		c0,0.2,0,0.4,0,0.4c0,0-1-0.5-1.6-0.9c-0.6-0.4-1.6-1.1-1.8-1.2c-0.1,0,0,0,0.4-0.2C80.4,42.1,82.3,41.5,82.4,41.5z M78.5,42.8
		c0,0,0.2,0.1,0.5,0.3c1.2,0.7,2.8,1.6,3.4,1.9c0.2,0.1,0.2,0.1-0.3,0.4c-1,0.7-2.3,1.4-3.9,2.1c-0.3,0.1-0.5,0.2-0.5,0.2
		s0-0.1,0.1-0.3c0.4-1.4,0.6-2.8,0.6-4C78.5,42.8,78.5,42.8,78.5,42.8C78.5,42.8,78.5,42.8,78.5,42.8L78.5,42.8z M77.8,43.1
		c0,0,0,1.3,0,1.6c-0.1,0.8-0.3,1.6-0.5,2.5c-0.1,0.2-0.1,0.4-0.1,0.4c0,0-0.8-0.7-1.1-1c-0.4-0.5-0.8-1-1-1.5
		c-0.1-0.3-0.3-0.8-0.3-0.8C74.7,44.2,77.7,43,77.8,43.1z M74,44.5C74.1,44.5,74.1,44.5,74,44.5c0,0,0.1,0.1,0.1,0.2
		c0.2,0.5,0.6,1.2,0.9,1.7c0.4,0.5,0.9,1.1,1.3,1.4c0.1,0.1,0.3,0.2,0.3,0.2c0,0,0,0-0.9,0.4c-1.1,0.4-2.2,0.8-3.6,1.2
		c-0.5,0.2-0.9,0.3-1,0.3c-0.1,0,0,0,0.1-0.2c0.7-1,1.7-3.1,2.2-4.5c0.1-0.2,0.2-0.5,0.2-0.6c0-0.1,0-0.1,0.1-0.1
		C74,44.5,74,44.5,74,44.5z M72.9,45c0,0-0.3,0.6-0.6,1.2c-0.5,1.1-1.2,2.1-2,3.4c-0.1,0.2-0.3,0.4-0.3,0.4c0,0,0,0-0.1-0.1
		c-0.2-0.4-0.4-0.9-0.4-1.3c-0.1-0.4-0.1-1.2,0-1.7c0.1-0.4,0.1-0.3,0.2-0.4C70.5,46.1,72.9,45,72.9,45z M82.7,45.4v0.2
		c0,1.3-0.1,3-0.3,4.3c0,0.2-0.1,0.4-0.1,0.4c0,0-0.2,0-0.4-0.1c-0.9-0.3-1.8-0.7-2.6-1.1c-0.6-0.3-1.4-0.8-1.3-0.8
		c0,0,0.2-0.1,0.5-0.3c1.1-0.6,2.2-1.2,3.1-1.8C82,45.9,82.5,45.6,82.7,45.4L82.7,45.4z M68.6,47.1c0,0,0,0,0,0.3
		c0,0.1-0.1,0.4-0.1,0.6c0,0.8,0.1,1.4,0.5,2.3c0.1,0.2,0.2,0.4,0.2,0.4c0,0-3.8,1.1-5,1.5c-0.3,0.1-0.7,0.2-0.7,0.2c0,0,0,0,0-0.1
		c0.1-0.8,0.8-1.9,1.7-2.8c0.6-0.6,1.1-1,1.9-1.4C67.6,47.6,68.5,47.1,68.6,47.1C68.6,47.1,68.6,47.1,68.6,47.1L68.6,47.1z
		 M77.5,48.6c0,0,0.1,0.1,0.3,0.2c1.2,0.7,2.9,1.4,4.3,1.7l0.1,0l-0.2,0.1c-0.8,0.4-3.2,1.5-5.8,2.4c-0.4,0.1-0.7,0.3-0.8,0.3
		c-0.1,0-0.1,0-0.1,0c0,0,0.1-0.2,0.2-0.4c0.7-1.3,1.4-2.9,1.8-4.1C77.4,48.7,77.5,48.7,77.5,48.6z M76.6,48.9c0,0,0,0.1-0.1,0.3
		c-0.5,1.2-1.1,2.5-2,4c-0.2,0.4-0.4,0.7-0.4,0.7c0,0-0.2-0.1-0.4-0.2c-1.2-0.7-2.3-1.6-3-2.5L70.7,51l0.5-0.1c1.9-0.5,3.4-1,5-1.7
		C76.4,49,76.6,48.9,76.6,48.9z M82.2,50.9C82.2,50.9,82.2,50.9,82.2,50.9c0,0.1-0.3,1.3-0.5,2.1c-0.2,0.7-0.4,1.3-0.7,2.2
		c-0.1,0.4-0.3,0.8-0.3,0.8c0,0,0,0-0.1,0c-1.7-0.3-3.2-0.7-4.6-1.3c-0.4-0.2-1-0.4-1-0.4c0,0,0.3-0.2,0.8-0.4
		c2.6-1.1,5.3-2.4,6.2-3C82.1,50.9,82.2,50.9,82.2,50.9L82.2,50.9z M69.2,51.3c0,0-0.7,1-1.7,2.5c-0.4,0.5-0.8,1.1-0.9,1.3
		s-0.4,0.6-0.5,0.8l-0.2,0.4L65.6,56c-0.3-0.3-0.8-0.8-1.1-1.1c-0.5-0.6-0.8-1.2-0.9-1.8c-0.1-0.3-0.1-0.4,0-0.4
		c0.1,0,1.6-0.4,3-0.7c0.8-0.2,1.7-0.4,2-0.5C69,51.4,69.2,51.3,69.2,51.3L69.2,51.3z M70,51.6l0.2,0.2c0.8,0.9,1.6,1.6,2.7,2.2
		c0.2,0.1,0.3,0.2,0.3,0.2c0,0-3.5,1.3-5.1,1.8c-0.9,0.3-1.6,0.6-1.7,0.6c0,0-0.1,0-0.1-0.1l-0.1-0.1l0.2-0.2
		c0.5-0.8,1.2-1.6,2.7-3.4L70,51.6z M74.5,54.9c0,0,0.3,0.1,0.6,0.2c0.7,0.3,1.3,0.5,2.1,0.7c1,0.2,2.4,0.5,3.2,0.6
		c0.1,0,0.2,0,0.2,0c0,0-0.9,0.3-1.5,0.5c-1,0.3-4,1.2-6.4,1.9c-0.5,0.1-0.8,0.2-0.9,0.2c-0.1,0-0.2,0-0.2-0.1c0,0,0.1-0.2,0.3-0.4
		c0.8-1,1.6-2.1,2.3-3.1C74.3,55.1,74.5,54.9,74.5,54.9z M73.5,54.9c0,0-0.4,0.7-1.1,1.8c-0.3,0.5-0.6,1-0.8,1.2
		c-0.1,0.2-0.3,0.5-0.4,0.6l-0.2,0.3l-0.1,0c-0.2-0.1-1.6-0.6-2-0.7c-0.5-0.2-1-0.4-1.3-0.6c-0.5-0.2-1-0.6-1-0.6
		c0,0,0.8-0.2,1.7-0.5c2.5-0.7,3.9-1.1,4.8-1.3C73.3,54.9,73.5,54.9,73.5,54.9z M80.6,56.5C80.6,56.5,80.6,56.5,80.6,56.5
		c0,0.1-0.9,2.6-1.2,3.4c-0.1,0.2-0.1,0.2-0.1,0.2c-0.1,0-1.4-0.2-2.2-0.3c-1.4-0.2-3.8-0.6-4.4-0.8l-0.1,0l0.8-0.2
		c1.8-0.4,2.7-0.6,3.6-0.9c1.1-0.3,2.2-0.8,3.3-1.3C80.4,56.6,80.5,56.6,80.6,56.5z"/>
	<path id="path3667" class="st1" d="M76.3,23c-0.1,0-2.1,0.7-3.4,1.2c-1.8,0.7-3.1,1.4-4,2c-0.3,0.2-0.7,0.6-0.8,0.8
		c0,0.1,0,0.1,0,0.2l0.8,0.7l1.8,0.6l4.3,0.8l4.9,0.8l0-0.4c0,0,0,0,0,0l-0.6-0.1l-0.1-0.2c-0.7-1.2-1.4-2.6-1.8-3.6
		c-0.3-0.8-0.7-1.6-0.8-2.3C76.4,23,76.4,23,76.3,23z M76.3,23.3C76.3,23.3,76.3,23.3,76.3,23.3c0,0,0,0.2,0.1,0.4
		c0.1,0.8,0.3,1.6,0.6,2.4c0.2,0.6,0.2,0.6,0,0.5c-0.6-0.2-3.2-0.6-5.1-0.9c-0.3,0-0.6-0.1-0.6-0.1c0,0,1.4-0.7,2-1
		C74,24.2,76.1,23.3,76.3,23.3z M70.8,25.8l0.2,0.1c1.2,0.4,4.2,1,5.9,1.1c0.2,0,0.3,0,0.4,0c0,0-0.2,0.1-0.4,0.2
		c-0.8,0.4-1.7,0.9-2.3,1.3c-0.2,0.1-0.3,0.2-0.4,0.2c0,0-0.1,0-0.3,0l-0.2,0l-0.6-0.6c-1-1-1.8-1.7-2.1-2L70.8,25.8z M70.6,26
		l0.8,1c0.4,0.5,0.9,1.1,1,1.2c0.1,0.1,0.2,0.2,0.2,0.2c0,0-1.2-0.2-1.8-0.3c-0.6-0.1-0.9-0.2-1.3-0.3l-0.3-0.1l0-0.1
		C69.2,27.2,69.7,26.6,70.6,26L70.6,26L70.6,26z M77.4,27.4c0,0,0,0.1,0.1,0.2c0.2,0.4,0.8,1.6,0.9,1.8c0,0.1,0.1,0.1-0.7-0.1
		c-1.9-0.3-2.5-0.4-2.5-0.4c0,0,0.1,0,0.1-0.1c0.6-0.3,1.2-0.7,1.7-1.2C77.2,27.5,77.3,27.4,77.4,27.4
		C77.3,27.4,77.4,27.4,77.4,27.4z"/>
	<path id="path2851" class="st1" d="M68.2,26.9c0,0-0.1,0.2,0,0.5c0.1,0.2,0.3,0.4,0.5,0.6c0,0,2.5,2.5,2.8,2.8
		c1.4,1.6,2,3.2,2.1,5.4c0,1.4-0.2,2.6-0.9,4.1c-1.2,2.6-3.7,5.4-7.5,8.6l0.6-0.2c0.4-0.3,0.9-0.6,2-1.2c2.7-1.5,5.7-2.8,9.4-4.2
		c5.3-2,14-4.3,19-5.1l0.5-0.1L96.6,38c-0.5-0.7-0.8-1.1-1.1-1.6c-1.1-1.3-2.4-2.4-4-3.4c-2.2-1.2-5.1-2.2-8.7-2.9
		c-0.7-0.1-2.2-0.4-3.4-0.6c-2.6-0.4-4.3-0.7-6.1-1c-0.7-0.1-1.7-0.3-2.3-0.4c-0.3-0.1-1-0.2-1.5-0.4C68.9,27.6,68.3,27.4,68.2,26.9
		z M69.7,28.3c0,0,0.1,0,0.2,0.1c0.2,0.1,0.5,0.2,0.8,0.2c0.2,0.1,0.5,0.1,0.7,0.2c0.3,0.1,0.6,0.2,0.6,0.2c0,0,0.6,1.9,0.8,2.6
		c0.1,0.3,0.1,0.5,0.1,0.5S73,32,72.9,31.9c-0.7-1.2-1.7-2.4-2.9-3.3C69.8,28.4,69.7,28.3,69.7,28.3z M72.5,29.1c0,0,0.2,0,0.3,0.1
		c1,0.2,2.7,0.5,3.8,0.7c0.2,0,0.3,0.1,0.3,0.1c0,0-0.1,0.1-0.2,0.1c-0.2,0.1-0.9,0.5-1.2,0.7c-0.6,0.4-1.2,0.9-1.6,1.3
		c-0.2,0.2-0.3,0.3-0.3,0.3s0-0.1-0.1-0.2c-0.2-0.8-0.6-2-1-2.8C72.5,29.2,72.5,29.1,72.5,29.1C72.5,29.1,72.5,29.1,72.5,29.1
		L72.5,29.1z M77.4,30c0,0,0.1,0.2,0.2,0.6c0.2,0.8,0.3,1.7,0.3,2.6c0,0.2,0,0.5,0,0.5l0,0.1l-0.3-0.1c-0.6-0.2-1.6-0.5-2.4-0.7
		c-0.5-0.1-0.9-0.3-0.9-0.3c0,0,0.7-0.7,1-1C75.8,31.2,77.3,30,77.4,30z M77.8,30.1c0,0,2.3,0.4,3.4,0.6c0.8,0.2,1.9,0.4,2,0.4
		c0,0-0.1,0.1-0.5,0.2c-1.5,0.7-2.6,1.3-3.7,2c-0.3,0.2-0.5,0.4-0.5,0.4c0,0,0-0.2,0-0.4c0-1.1-0.2-2.2-0.6-3.1
		C77.8,30.2,77.8,30.1,77.8,30.1z M83.8,31.3c0,0-0.1,0.5-0.1,0.7c-0.2,0.8-0.8,2.1-1.4,3.3c-0.1,0.2-0.2,0.4-0.2,0.4
		c0,0-0.2-0.1-0.3-0.2c-0.7-0.4-1.4-0.8-2.2-1.1c-0.2-0.1-0.4-0.2-0.4-0.2c0,0,1.8-1.2,2.8-1.8C82.6,32,83.8,31.3,83.8,31.3z
		 M84.3,31.4c0.1,0,1.1,0.3,1.6,0.4c1.3,0.4,2.9,1,3.9,1.4l0.4,0.2l-0.3,0.1c-2.4,0.6-4.5,1.2-6.5,2c-0.2,0.1-0.3,0.1-0.3,0.1
		s0-0.1,0.1-0.3c0.6-1.3,1-2.6,1.1-3.8C84.2,31.4,84.2,31.4,84.3,31.4z M74,33.7c0,0,0.8,0.2,1.2,0.3c0.6,0.2,2,0.6,2,0.7
		c0,0-0.2,0.1-0.3,0.3c-0.7,0.6-1.5,1.3-2.3,2.1c-0.3,0.2-0.5,0.4-0.5,0.4s0,0,0-0.1c0.1-1,0.1-2.2-0.1-3.4C74,33.9,74,33.7,74,33.7
		z M90.5,33.7c0,0-0.4,0.6-0.6,0.9c-0.3,0.5-0.8,1.1-2,2.6c-0.6,0.7-1.3,1.6-1.5,1.9c-0.2,0.3-0.4,0.5-0.4,0.5s-0.1-0.1-0.2-0.2
		c-0.6-1-1.4-1.8-2.3-2.5c-0.2-0.1-0.4-0.3-0.4-0.3c-0.1,0-0.1-0.1-0.1-0.1c0,0,1-0.4,1.7-0.7c1.3-0.5,3-1.1,4.3-1.5
		C89.8,33.9,90.5,33.7,90.5,33.7z M91,33.8c0,0,0.2,0.1,0.3,0.2c1.4,0.8,2.7,1.8,3.8,2.8c0.3,0.3,1,1.1,1,1.1c0,0-0.3,0-0.6,0
		c-2.4,0.2-5.4,0.7-8.4,1.4c-0.2,0-0.4,0.1-0.4,0.1s0.2-0.2,0.5-0.5c1.7-1.7,2.5-2.7,3.4-4.6C90.9,34.1,91,33.9,91,33.8
		C91,33.8,91,33.8,91,33.8L91,33.8z M78.3,35.1c0.1,0,0.8,0.4,1.4,0.6c0.5,0.3,1.3,0.7,1.3,0.7c0,0-0.3,0.1-0.6,0.3
		c-1.1,0.5-2,1-2.9,1.6c-0.3,0.2-0.5,0.3-0.5,0.3c0,0,0,0,0.1-0.3c0.5-0.9,0.9-2,1.2-3.1C78.3,35.2,78.3,35.1,78.3,35.1z M77.6,35.3
		c0,0-0.2,0.7-0.3,1.1c-0.2,0.7-0.6,1.6-1,2.3c-0.1,0.2-0.2,0.4-0.3,0.5l-0.1,0.2l-0.3-0.3c-0.4-0.4-0.7-0.6-1.1-0.8
		c-0.2-0.1-0.3-0.1-0.3-0.2c0,0,1-0.9,1.7-1.6C76.5,36.2,77.6,35.3,77.6,35.3z M82.1,37.1l0.3,0.2c0.6,0.4,1.4,1,2,1.4
		c0.3,0.3,0.9,0.8,1.1,1l0.1,0.1L85,39.9c-2.6,0.7-4.6,1.4-7,2.2c-0.3,0.1-0.5,0.2-0.5,0.2c0,0-0.1,0,0.5-0.5
		c1.5-1.4,2.8-2.9,3.8-4.4L82.1,37.1z M80.9,37.4c0,0-0.8,1.1-1.2,1.7c-0.6,0.7-1.5,2-2.2,2.8c-0.3,0.3-0.5,0.6-0.5,0.6
		c0,0,0-0.1,0-0.2c0-0.7-0.2-1.4-0.5-2c-0.1-0.3-0.2-0.3-0.1-0.4c0.1-0.1,1.8-1,2.8-1.6C79.8,38,80.9,37.4,80.9,37.4z M73.8,39.2
		c0,0,0.1,0.1,0.3,0.1c0.4,0.2,0.7,0.4,1,0.7c0,0-0.1,0.1-0.3,0.3c-0.5,0.4-1.4,1-1.8,1.4C72.4,42,72.3,42,72.4,42
		c0.4-0.6,0.6-0.9,0.8-1.3c0.2-0.4,0.3-0.8,0.5-1.2C73.7,39.3,73.7,39.2,73.8,39.2z M75.7,40.7c0,0,0.1,0,0.2,0.3
		c0.3,0.5,0.6,1.1,0.6,1.7l0,0.1L75.8,43c-1.4,0.5-2.7,1.1-3.5,1.5c-0.2,0.1-0.7,0.3-0.9,0.5c-0.3,0.1-0.5,0.2-0.5,0.2
		c0,0,0.2-0.1,0.4-0.3c1.7-1.2,3.2-2.6,4.3-3.9C75.5,40.8,75.6,40.7,75.7,40.7C75.7,40.7,75.7,40.7,75.7,40.7L75.7,40.7z M74.8,40.9
		c0,0-0.6,0.8-1.1,1.2c-1.1,1.1-2.2,2-3.5,2.8c-0.2,0.1-0.3,0.2-0.3,0.2c0,0,0,0,0.6-0.7c0.4-0.4,0.7-0.7,1-1.2
		c0.2-0.3,0.3-0.3,0.6-0.5C72.8,42.2,74.8,40.9,74.8,40.9z"/>
	<polyline id="path168" class="st1" points="81.4,59.5 81,59.5 81,60.5 80.9,60.5 80.9,59.5 80.6,59.5 80.6,59.4 81.4,59.4 	"/>
	<path id="path170" class="st1" d="M82.7,60.5h-0.1v-0.7c0-0.1,0-0.1,0-0.2h0c0,0,0,0.1,0,0.1l-0.4,0.8h-0.1l-0.4-0.8
		c0,0,0-0.1,0-0.1h0c0,0,0,0.1,0,0.2v0.7h-0.1v-1.1h0.2l0.3,0.8c0,0.1,0,0.1,0,0.1h0c0-0.1,0-0.1,0.1-0.1l0.3-0.8h0.2"/>
</g>
</svg>
