<?xml version="1.0" encoding="utf-8"?>
<!-- Generator: Adobe Illustrator 21.0.0, SVG Export Plug-In . SVG Version: 6.00 Build 0)  -->
<svg version="1.1" id="图层_1" xmlns="http://www.w3.org/2000/svg" xmlns:xlink="http://www.w3.org/1999/xlink" x="0px" y="0px"
	 viewBox="0 0 140 100" style="enable-background:new 0 0 140 100;" xml:space="preserve">
<style type="text/css">
	.st0{fill:#26AF23;}
	.st1{fill:#FFFFFF;}
</style>
<rect id="Path_11_" class="st0" width="140" height="100"/>
<g id="DB2" transform="translate(28.000000, 26.000000)">
	<path id="Shape_14_" class="st1" d="M0,16.5h13.1c2.6,0,4.7,0.4,6.3,1.1s2.9,1.7,4,3s1.8,2.8,2.3,4.6s0.7,3.6,0.7,5.5
		c0,3.1-0.3,5.4-1,7.1s-1.7,3.1-2.9,4.2s-2.6,1.9-4,2.3c-1.9,0.5-3.7,0.8-5.3,0.8H0V16.5z M8.8,23v15.6H11c1.8,0,3.2-0.2,3.9-0.6
		s1.4-1.1,1.8-2.1s0.7-2.7,0.7-5c0-3-0.5-5.1-1.5-6.2S13.3,23,11.1,23H8.8z M31,16.5h16.6c2.8,0,4.9,0.7,6.4,2.1s2.2,3.1,2.2,5.1
		c0,1.7-0.5,3.1-1.6,4.4c-0.7,0.8-1.7,1.4-3.1,1.9c2.1,0.5,3.6,1.3,4.5,2.5s1.5,2.7,1.5,4.5c0,1.5-0.3,2.8-1,4s-1.6,2.1-2.8,2.8
		c-0.7,0.4-1.9,0.7-3.4,0.9c-2,0.3-3.3,0.4-4,0.4H31V16.5z M39.9,27.7h3.8c1.4,0,2.3-0.2,2.9-0.7s0.8-1.2,0.8-2.1
		c0-0.8-0.3-1.5-0.8-2s-1.5-0.7-2.8-0.7h-3.9V27.7z M39.9,39h4.5c1.5,0,2.6-0.3,3.2-0.8s0.9-1.3,0.9-2.2c0-0.8-0.3-1.5-0.9-2
		s-1.7-0.8-3.3-0.8h-4.5V39z M84.1,45.1H60.2c0.3-2.4,1.1-4.6,2.5-6.7s4-4.5,7.8-7.4c2.3-1.7,3.8-3,4.5-3.9s1-1.8,1-2.6
		c0-0.9-0.3-1.6-1-2.2s-1.5-0.9-2.4-0.9c-1,0-1.8,0.3-2.5,1s-1.1,1.8-1.3,3.4l-8-0.6c0.3-2.2,0.9-4,1.7-5.2s2-2.2,3.5-2.9
		s3.6-1,6.3-1c2.8,0,5,0.3,6.5,1s2.8,1.6,3.7,2.9s1.3,2.8,1.3,4.4c0,1.7-0.5,3.4-1.5,5s-2.9,3.3-5.6,5.2c-1.6,1.1-2.7,1.9-3.2,2.3
		s-1.2,1-1.9,1.7h12.4V45.1z"/>
	<g id="Group-2_2_">
		<polyline id="Fill-1_1_" class="st1" points="32,0.9 26.7,0.9 27,0 32,0 32,0.9 		"/>
		<path id="Fill-2" class="st1" d="M17.8,0l4.9,0l0.3,0.9c0,0-5.3,0-5.3,0C17.8,0.9,17.8,0,17.8,0"/>
		<path id="Fill-3" class="st1" d="M13.9,0c0.8,0.1,1.5,0.4,2.1,0.9c0,0-9,0-9,0V0L13.9,0"/>
		<polygon id="Fill-4" class="st1" points="0,0.9 6.2,0.9 6.2,0 0,0 		"/>
		<path id="Fill-6" class="st1" d="M32,2.7H26c0,0,0.3-0.9,0.3-0.9H32V2.7"/>
		<polyline id="Fill-7" class="st1" points="23.7,2.7 17.8,2.7 17.8,1.7 23.3,1.7 23.7,2.7 		"/>
		<path id="Fill-8" class="st1" d="M16.7,1.7c0.1,0.3,0.3,0.6,0.3,0.9H7V1.7H16.7"/>
		<polygon id="Fill-9" class="st1" points="0,2.6 6.2,2.6 6.2,1.7 0,1.7 		"/>
		<polyline id="Fill-11" class="st1" points="25.4,4.4 25.8,3.5 30.2,3.5 30.2,4.4 25.4,4.4 		"/>
		<polyline id="Fill-12" class="st1" points="24,3.5 24.3,4.4 19.5,4.4 19.5,3.5 24,3.5 		"/>
		<path id="Fill-13" class="st1" d="M17,3.5c0,0.3,0,0.6-0.1,0.9h-2.7V3.5H17"/>
		<polygon id="Fill-14" class="st1" points="1.7,4.4 4.4,4.4 4.4,3.5 1.7,3.5 		"/>
		<polygon id="Fill-16" class="st1" points="8.8,4.4 11.5,4.4 11.5,3.5 8.8,3.5 		"/>
		<path id="Fill-18" class="st1" d="M22.2,5.4c0,0,0,0.7,0,0.7h-2.6V5.2h5L24.9,6c0,0,0.3-0.9,0.3-0.9l5.1,0v0.9h-2.6
			c0,0,0-0.7,0-0.7l-0.2,0.7l-4.9,0L22.2,5.4"/>
		<path id="Fill-19" class="st1" d="M8.8,5.2h7.7v0c-0.2,0.3-0.5,0.7-0.8,0.9c0,0-6.9,0-6.9,0C8.8,6.1,8.8,5.2,8.8,5.2"/>
		<polygon id="Fill-20" class="st1" points="1.7,6.1 4.4,6.1 4.4,5.2 1.7,5.2 		"/>
		<polygon id="Fill-22" class="st1" points="27.6,7.8 30.2,7.8 30.2,6.9 27.6,6.9 		"/>
		<path id="Fill-24" class="st1" d="M22.2,6.9h-2.6v0.9c0,0,2.6,0,2.6,0C22.2,7.8,22.2,6.9,22.2,6.9"/>
		<path id="Fill-25" class="st1" d="M27.1,6.9c0,0-0.3,0.9-0.3,0.9l-3.7,0c0,0-0.3-0.9-0.3-0.9H27.1"/>
		<path id="Fill-26" class="st1" d="M8.8,6.9h6.9c0.3,0.3,0.6,0.6,0.8,0.9c0,0-7.7,0-7.7,0C8.8,7.8,8.8,6.9,8.8,6.9"/>
		<path id="Fill-27" class="st1" d="M4.4,7.8V6.9H1.7c0,0,0,0.9,0,0.9S4.4,7.8,4.4,7.8"/>
		<polygon id="Fill-28" class="st1" points="27.6,9.5 30.2,9.5 30.2,8.6 27.6,8.6 		"/>
		<polygon id="Fill-30" class="st1" points="19.5,9.5 22.2,9.5 22.2,8.6 19.5,8.6 		"/>
		<path id="Fill-32" class="st1" d="M26.1,9.5c0,0,0.3-0.9,0.3-0.9h-3.2c0,0,0.3,0.9,0.3,0.9S26.1,9.5,26.1,9.5"/>
		<path id="Fill-33" class="st1" d="M8.8,9.5c0,0,0-0.9,0-0.9h2.7c0,0,0,0.9,0,0.9C11.5,9.5,8.8,9.5,8.8,9.5"/>
		<path id="Fill-34" class="st1" d="M16.9,8.6c0.1,0.3,0.1,0.6,0.2,0.9h-2.9V8.6H16.9"/>
		<polygon id="Fill-35" class="st1" points="1.7,9.5 4.4,9.5 4.4,8.6 1.7,8.6 		"/>
		<polygon id="Fill-37" class="st1" points="27.6,11.2 32,11.2 32,10.3 27.6,10.3 		"/>
		<polygon id="Fill-39" class="st1" points="17.8,11.2 22.2,11.2 22.2,10.3 17.8,10.3 		"/>
		<polyline id="Fill-41" class="st1" points="25.6,11.2 24.2,11.2 23.9,10.3 25.9,10.3 25.6,11.2 		"/>
		<path id="Fill-42" class="st1" d="M0,10.3l0,0.9h6.2c0,0,0-0.9,0-0.9C6.2,10.3,0,10.3,0,10.3"/>
		<path id="Fill-43" class="st1" d="M17,10.3c-0.1,0.3-0.1,0.7-0.3,0.9l-0.1,0H7v-0.9H17"/>
		<polyline id="Fill-44" class="st1" points="24.9,13 24.8,13 24.5,12 25.3,12 24.9,13 		"/>
		<polygon id="Fill-45" class="st1" points="27.6,13 32,13 32,12 27.6,12 		"/>
		<path id="Fill-47" class="st1" d="M7,13V12c0,0,9,0,9,0c-0.6,0.6-1.4,0.9-2.3,0.9L7,13"/>
		<polygon id="Fill-48" class="st1" points="17.8,13 22.2,13 22.2,12 17.8,12 		"/>
		<path id="Fill-50" class="st1" d="M6.2,12c0,0,0,0.9,0,0.9c0,0-6.2,0-6.2,0C0,13,0,12,0,12S6.2,12,6.2,12"/>
	</g>
</g>
</svg>
