<?xml version="1.0" encoding="utf-8"?>
<!-- Generator: Adobe Illustrator 21.0.0, SVG Export Plug-In . SVG Version: 6.00 Build 0)  -->
<svg version="1.1" id="图层_1" xmlns="http://www.w3.org/2000/svg" xmlns:xlink="http://www.w3.org/1999/xlink" x="0px" y="0px"
	 viewBox="0 0 140 100" style="enable-background:new 0 0 140 100;" xml:space="preserve">
<style type="text/css">
	.st0{fill:#1E73C5;}
	.st1{fill:#FFFFFF;}
</style>
<g id="Group-25_1_">
	<rect id="Path_10_" class="st0" width="140" height="100"/>
</g>
<g id="Group-4" transform="translate(17.000000, 36.000000)">
	<path id="Shape_13_" class="st1" d="M0,0v27.2h27.8L55,0H0z M7.5,4.8L7.5,4.8c2,0,4.4,0.6,6.1,1.5l-1.9,3.3c-1.9-0.9-2.9-1-4-1.1
		C6.2,8.4,5.3,9,5.3,9.6c0,0.8,1.5,1.5,3,1.9c2.2,0.7,5,1.6,5.4,4.4l4-10.8h4.7L27.2,18V5.1h5.4v0c5.2,0,7.6,1.8,7.6,5.9
		c0,3.6-2.5,5.8-6.7,5.8h-1.8v5.2h-8L23,19.5c-0.8,0.3-1.8,0.4-2.8,0.4c-1,0-2-0.2-2.9-0.5l-0.8,2.5h-4.9l0.5-1.5l-0.2,0.2
		c-1.2,1-2.8,1.5-4.7,1.6H6.9c-2.1,0-4.3-0.6-6.1-1.6l1.7-3.3c1.8,1.1,2.9,1.3,4.5,1.3c0.8,0,1.4-0.2,1.7-0.6
		C8.9,17.8,9,17.5,9,17.2c0-0.9-1.2-1.3-2.7-1.7c-1.2-0.4-2.6-0.9-3.7-1.7c-1.3-0.9-1.9-2.1-1.9-3.8c0-1.2,0.5-2.3,1.3-3.2
		C3.3,5.6,5.2,4.8,7.5,4.8L7.5,4.8z M31.8,8.7V13H33c1.6,0,2.9-0.5,2.9-2.2c0-1.6-1.3-2.2-2.9-2.2L31.8,8.7z M20.1,10.4l-1.7,5.4
		c0.6,0.2,1.1,0.3,1.7,0.3c0.6,0,1.2-0.1,1.7-0.3L20.1,10.4L20.1,10.4z M35.9,23.7c-1,0-1.8,0.7-1.8,1.8c0,1,0.8,1.8,1.8,1.8
		c0.5,0,0.9-0.2,1.3-0.5c0.3-0.3,0.5-0.8,0.5-1.3C37.7,24.4,36.9,23.7,35.9,23.7L35.9,23.7z M35.9,24c0.8,0,1.4,0.6,1.4,1.5
		c0,0.8-0.6,1.5-1.4,1.5c-0.8,0-1.5-0.6-1.5-1.5C34.4,24.6,35.1,24,35.9,24L35.9,24z M35.2,24.4v2h0.3v-0.9h0.3l0.6,0.9h0.3
		l-0.6-0.9c0.3,0,0.5-0.2,0.5-0.6c0-0.4-0.2-0.6-0.7-0.6H35.2z M35.5,24.7h0.4c0.2,0,0.4,0,0.4,0.3c0,0.3-0.2,0.3-0.5,0.3h-0.4
		L35.5,24.7z"/>
	<path id="HANA" class="st1" d="M58.2,8.7h2.5v4.2h4.8V8.7H68V20h-2.5v-4.9h-4.8V20h-2.5V8.7z M74,8.7h2.1L81,20h-2.8l-1-2.4h-4.4
		L71.9,20h-2.8L74,8.7z M75,12l-1.4,3.5h2.8L75,12z M82.2,8.7h3.4l4.8,7.9h0V8.7h2.5V20h-3.3l-4.9-8.1h0V20h-2.5V8.7z M98.9,8.7h2.1
		l4.9,11.3h-2.8l-1-2.4h-4.4L96.8,20H94L98.9,8.7z M99.9,12l-1.4,3.5h2.8L99.9,12z"/>
</g>
</svg>
