<?xml version="1.0" encoding="utf-8"?>
<!-- Generator: Adobe Illustrator 21.0.0, SVG Export Plug-In . SVG Version: 6.00 Build 0)  -->
<svg version="1.1" id="图层_1" xmlns="http://www.w3.org/2000/svg" xmlns:xlink="http://www.w3.org/1999/xlink" x="0px" y="0px"
	 viewBox="0 0 140 100" style="enable-background:new 0 0 140 100;" xml:space="preserve">
<style type="text/css">
	.st0{fill:#93C037;}
	.st1{fill:#FFFFFF;}
	.st2{fill:#95BD33;}
</style>
<g id="Group-25">
	<rect id="Path_9_" class="st0" width="140" height="100"/>
</g>
<path id="Combined-Shape_1_" class="st1" d="M42.3,61.3c-6.2,6.2-16.4,6.2-22.6,0s-6.2-16.4,0-22.6s16.4-6.2,22.6,0
	S48.6,55.1,42.3,61.3z M40.6,59.6c5.3-5.3,5.3-13.9,0-19.2s-13.9-5.3-19.2,0s-5.3,13.9,0,19.2S35.3,64.9,40.6,59.6z"/>
<path id="Oval-2" class="st1" d="M30.4,49.4c3.3-3.3,10-5.8,8.5-7.4c-4.4-4.4-11.5-4.4-15.8,0s-4.4,11.5,0,15.8
	C24.5,59.3,27.2,52.7,30.4,49.4z"/>
<path id="Oval-2_1_" class="st2" d="M29.1,48.1c1.4-1.4,3.4-2.1,3.9-2.9c-1.9-1.9-4.9-1.9-6.8,0c-1.9,1.9-1.9,4.9,0,6.8
	C26.9,51.6,27.7,49.5,29.1,48.1z"/>
<path id="GREENPLUM-DATABASE" class="st1" d="M56.3,44.6v-1.4H60v3.4c-0.4,0.4-0.9,0.7-1.6,0.9c-0.7,0.3-1.4,0.4-2.1,0.4
	c-0.9,0-1.7-0.2-2.3-0.6s-1.2-0.9-1.5-1.6S52,44.2,52,43.4c0-0.9,0.2-1.7,0.6-2.4c0.4-0.7,0.9-1.2,1.6-1.6c0.5-0.3,1.2-0.4,2-0.4
	c1.1,0,1.9,0.2,2.5,0.7c0.6,0.4,1,1.1,1.2,1.8l-1.7,0.3c-0.1-0.4-0.3-0.8-0.7-1c-0.3-0.2-0.7-0.4-1.2-0.4c-0.8,0-1.4,0.2-1.8,0.7
	s-0.7,1.2-0.7,2.1c0,1,0.2,1.8,0.7,2.3s1,0.8,1.8,0.8c0.4,0,0.7-0.1,1.1-0.2s0.7-0.3,0.9-0.5v-1.1H56.3z M61.6,47.7v-8.6h3.6
	c0.9,0,1.6,0.1,2,0.2s0.7,0.4,1,0.8s0.4,0.8,0.4,1.3c0,0.6-0.2,1.2-0.6,1.6c-0.4,0.4-0.9,0.7-1.7,0.8c0.4,0.2,0.7,0.5,0.9,0.7
	c0.2,0.3,0.6,0.7,1,1.4l1,1.7h-2.1L66,45.8c-0.4-0.7-0.7-1.1-0.9-1.3s-0.3-0.3-0.5-0.4c-0.2-0.1-0.5-0.1-0.9-0.1h-0.4v3.6H61.6z
	 M63.3,42.8h1.3c0.8,0,1.3,0,1.6-0.1c0.2-0.1,0.4-0.2,0.5-0.4c0.1-0.2,0.2-0.4,0.2-0.6c0-0.3-0.1-0.5-0.2-0.7s-0.4-0.3-0.7-0.3
	c-0.1,0-0.6,0-1.3,0h-1.3V42.8z M70.2,47.7v-8.6h6.3v1.4H72v1.9h4.3v1.4H72v2.3h4.8v1.4H70.2z M78.2,47.7v-8.6h6.3v1.4h-4.6v1.9h4.3
	v1.4h-4.3v2.3h4.8v1.4H78.2z M86.2,47.7v-8.6h1.7l3.5,5.7v-5.7H93v8.6h-1.7l-3.5-5.6v5.6H86.2z M94.8,47.7v-8.6h2.8
	c1.1,0,1.7,0,2.1,0.1c0.5,0.1,0.9,0.4,1.2,0.8c0.3,0.4,0.5,1,0.5,1.7c0,0.5-0.1,1-0.3,1.3c-0.2,0.4-0.4,0.6-0.7,0.8
	c-0.3,0.2-0.6,0.3-0.9,0.4c-0.4,0.1-1,0.1-1.8,0.1h-1.1v3.2H94.8z M96.6,40.6V43h0.9c0.7,0,1.1,0,1.4-0.1c0.2-0.1,0.4-0.2,0.5-0.4
	c0.1-0.2,0.2-0.4,0.2-0.7c0-0.3-0.1-0.6-0.3-0.8c-0.2-0.2-0.4-0.3-0.7-0.4c-0.2,0-0.6-0.1-1.2-0.1H96.6z M102.9,47.7v-8.5h1.7v7h4.3
	v1.4H102.9z M110.1,39.1h1.7v4.6c0,0.7,0,1.2,0.1,1.4c0.1,0.4,0.3,0.6,0.5,0.8c0.3,0.2,0.7,0.3,1.1,0.3c0.5,0,0.9-0.1,1.1-0.3
	c0.2-0.2,0.4-0.4,0.4-0.7c0.1-0.3,0.1-0.8,0.1-1.5v-4.7h1.7v4.5c0,1,0,1.8-0.1,2.2c-0.1,0.4-0.3,0.8-0.5,1.1c-0.3,0.3-0.6,0.5-1,0.7
	c-0.4,0.2-1,0.3-1.6,0.3c-0.8,0-1.4-0.1-1.9-0.3c-0.4-0.2-0.8-0.4-1-0.7c-0.2-0.3-0.4-0.6-0.5-0.9c-0.1-0.5-0.2-1.2-0.2-2.2V39.1z
	 M118.7,47.7v-8.6h2.6l1.6,5.8l1.5-5.8h2.6v8.6h-1.6V41l-1.7,6.7H122l-1.7-6.7v6.7H118.7z M52.3,52.3h3.2c0.7,0,1.3,0.1,1.6,0.2
	c0.5,0.1,0.9,0.4,1.3,0.8c0.4,0.4,0.6,0.8,0.8,1.4c0.2,0.5,0.3,1.2,0.3,2c0,0.7-0.1,1.3-0.3,1.8c-0.2,0.6-0.5,1.1-0.9,1.5
	c-0.3,0.3-0.7,0.5-1.2,0.7c-0.4,0.1-0.9,0.2-1.5,0.2h-3.3V52.3z M54,53.7v5.7h1.3c0.5,0,0.8,0,1-0.1c0.3-0.1,0.5-0.2,0.7-0.4
	c0.2-0.2,0.3-0.4,0.5-0.8c0.1-0.4,0.2-0.9,0.2-1.6s-0.1-1.2-0.2-1.5c-0.1-0.4-0.3-0.6-0.5-0.8c-0.2-0.2-0.5-0.3-0.8-0.4
	c-0.2-0.1-0.7-0.1-1.4-0.1H54z M68.7,60.8h-1.9L66,58.9h-3.4l-0.7,1.9h-1.8l3.3-8.6h1.8L68.7,60.8z M65.5,57.5l-1.2-3.2l-1.2,3.2
	H65.5z M70.6,60.8v-7.1h-2.5v-1.4h6.8v1.4h-2.5v7.1H70.6z M82.8,60.8h-1.9l-0.7-1.9h-3.4l-0.7,1.9h-1.8l3.3-8.6h1.8L82.8,60.8z
	 M79.6,57.5l-1.2-3.2l-1.2,3.2H79.6z M83.7,52.3h3.4c0.7,0,1.2,0,1.5,0.1c0.3,0.1,0.6,0.2,0.9,0.4s0.5,0.4,0.7,0.7
	c0.2,0.3,0.3,0.6,0.3,1c0,0.4-0.1,0.8-0.3,1.1s-0.5,0.6-0.9,0.8c0.5,0.2,0.9,0.4,1.2,0.8c0.3,0.4,0.4,0.8,0.4,1.3
	c0,0.4-0.1,0.8-0.3,1.1c-0.2,0.4-0.4,0.7-0.7,0.9c-0.3,0.2-0.7,0.4-1.2,0.4c-0.3,0-1,0.1-2.1,0.1h-2.9V52.3z M85.5,53.7v2h1.1
	c0.7,0,1.1,0,1.3,0c0.3,0,0.5-0.1,0.7-0.3c0.2-0.2,0.3-0.4,0.3-0.7c0-0.3-0.1-0.5-0.2-0.6c-0.1-0.2-0.4-0.3-0.7-0.3
	c-0.2,0-0.7,0-1.5,0H85.5z M85.5,57.1v2.3h1.6c0.6,0,1,0,1.2-0.1c0.3,0,0.5-0.2,0.6-0.3c0.2-0.2,0.2-0.4,0.2-0.7
	c0-0.3-0.1-0.5-0.2-0.7c-0.1-0.2-0.3-0.3-0.5-0.4s-0.7-0.1-1.5-0.1H85.5z M100.1,60.8h-1.9l-0.7-1.9H94l-0.7,1.9h-1.8l3.3-8.6h1.8
	L100.1,60.8z M96.9,57.5l-1.2-3.2l-1.2,3.2H96.9z M100.6,58.1l1.7-0.2c0.1,0.6,0.3,1,0.6,1.2s0.7,0.4,1.3,0.4c0.6,0,1-0.1,1.3-0.4
	c0.3-0.2,0.4-0.5,0.4-0.8c0-0.2-0.1-0.4-0.2-0.5s-0.3-0.3-0.6-0.4c-0.2-0.1-0.7-0.2-1.4-0.4c-0.9-0.2-1.6-0.5-2-0.8
	c-0.5-0.5-0.8-1-0.8-1.7c0-0.4,0.1-0.8,0.4-1.2c0.2-0.4,0.6-0.7,1.1-0.9c0.5-0.2,1-0.3,1.7-0.3c1.1,0,1.9,0.2,2.4,0.7
	c0.5,0.5,0.8,1.1,0.9,1.9l-1.7,0.1c-0.1-0.4-0.2-0.8-0.5-0.9c-0.2-0.2-0.6-0.3-1.1-0.3c-0.5,0-0.9,0.1-1.2,0.3
	c-0.2,0.1-0.3,0.3-0.3,0.5c0,0.2,0.1,0.4,0.3,0.5c0.2,0.2,0.7,0.4,1.6,0.6c0.8,0.2,1.5,0.4,1.9,0.6s0.7,0.5,0.9,0.9s0.3,0.8,0.3,1.4
	c0,0.5-0.1,0.9-0.4,1.4s-0.7,0.7-1.2,1s-1.1,0.3-1.9,0.3c-1.1,0-1.9-0.2-2.5-0.7C101,59.8,100.7,59,100.6,58.1z M109,60.8v-8.6h6.3
	v1.4h-4.6v1.9h4.3v1.4h-4.3v2.3h4.8v1.4H109z"/>
</svg>
