<?xml version="1.0" encoding="utf-8"?>
<!-- Generator: Adobe Illustrator 21.0.0, SVG Export Plug-In . SVG Version: 6.00 Build 0)  -->
<svg version="1.1" id="图层_1" xmlns="http://www.w3.org/2000/svg" xmlns:xlink="http://www.w3.org/1999/xlink" x="0px" y="0px"
	 viewBox="0 0 140 100" style="enable-background:new 0 0 140 100;" xml:space="preserve">
<style type="text/css">
	.st0{fill:#D70103;}
	.st1{fill:#FFFFFF;}
</style>
<rect id="Path_8_" class="st0" width="140" height="100"/>
<g id="Group-2_1_" transform="translate(13.000000, 39.000000)">
	<path id="Fill-910" class="st1" d="M47,5.8L45.4,10l-1.9-4.2c-1.3,0-2.7,0-4,0l-3,7.4c1.1,0,2.2,0,3.3,0l1.6-4.1l1.8,4
		c1.4,0,2.8,0,4.2,0l2.9-7.2C49.2,5.8,48.1,5.8,47,5.8"/>
	<path id="Fill-911" class="st1" d="M29.9,5.8l-6.7,7.8c1.2,0,2.4,0,3.6-0.1l4.7-6l-0.1,5.3l0,0.7c1.2,0,2.4,0,3.6-0.1l-0.5-7.5
		C32.9,5.8,31.4,5.8,29.9,5.8"/>
	<path id="Fill-912" class="st1" d="M24,5.4c-3-0.1-6-0.1-9-0.2l-3.4,8.4c1.2,0,2.4-0.1,3.5-0.1l2.7-6.8h1.5c0.6,0,1,0.1,1.2,0.2
		c0.2,0.2,0.2,0.4,0.1,0.7c-0.1,0.2-0.2,0.4-0.4,0.5c-0.2,0.2-0.4,0.2-0.7,0.3c-0.5,0.1-0.8,0.1-1,0.1h-0.2l-0.8,2
		c0.1,0.1,0.2,0.3,0.3,0.7l0.6,2.2c1.3,0,2.6-0.1,3.9-0.1l-0.5-2c0-0.1-0.1-0.3-0.3-0.6c-0.1-0.2-0.3-0.4-0.4-0.5
		c-0.1-0.1-0.4-0.2-0.8-0.3c0.6-0.1,1-0.2,1.4-0.4c0.6-0.2,1-0.5,1.5-0.9c0.4-0.4,0.7-0.8,0.9-1.3c0.2-0.6,0.3-1.1,0.1-1.5
		C24.3,5.7,24.2,5.5,24,5.4"/>
	<path id="Fill-913" class="st1" d="M3.6,5.2h-1L1.7,7.4h3.6l-2.7,6.8c1.2,0,2.4-0.1,3.5-0.1l2.7-6.7h3.6l0.8-2
		C9.9,5.4,6.8,5.3,3.6,5.2"/>
	<path id="Fill-914" class="st1" d="M49.5,10.6l3.4-0.1c-0.1,0.3-0.1,0.6,0,0.8c0.2,0.3,0.7,0.4,1.3,0.4c0.5,0,0.9-0.1,1.3-0.2
		c0.3-0.1,0.6-0.3,0.7-0.5c0.1-0.2,0.1-0.3-0.1-0.5c-0.2-0.1-0.7-0.3-1.6-0.4c-1.4-0.2-2.4-0.5-2.8-0.9c-0.5-0.4-0.6-0.8-0.3-1.4
		c0.2-0.4,0.5-0.7,1-1c0.5-0.3,1.1-0.6,1.9-0.8c0.8-0.2,1.7-0.3,2.9-0.3c1.4,0,2.5,0.2,3,0.5c0.6,0.3,0.8,0.9,0.5,1.6L57.5,8
		c0.1-0.3,0-0.5-0.2-0.7c-0.2-0.1-0.6-0.2-1-0.2c-0.4,0-0.7,0.1-1,0.2c-0.3,0.1-0.4,0.2-0.5,0.4c-0.1,0.1,0,0.2,0.1,0.3
		c0.1,0.1,0.5,0.2,1,0.3c1.4,0.2,2.4,0.4,3,0.6c0.6,0.2,0.9,0.5,1,0.8c0.1,0.3,0.1,0.7-0.1,1c-0.2,0.5-0.6,0.9-1.2,1.3
		c-0.6,0.4-1.3,0.7-2.1,0.9c-0.8,0.2-1.8,0.3-2.9,0.3c-1.9,0-3.1-0.2-3.6-0.7C49.4,11.9,49.2,11.3,49.5,10.6"/>
	<path id="Fill-915" class="st1" d="M109.6,8.1c-0.1,0.3-0.4,0.5-0.7,0.7c-0.3,0.2-0.9,0.3-1.5,0.3h-0.9l0.8-2l1-0.1
		c0.7,0,1.1,0.1,1.2,0.3C109.7,7.5,109.7,7.8,109.6,8.1 M110.9,5.2c-2.1,0.1-4.3,0.1-6.4,0.2l-3.4,8.5c1.2,0,2.3,0.1,3.5,0.1l1.2-3
		h1.9c1.4,0,2.6-0.3,3.5-0.8c0.9-0.5,1.5-1.2,1.9-2.2c0.4-0.9,0.3-1.6-0.1-2.1C112.5,5.5,111.8,5.2,110.9,5.2"/>
	<path id="Fill-916" class="st1" d="M100.7,5.2c-2.9,0.1-5.8,0.2-8.7,0.2l-3.1,7.9c1.2,0,2.3,0,3.5,0.1l2.6-6.5l1.6-0.1
		c0.6,0,1,0.1,1.2,0.2c0.2,0.2,0.2,0.4,0.1,0.7c-0.1,0.2-0.2,0.4-0.4,0.5c-0.2,0.2-0.4,0.2-0.7,0.3c-0.5,0.1-0.8,0.1-1,0.1h-0.2
		l-0.8,2c0.1,0.1,0.2,0.3,0.3,0.7l0.6,2.2c1.3,0,2.7,0.1,4,0.1l-0.5-2.1c0-0.1-0.1-0.3-0.3-0.6c-0.1-0.2-0.3-0.4-0.4-0.5
		c-0.1-0.1-0.4-0.2-0.8-0.3c0.6-0.1,1-0.2,1.4-0.4c0.6-0.2,1-0.5,1.5-0.9c0.4-0.4,0.7-0.8,0.9-1.3c0.2-0.6,0.3-1.1,0.1-1.5
		C101.3,5.6,101.1,5.3,100.7,5.2"/>
	<path id="Fill-917" class="st1" d="M82.5,5.8l-6.4,7.5c1.2,0,2.3,0,3.4,0l4.5-5.9l-0.1,5.3l0,0.7c1.2,0,2.4,0,3.6,0.1L87,5.8
		C85.5,5.8,84,5.8,82.5,5.8"/>
	<path id="Fill-918" class="st1" d="M77.5,6.4l0.6-0.8c-1.1,0-2.2,0-3.3,0l-0.5,0.8L72,9.9l0.2-4.3L72.6,0l-7.4,9.9l0.2-1.4l0.5-2.8
		c-1.1,0-2.2,0-3.3,0l-0.4,3.5L61,19.5l8.3-11.3l-0.3,4.7c1.3,0,2.7,0,4,0L77,7.2L77.5,6.4z"/>
	<path id="Fill-919" class="st1" d="M57.4,15c21.3,0,41.1,1.1,57.4,2.8c-15.5-2.5-35.5-4.1-57.4-4.1c-21.9,0-41.9,1.5-57.4,4.1
		C16.3,16.1,36.1,15,57.4,15"/>
	<path id="Fill-920" class="st1" d="M27.4,20.3V22h0.3c0.3,0,0.5,0,0.6-0.1c0.1,0,0.2-0.1,0.3-0.2c0.1-0.1,0.1-0.3,0.1-0.5
		c0-0.3-0.1-0.6-0.2-0.7c-0.1-0.1-0.4-0.2-0.7-0.2H27.4z M26.1,19.5H28c0.4,0,0.7,0,0.9,0.1c0.2,0.1,0.4,0.2,0.6,0.3
		c0.2,0.1,0.3,0.3,0.3,0.5c0.1,0.2,0.1,0.4,0.1,0.6c0,0.3-0.1,0.6-0.2,0.8c-0.1,0.2-0.2,0.3-0.4,0.5c-0.2,0.1-0.4,0.2-0.6,0.3
		c-0.3,0.1-0.5,0.1-0.8,0.1h-1.9V19.5z"/>
	<path id="Fill-921" class="st1" d="M37,21.5l-0.5-1.1l-0.5,1.1H37z M37.2,22.2h-1.5l-0.2,0.5h-1.3l1.6-3.2h1.4l1.6,3.2h-1.3
		L37.2,22.2z"/>
	<polygon id="Fill-922" class="st1" points="43.6,19.5 47.5,19.5 47.5,20.3 46.2,20.3 46.2,22.7 44.9,22.7 44.9,20.3 43.6,20.3 	"/>
	<path id="Fill-923" class="st1" d="M54.4,21.5l-0.5-1.1l-0.5,1.1H54.4z M54.7,22.2h-1.5L53,22.7h-1.3l1.6-3.2h1.4l1.6,3.2h-1.3
		L54.7,22.2z"/>
	<polygon id="Fill-924" class="st1" points="66.2,19.5 67.5,19.5 67.5,20.7 68.9,20.7 68.9,19.5 70.2,19.5 70.2,22.7 68.9,22.7 
		68.9,21.4 67.5,21.4 67.5,22.7 66.2,22.7 	"/>
	<path id="Fill-925" class="st1" d="M78.8,19.5h1.3v1.9c0,0.2,0,0.4-0.1,0.5c-0.1,0.2-0.2,0.3-0.4,0.4c-0.2,0.1-0.3,0.2-0.5,0.3
		c-0.2,0.1-0.5,0.1-0.9,0.1c-0.2,0-0.4,0-0.7,0c-0.2,0-0.4-0.1-0.6-0.1c-0.2-0.1-0.3-0.2-0.4-0.3c-0.1-0.1-0.2-0.2-0.3-0.4
		c-0.1-0.2-0.1-0.4-0.1-0.5v-1.9h1.3v1.9c0,0.2,0.1,0.3,0.2,0.4c0.1,0.1,0.3,0.1,0.5,0.1c0.2,0,0.4,0,0.5-0.1
		c0.1-0.1,0.2-0.2,0.2-0.4V19.5z"/>
	<path id="Fill-926" class="st1" d="M86.7,22h0.7c0.2,0,0.4,0,0.5-0.1c0.1-0.1,0.1-0.1,0.1-0.2c0-0.1,0-0.2-0.1-0.2
		c-0.1-0.1-0.2-0.1-0.5-0.1h-0.7V22z M86.7,20.8h0.6c0.2,0,0.3,0,0.4-0.1c0.1-0.1,0.1-0.1,0.1-0.2c0-0.1,0-0.2-0.1-0.2
		c-0.1-0.1-0.2-0.1-0.4-0.1h-0.6V20.8z M85.4,19.5h2.4c0.4,0,0.7,0.1,0.9,0.2c0.2,0.2,0.3,0.3,0.3,0.6c0,0.2-0.1,0.3-0.2,0.5
		c-0.1,0.1-0.3,0.2-0.4,0.2c0.3,0.1,0.5,0.1,0.7,0.3c0.1,0.1,0.2,0.3,0.2,0.5c0,0.2,0,0.3-0.1,0.4c-0.1,0.1-0.2,0.2-0.4,0.3
		c-0.1,0-0.3,0.1-0.5,0.1c-0.3,0-0.5,0-0.6,0h-2.2V19.5z"/>
</g>
</svg>
