<?xml version="1.0" encoding="utf-8"?>
<!-- Generator: Adobe Illustrator 21.0.0, SVG Export Plug-In . SVG Version: 6.00 Build 0)  -->
<svg version="1.1" id="图层_1" xmlns="http://www.w3.org/2000/svg" xmlns:xlink="http://www.w3.org/1999/xlink" x="0px" y="0px"
	 viewBox="0 0 140 100" style="enable-background:new 0 0 140 100;" xml:space="preserve">
<style type="text/css">
	.st0{fill:#5EC429;}
	.st1{fill:#FFFFFF;}
</style>
<rect id="Path_7_" class="st0" width="140" height="100"/>
<path id="CSV" class="st1" d="M39.5,67.9c8.2,0,14.1-5,14.7-12.4h-6.9c-0.7,3.7-3.7,6.1-7.8,6.1c-5.3,0-8.6-4.4-8.6-11.6
	s3.3-11.5,8.6-11.5c4,0,7.1,2.6,7.8,6.4h6.9c-0.5-7.4-6.7-12.7-14.7-12.7c-9.8,0-15.9,6.8-15.9,17.8C23.6,61.1,29.7,67.9,39.5,67.9z
	 M56.3,57.6c0.3,6.3,5.5,10.3,13.5,10.3c8.5,0,13.7-4.2,13.7-11c0-5.3-2.9-8.2-9.7-9.6l-4.1-0.9c-4-0.8-5.6-2-5.6-4.1
	c0-2.6,2.3-4.2,5.9-4.2c3.4,0,5.9,1.8,6.2,4.5H83c-0.2-6-5.5-10.2-12.9-10.2c-7.8,0-12.9,4.2-12.9,10.6c0,5.2,3,8.4,9.2,9.7l4.4,0.9
	c4.1,0.9,5.8,2.1,5.8,4.3c0,2.6-2.6,4.3-6.3,4.3c-4,0-6.7-1.8-7.1-4.5H56.3z M105,67l11.3-33.8h-7.6L101.1,59h-0.4L93,33.2h-8
	L96.5,67H105z"/>
</svg>
