<?xml version="1.0" encoding="utf-8"?>
<!-- Generator: Adobe Illustrator 21.0.0, SVG Export Plug-In . SVG Version: 6.00 Build 0)  -->
<svg version="1.1" id="图层_1" xmlns="http://www.w3.org/2000/svg" xmlns:xlink="http://www.w3.org/1999/xlink" x="0px" y="0px"
	 viewBox="0 0 140 100" style="enable-background:new 0 0 140 100;" xml:space="preserve">
<style type="text/css">
	.st0{fill:#ED8A1C;}
	.st1{fill:#FFFFFF;}
</style>
<rect id="Path_6_" class="st0" width="140" height="100"/>
<path id="Fill-1" class="st1" d="M37.6,38h-17L20,40h7.8v19.5c0,1,0.6,1.6,1.8,1.6h1V40H37L37.6,38z M91.4,42.8
	c-0.7,0-1.3,0.2-1.4,0.6l-5.7,15.1h1.1c1.1,0,1.6-0.1,2-1l1.3-3.5H92l-0.5-1.7h-2.4l2.1-6l3.8,11.2c0.3,0.9,0.9,1,2.1,1h1.3
	l-5.8-15.1C92.6,43.1,92,42.8,91.4,42.8z M114.2,43.4c-0.1-0.3-0.8-0.6-1.4-0.6c-0.7,0-1.3,0.2-1.4,0.6l-5.7,15.1h1.1
	c1.1,0,1.6-0.1,2-1l1.3-3.5h3.4l-0.5-1.7h-2.4l2.1-6l3.8,11.2c0.3,0.9,0.9,1,2.1,1h1.3L114.2,43.4z M64.2,42.8
	c-0.7,0-1.3,0.2-1.4,0.6l-5.4,14.5l-4.1-6.2c2.1-0.4,3.4-1.5,3.4-3.4V47c0-2.8-2.6-3.9-6-3.9h-4.8v13.8h-6.2c-2.4,0-3-0.5-3-3.1V51
	h4.6l0.5-1.7h-5.1v-4.5h6.7l0.5-1.7H33.9v10.7c0,3.6,0.8,4.8,5.7,4.8l9.1,0V44.8h2c2.2,0,3.3,0.8,3.3,2.2v1.3c0,1.5-1.4,2-3,2h-1.3
	l4.3,7.3c0.5,0.8,0.7,0.9,1.8,0.9h2.5c1.1,0,1.6-0.1,2-1l1.3-3.5h3.4l-0.5-1.7H62l2.1-6l3.8,11.2c0.3,0.9,0.9,1,2.1,1h1.3l-5.8-15.1
	C65.5,43.1,64.8,42.8,64.2,42.8z M81.5,52.1c0,3.1-1,4.7-3.8,4.7h-2.5v-12h2.4c2.9,0,3.9,1.7,3.9,4.8V52.1z M84.3,49.5
	c0-4.3-2.2-6.5-6.7-6.5h-5.2v13.9c0,1,0.6,1.6,1.8,1.6h3.5l0.6,0c4.2-0.2,6.1-2,6.1-6.3V49.5z M109,43.1H96.1l-0.5,1.7h5.3V57
	c0,1,0.6,1.6,1.8,1.6h1V44.8h4.8L109,43.1z"/>
</svg>
