<?xml version="1.0" encoding="utf-8"?>
<!-- Generator: Adobe Illustrator 21.0.0, SVG Export Plug-In . SVG Version: 6.00 Build 0)  -->
<svg version="1.1" id="图层_1" xmlns="http://www.w3.org/2000/svg" xmlns:xlink="http://www.w3.org/1999/xlink" x="0px" y="0px"
	 viewBox="0 0 140 100" style="enable-background:new 0 0 140 100;" xml:space="preserve">
<style type="text/css">
	.st0{fill:#03171A;}
	.st1{fill:#FFFFFF;}
	.st2{fill:#1FE5FF;}
	.st3{fill:#5A93FF;}
	.st4{fill:#5B96FF;}
</style>
<rect id="Path_5_" class="st0" width="140" height="100"/>
<g id="Group-13" transform="translate(11.000000, 27.000000)">
	<ellipse id="Oval_1_" class="st1" cx="72.2" cy="2.4" rx="1.9" ry="1.9"/>
	<ellipse id="Oval_2_" class="st2" cx="84.1" cy="2.2" rx="2.2" ry="2.2"/>
	<ellipse id="Oval_3_" class="st3" cx="96.1" cy="2.4" rx="2.4" ry="2.4"/>
	<ellipse id="Oval_4_" class="st3" cx="102.2" cy="8.5" rx="2.7" ry="2.7"/>
	<ellipse id="Oval_5_" class="st3" cx="108.3" cy="14.6" rx="2.9" ry="2.9"/>
	<ellipse id="Oval_6_" class="st3" cx="114.8" cy="20.2" rx="3.2" ry="3.2"/>
	<ellipse id="Oval_7_" class="st2" cx="90.2" cy="8.3" rx="2.4" ry="2.4"/>
	<ellipse id="Oval_8_" class="st2" cx="96.3" cy="14.3" rx="2.7" ry="2.7"/>
	<ellipse id="Oval_9_" class="st2" cx="102.4" cy="20.4" rx="2.9" ry="2.9"/>
	<ellipse id="Oval_10_" class="st2" cx="108.5" cy="26.5" rx="3.2" ry="3.2"/>
	<ellipse id="Oval_11_" class="st1" cx="77.8" cy="8" rx="2.2" ry="2.2"/>
	<ellipse id="Oval_12_" class="st3" cx="84.1" cy="26.5" rx="2.2" ry="2.2"/>
	<ellipse id="Oval_13_" class="st3" cx="83.9" cy="38.4" rx="1.9" ry="1.9"/>
	<ellipse id="Oval_14_" class="st3" cx="72.2" cy="38.4" rx="1.9" ry="1.9"/>
	<ellipse id="Oval_15_" class="st4" cx="96.1" cy="38.4" rx="1.9" ry="1.9"/>
	<ellipse id="Oval_16_" class="st3" cx="77.8" cy="32.3" rx="2.2" ry="2.2"/>
	<ellipse id="Oval_17_" class="st3" cx="90" cy="32.3" rx="2.2" ry="2.2"/>
	<ellipse id="Oval_18_" class="st1" cx="84.1" cy="14.3" rx="2.2" ry="2.2"/>
	<ellipse id="Oval_19_" class="st1" cx="90" cy="20.2" rx="2.2" ry="2.2"/>
	<ellipse id="Oval_20_" class="st1" cx="96.3" cy="26.5" rx="2.7" ry="2.7"/>
	<ellipse id="Oval_21_" class="st1" cx="102.2" cy="32.3" rx="3.2" ry="3.2"/>
	<path id="path4197" class="st1" d="M0.4,45.9c-0.2-0.1-0.3-0.3-0.4-0.5c0-0.1,0-2.5,0-9v-8.9l0.1-0.2C0.2,27.1,0.4,27,0.9,27
		c0.6,0,0.7,0.1,1,0.7L2.1,28l0.3-0.2c0.7-0.4,1.4-0.8,2.3-0.9c0.5-0.1,1.8-0.2,2.3-0.1c2.4,0.3,3.6,1.8,4,4.7c0.1,0.7,0.1,3,0,3.7
		c-0.4,2.9-1.7,4.4-4,4.7c-0.4,0.1-1.4,0.1-1.8,0c-0.7-0.1-1.4-0.3-2.1-0.7c-0.2-0.1-0.3-0.2-0.4-0.2c0,0,0,1.4,0,3.1
		c0,2.9,0,3.1-0.1,3.3c0,0.1-0.1,0.2-0.2,0.3C2.4,46,2.2,46,1.4,46C0.7,46,0.6,46,0.4,45.9L0.4,45.9z M6.4,37.5
		c0.8-0.2,1.4-0.8,1.7-1.8c0.2-0.6,0.2-1.2,0.2-2.3c0-1.9-0.2-2.9-0.9-3.5c-0.5-0.5-1-0.7-2-0.7c-0.9,0-1.5,0.2-2.3,0.5l-0.3,0.2
		v3.5v3.5L3.2,37c0.4,0.2,1,0.4,1.4,0.5c0.2,0,0.3,0.1,0.4,0.1C5.1,37.6,6.2,37.5,6.4,37.5z M13.7,40c-0.2,0-0.4-0.2-0.5-0.4
		c0-0.1-0.1-0.2-0.1-0.4c0-0.1,0-2.3,0-5.9l0-5.7l0.1-0.2c0.2-0.3,0.4-0.4,0.9-0.4c0.6,0,0.7,0.1,1,0.7l0.2,0.3l0.3-0.2
		c0.6-0.4,1.4-0.7,2.3-0.9c0.4-0.1,0.5-0.1,1.2-0.1l0.8,0l0.2,0.1c0.2,0.1,0.3,0.2,0.3,0.3c0.1,0.2,0.1,0.2,0.1,1l0,0.8L20.3,29
		l-0.1,0.1h-1c-0.8,0-1.1,0-1.4,0.1c-0.6,0.1-1.1,0.3-1.5,0.5l-0.4,0.2l0,4.7c0,4.5,0,4.7-0.1,4.9c-0.2,0.4-0.4,0.5-1.3,0.5
		C14.1,40,13.8,40,13.7,40L13.7,40z M26,40c-1.9-0.2-3.2-1-4.1-2.5c-1-1.7-1.3-4.6-0.7-6.6c0.3-1.2,1.2-2.4,2.3-3.1
		c0.9-0.6,2-1,3.1-1.1c0.7-0.1,1.7,0.1,2.5,0.4c1.4,0.5,2.4,2,2.8,3.9c0.1,0.7,0.1,0.9-0.4,1.3c-0.1,0.1-1.8,1-3.9,2
		c-4.2,2.1-3.8,1.8-3.3,2.3c0.3,0.3,0.7,0.5,1.3,0.7c0.8,0.2,1.7,0.2,2.7,0.1c0.6-0.1,1-0.3,1.7-0.6c0.5-0.3,0.8-0.3,1-0.2
		c0.2,0.1,0.3,0.3,0.4,0.9c0.1,0.7,0.1,0.8,0,1.1c-0.1,0.2-0.3,0.4-0.8,0.6c-0.8,0.4-1.5,0.6-2.5,0.7C27.5,40,26.4,40,26,40z
		 M23.7,33.8c0.7-0.4,2.7-1.4,5-2.5l0.5-0.3l-0.1-0.3c-0.4-1.2-1.4-1.8-2.7-1.6c-0.8,0.1-1.5,0.5-2,1c-0.7,0.7-1,1.5-1.1,2.7
		c0,0.4,0,1.2,0,1.2C23.4,34,23.5,33.9,23.7,33.8z M37,40c-1.3-0.1-2.7-0.6-3.5-1.1c-0.4-0.3-0.5-0.5-0.3-1.5
		c0.1-0.6,0.2-0.7,0.4-0.8c0.2-0.1,0.4-0.1,1.1,0.2c0.6,0.3,1.1,0.5,1.8,0.6c1.1,0.2,2.3,0.1,3-0.3c0.5-0.3,0.8-0.7,0.8-1.3
		c0-0.3,0-0.4-0.1-0.6c-0.3-0.5-0.7-0.7-2.1-0.9c-1.3-0.1-2.2-0.3-2.9-0.7c-0.4-0.2-0.5-0.3-0.8-0.5c-0.6-0.6-0.8-1.1-0.8-2.1
		c-0.1-1.2,0.2-2.2,0.9-2.9c1-1.1,2.6-1.5,5-1.4c1.2,0.1,2.3,0.3,2.6,0.5c0.2,0.1,0.4,0.4,0.5,0.6c0,0.1,0,0.4,0,0.7
		c0,0.5,0,0.6-0.1,0.7c-0.1,0.1-0.2,0.2-0.3,0.2c-0.3,0.1-0.5,0.1-1.1,0c-1-0.3-1.4-0.3-2.4-0.3c-0.8,0-0.9,0-1.2,0.1
		c-0.8,0.2-1.2,0.6-1.3,1.3c0,0.6,0.2,1,0.6,1.2c0.4,0.2,0.8,0.3,1.7,0.4c2.7,0.3,4,1,4.4,2.5c0.1,0.3,0.1,0.4,0.1,1.2
		c0,1,0,1.3-0.4,1.9c-0.4,0.9-1.1,1.5-2.3,1.9C39.1,40,38.2,40.1,37,40z M49.8,39.9c-0.3,0-0.8-0.1-1.1-0.3c-0.6-0.2-1-0.5-1.5-0.9
		c-0.4-0.5-0.7-0.9-0.8-1.7c-0.1-0.4-0.1-0.5-0.1-4l0-3.6h-0.8c-0.9,0-1.1,0-1.3-0.3c-0.2-0.2-0.2-0.4-0.2-1c0-0.6,0-0.8,0.3-1
		c0.2-0.2,0.4-0.3,1.4-0.3h0.8l0-1.3c0-1.4,0-1.4,0.2-1.6c0.2-0.1,0.3-0.2,1.1-0.4c0.8-0.2,1.1-0.3,1.3-0.1c0.2,0.2,0.2,0.2,0.2,1.9
		V27l1.3,0c1.3,0,1.3,0,1.5,0.1c0.4,0.2,0.5,0.6,0.5,1.3c0,0.5-0.1,0.8-0.4,0.9c-0.2,0.2-0.4,0.2-1.7,0.2h-1.2l0,3
		c0,1.8,0,3.2,0,3.4c0.1,0.8,0.4,1.3,1.2,1.5c0.2,0.1,0.4,0.1,1,0.1c0.8,0,0.9,0,1,0.3c0.1,0.2,0.1,1.2,0,1.5
		c-0.1,0.2-0.3,0.4-0.5,0.5c-0.2,0.1-0.3,0.1-1,0.1C50.3,40,49.9,40,49.8,39.9L49.8,39.9z M58.1,39.9c-0.1,0-0.2,0-0.4-0.1
		c-2.2-0.3-3.5-1.6-4-3.9c-0.3-1.3-0.3-3.3-0.1-4.7c0.4-2.8,1.8-4.2,4.3-4.5c0.5-0.1,1.8-0.1,2.3,0c2.3,0.3,3.6,1.5,4.1,3.8
		c0.2,0.8,0.2,1.3,0.2,2.7c0,1.4,0,1.9-0.2,2.7c-0.5,2.2-1.7,3.5-3.8,3.9C60.2,39.9,58.4,40,58.1,39.9L58.1,39.9z M59.9,37.5
		c0.8-0.2,1.4-0.7,1.6-1.5c0.4-1.1,0.4-3.9,0-5.2c-0.2-0.9-0.8-1.4-1.6-1.6c-0.4-0.1-1.4-0.1-1.8,0c-1,0.3-1.5,1-1.7,2.4
		c0,0.2-0.1,0.8-0.1,1.8c0,1.2,0,1.5,0.1,1.8c0.2,1.3,0.6,1.9,1.5,2.2C58.5,37.6,59.3,37.6,59.9,37.5L59.9,37.5z"/>
</g>
</svg>
