<?xml version="1.0" encoding="utf-8"?>
<!-- Generator: Adobe Illustrator 21.0.0, SVG Export Plug-In . SVG Version: 6.00 Build 0)  -->
<svg version="1.1" id="图层_1" xmlns="http://www.w3.org/2000/svg" xmlns:xlink="http://www.w3.org/1999/xlink" x="0px" y="0px"
	 viewBox="0 0 140 100" style="enable-background:new 0 0 140 100;" xml:space="preserve">
<style type="text/css">
	.st0{fill:#336791;}
	.st1{fill:#FFFFFF;}
</style>
<rect id="Path" width="140" height="100"/>
<g id="Postgresql_elephant" transform="translate(9.000000, 24.000000)">
	<path id="Shape" d="M32.4,5.1l-0.2,0.1C32.2,5.2,32.3,5.2,32.4,5.1z M38.6,49.3c-0.8,1.1-1.7,1.9-2.9,2.4c-0.9,0.4-1.7,0.7-3,0.9
		c-3.5,0.8-6-0.5-7.2-3.1c-0.2-0.4-0.3-0.7-0.4-1.1c0-0.1-0.2-0.6-0.2-0.7c-0.5-1.4-0.7-3.2-0.8-6.2c0-0.3,0-0.6,0-1.2
		c0-0.4,0-0.5,0-0.7c0-0.1,0-0.2,0-0.3c-0.6,0.3-1.3,0.5-2,0.6c-1.5,0.3-2.9,0.1-4.3-0.2c-1.1-0.3-2.1-0.8-2.8-1.6
		c-2.2,1.8-4.7,1.6-6.8-0.4c-1.6-1.5-3-4.1-4.3-7.6c-1.9-5.1-3.6-12.6-3.7-15.5C-0.2,9.9,1,6.3,3.4,3.9c2.1-2.1,4.9-3,8.1-3.1
		c2.3-0.1,4.8,0.3,7.2,0.9C19.4,1.8,20,2,20.5,2.2c1.9-1.1,4.1-1.7,6.7-1.6c1.4,0,2.7,0.1,3.9,0.3c0.5-0.1,1-0.3,1.6-0.4
		C34.3,0.2,36,0,37.7,0c2.2,0,4.4,0.4,6.4,1.2c2.4,1,4.5,2.5,6.3,4.7c1.7,2.2,1.6,6.4,0.3,11.6c-1.1,4.3-3,8.8-5.5,12.9
		c0.7,0,1.6-0.1,2.7-0.3c0.5-0.1,0.9-0.1,1.3-0.1c0.6,0,1.2,0.2,1.7,0.6c0.7,0.5,1.1,1.4,1,2.3c-0.1,0.5-0.2,1-0.5,1.4
		c-0.7,1-2.1,2.1-3.7,2.8c-1.6,0.7-4,1.1-6,1l-0.5,0c0,0.2-0.1,0.5-0.1,0.7C40.9,43.8,40.2,47.2,38.6,49.3z M36.6,38.3
		c0,0,0.1-1,0.1-1.2c0.1-0.6,0.2-1,0.3-1.4c0.2-0.7,0.6-1.2,1.1-1.7c0.6-0.4,1.3-0.6,2-0.6c0.1,0,0.2,0,0.4,0
		c-0.5-0.5-0.8-1-0.9-1.5L39.5,31l0.5-0.8c2.9-4.2,5.1-9.2,6.3-13.8c0.5-2.1,0.8-4,0.9-5.5c0-0.7,0-1.3-0.1-1.7
		c0-0.2-0.1-0.3-0.1-0.5c0-0.1-0.1-0.1-0.1-0.1c-2.3-2.9-5.5-4.2-9.2-4.2c-1.4,0-2.7,0.1-4,0.4c-0.4,0.1-0.8,0.2-1.2,0.3
		c-0.1,0-0.2,0.1-0.3,0.1L32,5.3l-0.8,0.2l-0.4-0.1C29.7,5.2,28.5,5,27.2,5c-2.1,0-3.7,0.5-5,1.4l-1,0.8L20,6.7c0,0-0.1,0-0.1-0.1
		c-0.1-0.1-0.3-0.1-0.5-0.2c-0.5-0.2-1.1-0.4-1.8-0.6c-2-0.5-4.1-0.8-5.9-0.8C9.4,5.2,7.7,5.8,6.6,7c-1.4,1.4-2.2,3.8-2,7.5
		c0,0.9,0.4,3.1,1,5.6c0.7,3,1.6,6.1,2.5,8.6c1.1,2.9,2.2,5,3.2,5.9c0.2,0.2,0.4,0.3,0.5,0.4c0.3-0.1,0.5-0.3,0.7-0.6
		c1-1.2,2.1-2.5,3.2-3.6c0.4-0.4,0.7-0.8,1-1.1c0.1-0.1,0.2-0.2,0.3-0.3c0.1-0.1,0.1-0.1,0.1-0.1l1.3-1.4l1.6,1
		c0.5,0.4,1.1,0.6,1.7,0.6l3.7-3.1l-0.5,5.5c0,0.1,0,0.3,0,0.5l5.8-7.9L28,35.3c0,0.1,0,0.1,0.1,0.2c0.1,0.4,0.2,0.8,0.3,1.3
		c0.1,0.7,0.1,1.5,0.2,2.8c0,0.2,0,0.3,0,0.7c0,0.5,0,0.8,0,1.1c0.1,2.6,0.3,4.1,0.6,4.9c0.1,0.2,0.3,0.8,0.3,0.8
		c0.1,0.3,0.2,0.5,0.2,0.6c0.2,0.4,0.3,0.6,0.5,0.7c0.3,0.2,0.8,0.2,1.7,0c1.8-0.4,2.6-0.7,3.2-1.6c0.9-1.3,1.5-3.9,1.6-8.3l2.2,0.1
		L36.6,38.3z"/>
	<path id="Shape_1_" class="st0" d="M48.3,32.2c-6,1.2-6.5-0.8-6.5-0.8c6.4-9.4,9-21.3,6.7-24.2c-6.3-7.9-17.1-4.2-17.3-4.1l-0.1,0
		c-1.2-0.2-2.5-0.4-4-0.4c-2.7,0-4.8,0.7-6.4,1.9c0,0-19.4-7.9-18.5,9.9c0.2,3.8,5.5,28.7,11.8,21.2c2.3-2.8,4.5-5.1,4.5-5.1
		c1.1,0.7,2.4,1.1,3.8,1l0.1-0.1c0,0.3,0,0.7,0,1.1c-1.6,1.8-1.2,2.1-4.4,2.8c-3.3,0.7-1.4,1.9-0.1,2.2c1.5,0.4,5.1,0.9,7.5-2.4
		l-0.1,0.4c0.6,0.5,1.1,3.3,1,5.8C26.5,44,26.5,45.7,27,47c0.5,1.4,1,4.4,5.3,3.5c3.6-0.8,5.4-2.7,5.7-6c0.2-2.3,0.6-2,0.6-4.1
		l0.3-1c0.4-3.2,0.1-4.2,2.3-3.7l0.5,0c1.6,0.1,3.7-0.3,5-0.8C49.4,33.7,51,31.7,48.3,32.2L48.3,32.2z"/>
	<path id="Shape_2_" class="st1" d="M25.2,34c-0.2,6.4,0.1,12,0.7,13.5c0.5,1.3,1,2.1,1.9,2.8c1.2,1,2.9,1.4,5.1,0.9
		c3.8-0.8,5.4-2.4,6-6.1c0.4-2.2,1.2-8.8,1.3-10.4c0-0.4-0.3-0.8-0.7-0.8c-0.4,0-0.8,0.3-0.8,0.7c-0.1,1.6-0.9,8.2-1.3,10.3
		c-0.5,3-1.7,4.2-4.9,4.9c-1.7,0.4-2.9,0.1-3.8-0.6c-0.6-0.5-1-1.2-1.5-2.3c-0.5-1.2-0.7-6.9-0.6-13c0-0.4-0.3-0.7-0.7-0.8
		C25.5,33.3,25.2,33.6,25.2,34z"/>
	<path id="Shape_3_" class="st1" d="M21.1,3.9c0,0-0.1,0-0.2-0.1c-0.2-0.1-0.4-0.1-0.6-0.2c-0.6-0.2-1.3-0.4-2-0.6
		c-2.3-0.6-4.6-1-6.8-0.9c-2.9,0.1-5.4,1-7.1,2.7c-2.1,2.1-3.1,5.3-2.8,9.8c0.1,1.1,0.5,3.5,1.1,6.1c0.7,3.2,1.6,6.3,2.6,9
		c1.2,3.3,2.5,5.7,3.9,7c1.8,1.7,3.8,1.7,5.6-0.5c1-1.2,2-2.4,3-3.5c0.4-0.4,0.7-0.7,1-1c0.1-0.1,0.2-0.2,0.3-0.3
		c0,0,0.1-0.1,0.1-0.1c0.3-0.3,0.3-0.8,0-1c-0.3-0.3-0.8-0.3-1.1,0c0,0-0.1,0.1-0.1,0.1c-0.1,0.1-0.2,0.2-0.3,0.3
		c-0.3,0.3-0.6,0.7-1,1.1c-1,1.1-2.1,2.3-3.1,3.5c-1.2,1.4-2.2,1.5-3.4,0.3c-1.2-1.1-2.4-3.4-3.5-6.5c-1-2.6-1.8-5.7-2.5-8.8
		c-0.6-2.5-1-4.9-1-5.8c-0.2-4.1,0.7-6.9,2.4-8.6C6.9,4.4,9,3.7,11.6,3.6c2-0.1,4.2,0.2,6.4,0.8c0.7,0.2,1.3,0.4,1.9,0.6
		C20,5,20.2,5.1,20.3,5.2c0.1,0,0.1,0,0.1,0.1c0.4,0.2,0.9,0,1-0.4C21.6,4.4,21.5,4,21.1,3.9z"/>
	<path id="Shape_4_" class="st1" d="M31.5,3.8C31.5,3.8,31.4,3.8,31.5,3.8c-0.1,0-0.1,0-0.2,0c-0.1,0-0.1,0-0.2,0
		c-0.1,0-0.1,0-0.2-0.1c-0.1-0.1-0.1-0.1-0.3-0.2c-0.1-0.2-0.1-0.2-0.1-0.5c0-0.2,0-0.2,0.1-0.3c0.1-0.1,0.1-0.1,0.2-0.2
		c0.1-0.1,0.1-0.1,0.2-0.1c0.1,0,0.1,0,0.1,0c0.1,0,0.2-0.1,0.3-0.1c0.4-0.1,0.8-0.2,1.3-0.3c1.4-0.3,3-0.5,4.6-0.6
		c2.1,0,4.2,0.3,6.1,1c2.3,0.9,4.3,2.3,5.9,4.3c2.7,3.5-0.5,15.9-6.7,25c-0.2,0.3-0.7,0.4-1,0.2c-0.3-0.2-0.4-0.7-0.2-1
		c3-4.3,5.3-9.5,6.5-14.3c1.1-4.4,1.2-7.8,0.3-9c-2.7-3.4-6.4-4.8-10.7-4.8c-1.5,0-3,0.2-4.3,0.5c-0.5,0.1-0.8,0.2-1.2,0.3
		c-0.1,0-0.1,0-0.2,0.1C31.6,3.8,31.5,3.8,31.5,3.8z M31.5,3.8C31.6,3.8,31.6,3.8,31.5,3.8c0.1,0,0.1,0,0.2-0.1
		c0.1-0.1,0.1-0.1,0.2-0.2C32,3.4,32,3.4,32,3.2c0-0.2,0-0.2-0.1-0.5c-0.2-0.2-0.2-0.2-0.3-0.2c-0.1,0-0.1,0-0.2-0.1
		c-0.1,0-0.1,0-0.2,0c-0.1,0-0.1,0-0.1,0c0,0,0,0,0,0c0.4-0.1,0.8,0.1,0.9,0.5C32.1,3.2,31.9,3.6,31.5,3.8
		C31.6,3.8,31.6,3.8,31.5,3.8z"/>
	<path id="Shape_5_" class="st1" d="M42.7,31.4c0.3,0.2,0.8,0.4,1.5,0.4c1,0.1,2.3,0,3.9-0.4c0.8-0.2,1.4-0.1,1.8,0.2
		c0.3,0.2,0.4,0.6,0.4,0.9c0,0.3-0.1,0.5-0.3,0.7c-0.5,0.8-1.7,1.7-3.1,2.3c-1.2,0.5-3,0.9-4.7,0.9c-0.9,0-1.6-0.1-2.2-0.2
		c-0.8-0.2-1.3-0.7-1.4-1.4c-0.1-1.8,0.5-2.9,1.6-3.4c0.1-0.1,0.3-0.1,0.5-0.2c0,0,0.1,0,0.1,0c-0.1-0.1-0.1-0.2-0.2-0.3
		c0,0-0.3-0.4-0.4-0.6c-0.2-0.2-0.4-0.5-0.5-0.7c-0.3-0.5-0.6-1-0.8-1.6c-0.1-0.2-1.4-2.6-1.9-3.6c-0.5-1.1-1-2.1-1.3-3
		c-0.9-2.4-1-4.3-0.2-5.7c0.9-1.6,2.8-2.2,5.8-1.9c-0.1-0.2-0.2-0.5-0.3-0.7c-0.5-1.3-1.3-2.6-2.3-3.9C35.8,5.7,32,3.5,27.1,3.5
		c-2.6,0-4.6,0.7-6.2,2c-1.4,1.1-2.4,2.7-3.1,4.6c-0.5,1.4-0.9,2.9-1.1,4.5c-0.1,0.6-0.1,1.1-0.1,1.6c0,0.3,0,0.6,0,0.8
		c0,0.4-0.3,0.8-0.7,0.8c-0.4,0-0.8-0.3-0.8-0.7c0-0.3,0-0.5,0-0.9c0-0.5,0.1-1.1,0.1-1.7c0.2-1.6,0.6-3.3,1.1-4.8
		c0.8-2.1,2-3.9,3.6-5.3c1.9-1.6,4.3-2.4,7.2-2.3c5.4,0.1,9.6,2.5,12.6,6.3c1.1,1.4,1.9,2.9,2.5,4.2c0.2,0.6,0.4,1.1,0.5,1.5
		c0,0.2,0.1,0.4,0.1,0.5c0,0.1,0,0.2,0,0.3c-0.1,0.3-0.2,0.5-0.6,0.6l-0.3,0c-3-0.5-4.7,0-5.3,1c-0.5,0.9-0.4,2.5,0.3,4.5
		c0.3,0.9,0.7,1.8,1.3,2.9c0.5,0.9,1.9,3.4,2,3.7c0.2,0.5,0.4,0.9,0.7,1.3c0.1,0.2,0.3,0.4,0.5,0.6c0.1,0.1,0.4,0.5,0.4,0.6
		c0.4,0.5,0.6,0.8,0.7,1.2C42.6,31.2,42.6,31.3,42.7,31.4z M41.6,32.5c0,0-0.3,0.1-0.3,0.1c-0.1,0-0.2,0.1-0.3,0.1
		c-0.5,0.2-0.8,0.7-0.8,1.9c0.1,0,0.2,0.1,0.3,0.1c0.4,0.1,1,0.2,1.7,0.2c1.5,0,3.1-0.3,4.1-0.8c0.9-0.4,1.7-0.9,2.1-1.4
		c0,0,0,0,0,0c-3.3,0.7-5.4,0.5-6.6-0.3c0,0-0.1-0.1-0.1-0.1C41.7,32.5,41.6,32.5,41.6,32.5z M42.5,31.2
		C42.5,31.2,42.6,31.2,42.5,31.2C42.6,31.2,42.6,31.2,42.5,31.2C42.5,31.2,42.5,31.2,42.5,31.2z"/>
	<path id="Shape_6_" class="st1" d="M22.1,32.1c0.5-0.6,1-0.9,1.6-0.9c0.4,0,0.7,0,1.2,0.2c1.5,0.6,2.3,2.8,1.3,4.2
		c-1.2,1.7-2.8,2.6-4.5,2.9c-1.3,0.2-2.5,0.1-3.7-0.2c-0.9-0.2-1.8-0.7-2.1-1.3c-0.3-0.5-0.2-1.2,0.4-1.6c0.4-0.3,1-0.6,1.9-0.7
		c0.6-0.1,1.1-0.2,1.4-0.3c0.7-0.2,1-0.4,1.4-0.8C20.9,33.5,21.7,32.5,22.1,32.1z M17.5,36.5c0.2,0.1,0.5,0.2,0.8,0.3
		c1,0.3,2.1,0.3,3.1,0.2c1.4-0.2,2.6-1,3.6-2.3c0.4-0.5,0-1.7-0.7-1.9c-0.3-0.1-0.4-0.1-0.5-0.1c-0.2,0-0.4,0.1-0.6,0.4
		c-0.3,0.4-1.1,1.3-1.2,1.5c-0.5,0.6-1.1,0.9-2.1,1.2c-0.4,0.1-0.9,0.2-1.6,0.4c-0.5,0.1-0.8,0.2-1.1,0.3
		C17.4,36.5,17.4,36.5,17.5,36.5z"/>
	<path id="Shape_7_" class="st1" d="M15,23.8c0.3-1.9,0.3-3.6,0.2-5.6c0-0.2,0-0.7,0-0.7c0-0.2,0-0.4,0-0.5c0-0.6,0.6-1.1,1.6-1.6
		c0.9-0.5,1.9-0.9,3-1.1c1.3-0.3,2.4-0.3,3.4,0.1c1.2,0.5,2,1.4,2.3,2.9c0.6,2.5,0.7,4.6,0.5,6.4c-0.2,1.4-0.5,2.5-1.1,3.8
		c-0.1,0.2-0.4,0.9-0.4,0.9c-0.1,0.3-0.2,0.5-0.3,0.8c-0.8,2.2-1,2.7-0.9,3.4c0.1,0.4-0.2,0.8-0.6,0.8s-0.8-0.2-0.9-0.6
		c0-0.1,0-0.2,0-0.3C17.6,32.3,14.3,28.3,15,23.8z M22,30.6c0.2-0.5,0.2-0.6,0.7-2.1c0.1-0.3,0.2-0.5,0.4-0.8c0,0.1,0.3-0.6,0.4-0.8
		c0.5-1.2,0.8-2.1,0.9-3.4c0.2-1.6,0-3.6-0.5-6c-0.4-1.8-1.8-2.3-3.9-1.9c-0.9,0.2-1.8,0.6-2.6,1c-0.3,0.2-0.6,0.4-0.8,0.5
		c0,0,0,0-0.1,0c0,0.1,0,0.1,0,0.2c0,0,0,0.5,0,0.7c0.1,2.1,0.1,3.9-0.2,5.9c-0.5,3.7,2.2,6.9,5.5,6.9C22,30.8,22,30.7,22,30.6z"/>
	<path id="Shape_8_" class="st1" d="M22,16.3c0.8,0.1,1.4,0.4,1.3,0.9c-0.1,0.5-0.8,1-1.5,0.9c-0.7-0.1-1.4-0.8-1.3-1.3l0-0.2h0.1
		C20.8,16.3,21.3,16.2,22,16.3z"/>
	<path id="Shape_9_" class="st1" d="M40,16.3c0.1,0.4-0.6,1-1.2,1.1c-0.6,0.1-1.3-0.4-1.3-0.8c0-0.3,0.5-0.6,1.2-0.7
		C39.3,15.8,39.9,16,40,16.3z"/>
	<path id="Shape_10_" class="st1" d="M41.4,14.7c0,0.7,0,1.3-0.1,2.2c0,0.1,0,0.2,0,0.3c0,0,0,0.1,0,0.2c0,0.1,0,0.1,0,0.2
		c-0.2,1-0.2,1.6-0.3,2.4c0,0.8,0,1.4,0.2,2.8c0.2,1.6,0.2,2.4,0.2,3.3c-0.1,1.2-0.4,2.2-1.1,3.2c-0.2,0.3-0.1,0.8,0.2,1
		c0.3,0.2,0.8,0.1,1-0.2c0.8-1.2,1.2-2.5,1.4-3.9c0.1-1,0-1.9-0.2-3.6c-0.2-1.4-0.2-1.9-0.2-2.6c0-0.7,0.1-1.2,0.2-2.2
		c0,0,0-0.1,0-0.2c0-0.1,0-0.1,0-0.2c0-0.1,0-0.2,0-0.3c0.1-1,0.2-1.7,0.1-2.5c0-0.4-0.4-0.7-0.8-0.7C41.7,14,41.3,14.3,41.4,14.7z"
		/>
</g>
<path id="Postgre-SQL" class="st1" d="M65,46.5h3.2c1.6,0,2.7,1.1,2.7,2.7c0,1.6-1.1,2.7-2.7,2.7H66v3H65V46.5z M66,47.5V51h1.9
	c1.2,0,1.9-0.6,1.9-1.8c0-1.2-0.7-1.8-1.9-1.8H66z M74.3,55.1c-1.8,0-2.9-1.2-2.9-3.3c0-2,1.1-3.3,2.9-3.3s2.9,1.2,2.9,3.3
	C77.2,53.9,76.1,55.1,74.3,55.1z M74.3,54.2c1.2,0,1.9-0.9,1.9-2.4c0-1.5-0.7-2.4-1.9-2.4s-1.9,0.9-1.9,2.4
	C72.4,53.3,73.1,54.2,74.3,54.2z M78,50.4c0,0.9,0.5,1.4,1.7,1.7l1.1,0.3c0.7,0.2,1,0.5,1,0.9c0,0.6-0.6,1-1.5,1
	c-0.8,0-1.3-0.3-1.5-0.9h-1c0.1,1,1.1,1.7,2.5,1.7c1.4,0,2.5-0.8,2.5-1.9c0-0.9-0.6-1.4-1.8-1.7l-1-0.2c-0.7-0.2-1.1-0.5-1.1-0.9
	c0-0.6,0.6-0.9,1.3-0.9c0.8,0,1.3,0.3,1.4,0.8h1c-0.1-1-1.1-1.7-2.4-1.7C79.1,48.6,78,49.4,78,50.4z M84.2,47v1.6h-1v0.8h1v3.8
	c0,1.2,0.5,1.7,1.8,1.7c0.2,0,0.4,0,0.6-0.1v-0.8c-0.2,0-0.3,0-0.5,0c-0.7,0-0.9-0.3-0.9-1.1v-3.6h1.4v-0.8h-1.4V47H84.2z M90,54
	c1.2,0,1.9-0.9,1.9-2.3s-0.7-2.3-1.9-2.3c-1.2,0-1.8,0.9-1.8,2.3S88.9,54,90,54z M90.1,57.4c-1.5,0-2.5-0.7-2.6-1.7h1.1
	c0.1,0.5,0.7,0.8,1.6,0.8c1.1,0,1.8-0.6,1.8-1.5v-1.2h-0.1c-0.4,0.7-1.1,1.1-2,1.1c-1.6,0-2.6-1.3-2.6-3.2s1-3.2,2.6-3.2
	c0.9,0,1.7,0.4,2,1.1h0.1v-1h1v6.4C92.9,56.5,91.8,57.4,90.1,57.4z M94.2,55h1v-3.9c0-0.9,0.7-1.5,1.7-1.5c0.2,0,0.6,0,0.6,0.1v-1
	c-0.1,0-0.3,0-0.5,0c-0.8,0-1.6,0.4-1.8,1h-0.1v-0.9h-1V55z M100.5,49.5c-1,0-1.7,0.7-1.8,1.9h3.5C102.2,50.2,101.5,49.5,100.5,49.5
	z M102.2,53.4h1c-0.3,1.1-1.3,1.7-2.7,1.7c-1.8,0-2.8-1.3-2.8-3.3c0-2,1.1-3.3,2.8-3.3c1.7,0,2.7,1.2,2.7,3.2v0.4h-4.5v0
	c0.1,1.2,0.8,2,1.8,2C101.4,54.2,101.9,53.9,102.2,53.4z M106.8,52.8c0.1,1.5,1.3,2.4,3.1,2.4c1.9,0,3.2-1,3.2-2.5
	c0-1.2-0.7-1.9-2.5-2.4l-0.9-0.2c-1.2-0.3-1.6-0.7-1.6-1.3c0-0.9,0.7-1.4,1.9-1.4c1.1,0,1.8,0.5,1.9,1.4h1.1
	c-0.1-1.4-1.3-2.3-2.9-2.3c-1.8,0-3,1-3,2.4c0,1.2,0.7,1.9,2.2,2.3l1.1,0.3c1.2,0.3,1.7,0.8,1.7,1.5c0,0.8-0.8,1.5-2,1.5
	c-1.2,0-2-0.6-2.2-1.4H106.8z M117.8,55.2c-2.4,0-3.9-1.7-3.9-4.4c0-2.7,1.5-4.4,3.9-4.4c2.4,0,3.9,1.7,3.9,4.4c0,1.7-0.5,3-1.5,3.7
	l1.1,1.5H120l-0.7-1C118.8,55.1,118.3,55.2,117.8,55.2z M117.8,54.2c0.3,0,0.6,0,0.9-0.1l-1.1-1.5h1.2l0.8,1c0.7-0.5,1-1.5,1-2.8
	c0-2.1-1.1-3.5-2.8-3.5c-1.7,0-2.8,1.3-2.8,3.5C115,52.9,116,54.2,117.8,54.2z M128,54.1h-4.1v-7.5h-1.1V55h5.1V54.1z"/>
</svg>
