<?xml version="1.0" encoding="utf-8"?>
<!-- Generator: Adobe Illustrator 21.0.0, SVG Export Plug-In . SVG Version: 6.00 Build 0)  -->
<svg version="1.1" id="图层_1" xmlns="http://www.w3.org/2000/svg" xmlns:xlink="http://www.w3.org/1999/xlink" x="0px" y="0px"
	 viewBox="0 0 140 100" style="enable-background:new 0 0 140 100;" xml:space="preserve">
<style type="text/css">
	.st0{fill:#11355D;}
	.st1{fill:#FFFFFF;}
</style>
<rect id="Path_4_" class="st0" width="140" height="100"/>
<path id="Combined-Shape" class="st1" d="M110.9,54.1c-1.6,4-5.5,6.8-10,6.8c-6,0-10.8-4.9-10.8-10.8s4.8-10.8,10.8-10.8
	c3.1,0,6,1.3,7.9,3.5l-2,3.3c-1.3-1.9-3.5-3.2-6.1-3.2c-4.1,0-7.3,3.3-7.3,7.4s3.3,7.4,7.3,7.4c3.2,0,5.9-2,6.9-4.9l3.5-5.9
	c0,0,0,0.1,0,0.1l5.2-8.9L130,60.9h-4.2l-9.4-15.6L110.9,54.1z M65.4,39.4v-0.2h18.3v3.9h-7.5v17.8h-3.6V43.1h-4.9
	C67.4,41.6,66.6,40.3,65.4,39.4z M10,39.2h4.4l8.6,15l8.3-15h15.5v3.6h-13L23,62L10,39.2z M31.6,48.4h15.2v3.5H35.2v5.6h11.6v3.6
	H31.6V48.4z M48.5,39.2l13.6,0c1.8,0.7,3.2,2,4.1,3.9c1.4,3.3-0.3,6.9-3.6,8.3l5.3,9.5H64l-5-9.5h-6.9v9.5h-3.6V39.2z M52.1,42.8
	v5.3h8.2c1.5,0,2.6-1.2,2.6-2.6c0-1.5-1.2-2.6-2.6-2.6H52.1z M85.1,39.2h3.6v21.7h-3.6V39.2z"/>
</svg>
