<?xml version="1.0" encoding="utf-8"?>
<!-- Generator: Adobe Illustrator 21.0.0, SVG Export Plug-In . SVG Version: 6.00 Build 0)  -->
<svg version="1.1" id="图层_1" xmlns="http://www.w3.org/2000/svg" xmlns:xlink="http://www.w3.org/1999/xlink" x="0px" y="0px"
	 viewBox="0 0 140 100" style="enable-background:new 0 0 140 100;" xml:space="preserve">
<style type="text/css">
	.st0{fill:#3E69CF;}
	.st1{fill:#FFFFFF;}
</style>
<rect id="Path_2_" class="st0" width="140" height="100"/>
<g id="database-175112_1_" transform="translate(34.000000, 21.000000)">
	<path id="Path-143" class="st1" d="M63.5,22.1c0.7,0,2.8-0.3,5-1.7c1.6-1.1,1.2-2.7-0.5-4.8c5.5,3.8,2.4,7.2-1.4,8.8
		c-0.5,0.1-0.9,0.3-1,0.3c-2.8,0.9-5.4,0.7-7.8-0.3c-0.5-0.2-0.9-0.4-1.2-0.6c-0.2-0.1-0.3-0.2-0.4-0.3c0,0-0.1,0-0.1-0.1
		c-3.5-2.5-4-6.3-4-6.3s0.6,5-2.5,8.1c2.5,6.2,3.3,14.3,1.9,14.3h-6.8c0,0,1.7-9.1-1.3-9.3c-0.2,0-0.5,0.1-0.6,0.3
		c-0.1,0.1-0.4,0.4-1,0.7c-1.1,0.5-2.6,0.9-4.7,0.9c-0.3,0-1.2,0.1-4.8-0.4c-4.1-1.1-7.1-3.3-7.1-3.3s-0.6,2.3,0.1,4.9
		c0.9,3.2,1.8,6.3,0.5,6.3c-1.8,0-6.2,0-6.2,0s0.6-3.7,0.2-5.1c0-0.3-0.8-1.3-1-1.5c-1.7-1.9-2.7-3.8-3.2-5.7
		c-0.3-0.9-0.3-1.8-1-3.3c0,0,0,0-0.1,0c0,0,0,0,0,0c-1.5-3.2,0-8.7,0-8.7s-0.7,0-1.2,1.2s-1,6.6-1,6.6s0.7,0.3,0.2,2.1
		c-0.3,1.3-1.3,1.8-1.3,1.8s0.7-10.2,1.5-11.6c1.9-3.1,7.5-8.7,14.4-8.7c1.9,0,2.5-2.4,6.9-3.6s7.6,1,9.3,0.5
		c3.4-0.9,2.4-3.7,6.8-3.3s5.1,4.5,5.1,4.5s2.7,1.8,4.9,6.3c1.9,3.8,2.7,8.4,3,10.3c-3.7,0.4-6.4-4-6.4-4s2,5.2,6.3,5
		C63.2,22.1,63.4,22.1,63.5,22.1z M17.2,32.8c0.7,2-0.1,6.7-1.3,6.7H9c0-0.7,0.6-3.1,3.7-7.5c0-1.8,0.6-5.2,1.2-7
		c0,0.7,0.2,1.5,0.4,2.5C14.9,29.3,15.8,31.1,17.2,32.8z M37.8,33.3c1.9-0.1,3.5-0.4,4.6-1c0.6-0.3,1-0.6,1.2-0.8
		c0.2,0.6,0.3,1.3,0.4,1.8c0.3,3.1-2.3,5.4-3.1,5c-2.2-1-5-3.1-5-3.1S36.9,34.2,37.8,33.3z M63.6,26.3c0.3,1.9,2,5.8,7.2,6.3
		c-2.4,1.7-0.2,2.7-1.2,3.7c-10.4-4.5-11.7-8.7-12-10.9C59.5,26.3,61.5,26.6,63.6,26.3z"/>
	<path id="Mammut" class="st1" d="M0,45v12.9h2.6v-9h0l3.1,9H8l3.1-9.1h0v9.1h2.6V45h-4L7,53.8h0L4,45H0z M15.9,51.4
		c0-0.6,0.2-1.1,0.5-1.5c0.3-0.4,0.6-0.7,1-1c0.4-0.2,0.9-0.4,1.4-0.5c0.5-0.1,1-0.2,1.5-0.2c0.5,0,0.9,0,1.4,0.1
		c0.5,0.1,0.9,0.2,1.3,0.4s0.7,0.5,1,0.8c0.3,0.3,0.4,0.8,0.4,1.4v4.8c0,0.4,0,0.8,0.1,1.2s0.1,0.7,0.3,0.9h-2.6
		c0-0.1-0.1-0.3-0.1-0.4c0-0.2-0.1-0.3-0.1-0.5c-0.4,0.4-0.9,0.7-1.4,0.9c-0.6,0.2-1.1,0.3-1.7,0.3c-0.4,0-0.9-0.1-1.2-0.2
		c-0.4-0.1-0.7-0.3-1-0.5c-0.3-0.2-0.5-0.5-0.7-0.9c-0.2-0.3-0.2-0.8-0.2-1.2c0-0.5,0.1-1,0.3-1.3c0.2-0.3,0.4-0.6,0.7-0.8
		c0.3-0.2,0.6-0.4,1-0.5s0.8-0.2,1.1-0.2c0.4-0.1,0.8-0.1,1.1-0.1c0.4,0,0.7-0.1,1-0.2c0.3-0.1,0.5-0.2,0.7-0.3s0.2-0.3,0.2-0.6
		c0-0.3,0-0.5-0.1-0.7c-0.1-0.2-0.2-0.3-0.4-0.4c-0.2-0.1-0.3-0.2-0.5-0.2c-0.2,0-0.4,0-0.6,0c-0.5,0-0.9,0.1-1.2,0.3
		c-0.3,0.2-0.5,0.6-0.5,1.1H15.9z M21.9,53.3c-0.1,0.1-0.2,0.2-0.4,0.2s-0.3,0.1-0.5,0.1s-0.4,0.1-0.6,0.1c-0.2,0-0.4,0.1-0.6,0.1
		c-0.2,0-0.4,0.1-0.6,0.1c-0.2,0.1-0.3,0.1-0.5,0.2c-0.1,0.1-0.2,0.2-0.3,0.4c-0.1,0.2-0.1,0.4-0.1,0.6c0,0.2,0,0.4,0.1,0.6
		c0.1,0.2,0.2,0.3,0.3,0.4s0.3,0.2,0.5,0.2s0.4,0.1,0.6,0.1c0.5,0,0.9-0.1,1.2-0.3c0.3-0.2,0.5-0.4,0.6-0.6c0.1-0.2,0.2-0.5,0.2-0.7
		c0-0.2,0-0.4,0-0.6V53.3z M26.5,48.5v9.3H29v-5.4c0-0.5,0.1-0.8,0.2-1.1c0.1-0.3,0.3-0.5,0.5-0.6c0.2-0.1,0.4-0.3,0.6-0.3
		c0.2-0.1,0.4-0.1,0.5-0.1c0.4,0,0.7,0.1,0.9,0.2c0.2,0.1,0.4,0.3,0.4,0.5c0.1,0.2,0.1,0.5,0.2,0.7c0,0.3,0,0.5,0,0.8v5.2h2.6v-5.2
		c0-0.3,0-0.6,0.1-0.9s0.1-0.5,0.3-0.8c0.1-0.2,0.3-0.4,0.5-0.5c0.2-0.1,0.5-0.2,0.9-0.2c0.4,0,0.6,0.1,0.9,0.2
		c0.2,0.1,0.4,0.3,0.5,0.5c0.1,0.2,0.2,0.4,0.2,0.7c0,0.3,0,0.6,0,0.9v5.3h2.6v-6.2c0-0.6-0.1-1.1-0.3-1.5c-0.2-0.4-0.4-0.8-0.7-1
		c-0.3-0.3-0.7-0.5-1.1-0.6c-0.4-0.1-0.9-0.2-1.4-0.2c-0.6,0-1.2,0.2-1.7,0.5c-0.5,0.3-0.8,0.7-1.1,1.1c-0.3-0.6-0.6-1-1.1-1.2
		c-0.5-0.2-1-0.3-1.6-0.3c-0.6,0-1.2,0.1-1.6,0.4c-0.5,0.3-0.9,0.6-1.2,1.1h0v-1.3H26.5z M42.8,48.5v9.3h2.6v-5.4
		c0-0.5,0.1-0.8,0.2-1.1s0.3-0.5,0.5-0.6c0.2-0.1,0.4-0.3,0.6-0.3s0.4-0.1,0.5-0.1c0.4,0,0.7,0.1,0.9,0.2c0.2,0.1,0.4,0.3,0.5,0.5
		c0.1,0.2,0.1,0.5,0.2,0.7s0,0.5,0,0.8v5.2h2.6v-5.2c0-0.3,0-0.6,0.1-0.9c0-0.3,0.1-0.5,0.3-0.8s0.3-0.4,0.5-0.5
		c0.2-0.1,0.5-0.2,0.9-0.2c0.4,0,0.6,0.1,0.9,0.2c0.2,0.1,0.4,0.3,0.5,0.5c0.1,0.2,0.2,0.4,0.2,0.7c0,0.3,0,0.6,0,0.9v5.3H57v-6.2
		c0-0.6-0.1-1.1-0.3-1.5s-0.4-0.8-0.7-1c-0.3-0.3-0.7-0.5-1.1-0.6c-0.4-0.1-0.9-0.2-1.4-0.2c-0.6,0-1.2,0.2-1.7,0.5
		c-0.5,0.3-0.8,0.7-1.1,1.1c-0.3-0.6-0.6-1-1.1-1.2c-0.5-0.2-1-0.3-1.6-0.3c-0.6,0-1.2,0.1-1.6,0.4c-0.5,0.3-0.9,0.6-1.2,1.1h0v-1.3
		H42.8z M67.7,57.9v-9.3h-2.6v4.9c0,0.9-0.2,1.6-0.5,2s-0.8,0.6-1.5,0.6c-0.6,0-1-0.2-1.3-0.6c-0.2-0.4-0.4-1-0.4-1.7v-5.3H59v5.7
		c0,0.6,0.1,1.1,0.2,1.6c0.1,0.5,0.3,0.9,0.5,1.2s0.6,0.6,1,0.8c0.4,0.2,1,0.3,1.7,0.3c0.5,0,1.1-0.1,1.6-0.4
		c0.5-0.2,0.9-0.6,1.3-1.2h0.1v1.3H67.7z M72.9,48.5v-2.8h-2.6v2.8h-1.5v1.7h1.5v5.5c0,0.5,0.1,0.8,0.2,1.1s0.4,0.5,0.6,0.7
		c0.3,0.2,0.6,0.3,0.9,0.3c0.4,0.1,0.7,0.1,1.1,0.1c0.3,0,0.5,0,0.8,0s0.5,0,0.7-0.1v-2c-0.1,0-0.2,0-0.4,0.1c-0.1,0-0.3,0-0.4,0
		c-0.4,0-0.7-0.1-0.9-0.2c-0.1-0.1-0.2-0.4-0.2-0.9v-4.6h1.9v-1.7H72.9z"/>
</g>
</svg>
