<?xml version="1.0" encoding="utf-8"?>
<!-- Generator: Adobe Illustrator 21.0.0, SVG Export Plug-In . SVG Version: 6.00 Build 0)  -->
<svg version="1.1" id="图层_1" xmlns="http://www.w3.org/2000/svg" xmlns:xlink="http://www.w3.org/1999/xlink" x="0px" y="0px"
	 viewBox="0 0 140 100" style="enable-background:new 0 0 140 100;" xml:space="preserve">
<style type="text/css">
	.st0{fill:#18B92C;}
	.st1{fill:#FFFFFF;}
</style>
<rect id="Path_3_" class="st0" width="140" height="100"/>
<g id="database-175112_2_" transform="translate(13.000000, 12.000000)">
	<path id="_x7B__x7D_" class="st1" d="M20.1,0h6.8v7.1h-5.2c-3.3,0-4.9,1.8-4.9,5.7v14.2c0,5.5-2.6,9.2-7.6,11c5,2.1,7.6,5.7,7.6,11
		v13.3c0,3.7,1.6,5.6,4.9,5.6h5.2v7.1h-6.8c-3.9,0-6.9-1.3-9-3.8c-1.9-2.3-2.9-5.5-2.9-9.3V49.5c0-2.6-0.5-4.4-1.6-5.5
		c-1.2-1.4-3.4-2.1-6.6-2.3v-7.2c3.2-0.2,5.4-1,6.6-2.3c1.1-1.2,1.6-3.1,1.6-5.5V13.2c0-4,1-7.1,2.9-9.4C13.2,1.2,16.2,0,20.1,0z
		 M88,0h6.8c3.9,0,6.9,1.2,9,3.8c1.9,2.3,2.9,5.5,2.9,9.4v13.5c0,2.5,0.5,4.4,1.7,5.6c1.1,1.2,3.3,2,6.5,2.2v7.2
		c-3.2,0.2-5.4,0.9-6.6,2.3c-1.1,1.1-1.6,3-1.6,5.5v12.5c0,3.9-1,7-2.9,9.3c-2.1,2.5-5.1,3.8-9,3.8H88v-7.1h5.2
		c3.3,0,4.9-1.9,4.9-5.6V49.1c0-5.3,2.5-8.9,7.6-11c-5.1-1.8-7.6-5.5-7.6-11V12.8c0-3.9-1.7-5.7-4.9-5.7H88V0z"/>
	<g id="Group-2" transform="translate(31.000000, 3.000000)">
		<circle id="Oval-3" class="st1" cx="26" cy="35" r="5"/>
		<circle id="Oval-3_1_" class="st1" cx="11" cy="35" r="5"/>
		<circle id="Oval-3_2_" class="st1" cx="41" cy="35" r="5"/>
		<path id="RESTful" class="st1" d="M1,1h4.4c1,0,1.8,0.2,2.4,0.7c0.6,0.5,0.9,1.2,0.9,2.2c0,0.5-0.1,1-0.4,1.4C8,5.7,7.6,6,7,6.1v0
			C7.9,6.4,8.4,7,8.5,7.9l0.2,1.6c0.1,0.6,0.3,1.1,0.6,1.5H7.6c-0.2-0.3-0.4-0.8-0.4-1.3L7.1,8.4C7,7.9,6.8,7.5,6.5,7.2
			C6.2,7,5.8,6.9,5.2,6.9H2.5V11H1V1z M2.5,2.3v3.3h2.7c0.7,0,1.2-0.2,1.5-0.4C7,4.9,7.2,4.4,7.2,3.9c0-0.6-0.2-1-0.5-1.2
			C6.4,2.4,5.9,2.3,5.2,2.3H2.5z M10.7,1h7.2v1.3h-5.7v2.9h5.3v1.3h-5.3v3.2h5.9V11h-7.4V1z M23.1,0.8c1.2,0,2.1,0.2,2.7,0.7
			C26.6,2.1,27,2.9,27.1,4h-1.5c-0.1-0.6-0.4-1.1-0.8-1.4c-0.4-0.3-1-0.4-1.7-0.4c-0.7,0-1.2,0.1-1.5,0.3c-0.4,0.2-0.6,0.6-0.6,1.1
			c0,0.4,0.2,0.8,0.7,1.1c0.2,0.1,0.8,0.3,1.7,0.6c1.3,0.4,2.2,0.7,2.6,1c0.9,0.5,1.3,1.2,1.3,2.2c0,0.9-0.3,1.6-1,2.1
			c-0.7,0.5-1.7,0.8-2.9,0.8c-1.2,0-2.2-0.3-2.9-0.7c-0.8-0.6-1.3-1.5-1.4-2.8h1.5c0.1,0.8,0.4,1.4,0.8,1.7c0.4,0.3,1,0.5,1.9,0.5
			c0.8,0,1.4-0.1,1.8-0.4s0.7-0.6,0.7-1.1c0-0.6-0.3-1-1-1.3c-0.2-0.1-0.9-0.3-2-0.7c-1.2-0.4-2-0.7-2.3-0.8c-0.8-0.5-1.1-1.1-1.1-2
			c0-0.9,0.4-1.6,1.1-2.1C21.2,1,22.1,0.8,23.1,0.8z M27.9,1h8.2v1.3h-3.3V11h-1.5V2.3h-3.3V1z M40,1h1.5v1.3h-1.3
			c-0.2,0-0.4,0.1-0.5,0.2c-0.1,0.1-0.2,0.3-0.2,0.6v0.7h1.9V5h-1.9v6h-1.5V5h-1.7V3.8h1.7V3c0-0.6,0.2-1.1,0.5-1.4
			C38.9,1.2,39.4,1,40,1z M42.5,3.8h1.5v4.4c0,0.6,0.1,1.1,0.4,1.3c0.3,0.3,0.7,0.4,1.2,0.4c0.4,0,0.7-0.2,1.1-0.5
			c0.3-0.3,0.6-0.8,0.7-1.3V3.8h1.5V11h-1.5v-1c-0.6,0.8-1.4,1.2-2.3,1.2c-1.8,0-2.6-1-2.6-2.9V3.8z M50.7,0.8h1.5V11h-1.5V0.8z"/>
		<path id="API" class="st1" d="M15.5,57.7H18L23.5,72h-2.3l-1.3-3.7h-6.1L12.3,72H10L15.5,57.7z M14.3,66.5h4.8l-2.4-6.5h-0.1
			L14.3,66.5z M25.3,57.7h5.9c3.4,0,5.1,1.4,5.1,4.3c0,2.9-1.7,4.4-5.1,4.4h-3.7V72h-2.2V57.7z M27.5,59.6v5H31
			c1.1,0,1.9-0.2,2.4-0.6c0.5-0.4,0.7-1,0.7-1.9c0-0.9-0.3-1.5-0.8-1.9c-0.5-0.4-1.3-0.6-2.3-0.6H27.5z M38.8,57.7H41V72h-2.2V57.7z
			"/>
	</g>
</g>
</svg>
