<?xml version="1.0" encoding="utf-8"?>
<!-- Generator: Adobe Illustrator 21.0.0, SVG Export Plug-In . SVG Version: 6.00 Build 0)  -->
<svg version="1.1" id="图层_1" xmlns="http://www.w3.org/2000/svg" xmlns:xlink="http://www.w3.org/1999/xlink" x="0px" y="0px"
	 viewBox="0 0 140 100" style="enable-background:new 0 0 140 100;" xml:space="preserve">
<style type="text/css">
	.st0{fill:#2288CC;}
	.st1{fill:#FFFFFF;}
</style>
<rect id="Path_1_" class="st0" width="140" height="100"/>
<g id="database-175112" transform="translate(44.000000, 23.000000)">
	<path id="Shape_11_" class="st1" d="M26,29.3c10.4,0,18.8-3.9,18.8-8.8c0-0.1,0-0.2,0-0.3v-4c0-0.4-0.5-0.8-0.9-0.4
		c-4,3.3-10.9,5-18,5c-6.9,0-14-1.7-18-5c-0.3-0.3-0.9,0-0.9,0.4v4c0,0.1,0,0.2,0,0.3C7.2,25.2,15.6,29.3,26,29.3z"/>
	<ellipse id="Oval" class="st1" cx="26" cy="9.3" rx="18.8" ry="8.8"/>
	<path id="Shape_12_" class="st1" d="M49.9,46.3H35.3c-0.2,0-0.5-0.2-0.5-0.4V45c0-0.5-0.4-1-1-1h-5.7c-0.3,0-0.5-0.2-0.5-0.5v-2.3
		c0-0.3,0.2-0.5,0.5-0.5c9.4-0.4,16.8-4.2,16.8-8.7c0-0.1,0-0.2,0-0.3v-4c0-0.4-0.5-0.8-1-0.4c-4,3.3-10.9,5-17.9,5
		s-13.9-1.7-17.9-5c-0.3-0.3-1,0-1,0.4v4c0,0.1,0,0.2,0,0.3c0,4.6,7.4,8.2,16.8,8.7c0.3,0,0.5,0.2,0.5,0.5v2.3
		c0,0.3-0.2,0.5-0.5,0.5h-5.7c-0.5,0-1,0.4-1,1v0.9c0,0.2-0.2,0.4-0.5,0.4H2.1c-0.9,0-1.5,0.6-1.5,1.5c0,0.9,0.7,1.5,1.5,1.5h14.6
		c0.2,0,0.5,0.2,0.5,0.4v0.9c0,0.5,0.4,1,1,1h15.7c0.5,0,1-0.4,1-1v-0.9c0-0.2,0.2-0.4,0.5-0.4H50c0.9,0,1.5-0.7,1.5-1.5
		C51.6,46.9,50.8,46.3,49.9,46.3z"/>
</g>
</svg>
