<?xml version="1.0" encoding="utf-8"?>
<!-- Generator: Adobe Illustrator 21.0.0, SVG Export Plug-In . SVG Version: 6.00 Build 0)  -->
<svg version="1.1" id="图层_1" xmlns="http://www.w3.org/2000/svg" xmlns:xlink="http://www.w3.org/1999/xlink" x="0px" y="0px"
	 viewBox="0 0 140 100" style="enable-background:new 0 0 140 100;" xml:space="preserve">
<style type="text/css">
	.st0{opacity:0.8;fill:#FFEF22;enable-background:new    ;}
	.st1{fill:none;stroke:#FDEE21;stroke-width:0.5129;}
	.st2{fill:#FDEE21;}
	.st3{fill:#C8C037;}
	.st4{fill:#FCF7A0;}
	.st5{fill:#FFFFFF;}
	.st6{fill:none;stroke:#000000;stroke-width:0.5;}
</style>
<rect id="Path_18_" class="st0" width="140" height="100"/>
<g id="Page-1_3_" transform="translate(35.000000, 21.000000)">
	<polygon id="Fill-1_6_" points="41.9,49.4 41.9,62.9 45.2,62.9 45.2,56.7 45.9,56.7 45.9,62.9 49.2,62.9 49.2,49.4 45.9,49.4 
		45.9,54.4 45.2,54.4 45.2,49.4 	"/>
	<polygon id="Stroke-2" class="st1" points="41.9,49.4 41.9,62.9 45.2,62.9 45.2,56.7 45.9,56.7 45.9,62.9 49.2,62.9 49.2,49.4 
		45.9,49.4 45.9,54.4 45.2,54.4 45.2,49.4 	"/>
	<polygon id="Fill-4_2_" points="50.1,62.9 53.4,62.9 53.4,49.4 50.1,49.4 	"/>
	<g id="Group-40" transform="translate(0.000000, 0.000981)">
		<polygon id="Stroke-5" class="st1" points="50.1,62.9 53.4,62.9 53.4,49.4 50.1,49.4 		"/>
		<path id="Fill-7_3_" d="M53.9,49.4l2.6,13.5h3.9l2.6-13.5h-3.4l-0.8,5.8c-0.1,0.2-0.3,0.2-0.4,0l-0.8-5.8L53.9,49.4z"/>
		<path id="Stroke-8" class="st1" d="M53.9,49.4l2.6,13.5h3.9l2.6-13.5h-3.4l-0.8,5.8c-0.1,0.2-0.3,0.2-0.4,0l-0.8-5.8L53.9,49.4z"
			/>
		<polygon id="Fill-9_2_" points="70,49.4 63.5,49.4 63.5,62.9 70,62.9 70,59.3 66.4,59.3 66.4,57.8 68.1,57.8 68.1,54.3 66.4,54.3 
			66.4,52.9 70,52.9 		"/>
		<polygon id="Stroke-10" class="st1" points="70,49.4 63.5,49.4 63.5,62.9 70,62.9 70,59.3 66.4,59.3 66.4,57.8 68.1,57.8 
			68.1,54.3 66.4,54.3 66.4,52.9 70,52.9 		"/>
		<path id="Fill-11_2_" class="st2" d="M35.3,8.4c-0.5-1.5-19.1-8.7-19.4-7.9c-3.4,0.9-4.8,4.8-7.2,7.3L3.5,7.5
			c-2.3,3-3.5,6-2.7,9.1c2.9,4,6.4,7.4,8.5,12.4c0.2,2.4,10.2,0.2,12.4-0.2c-2.9,2.1-5.5,5.4-4.4,14.8c1,4.4,1.7,9.3,10.6,14.3
			c1.2,0.7,3.6,1.4,5.1,2c1.4,0.7,3.1,0.9,7.9-0.5c2.7-1.2,5.7-1.9,8.4-3.1l-3.2,0.2c-4.4,0.1-7.9,0.4-8.9-0.8l-4.1-7.1l2.4-4.6
			c3.3,0.3,4.4,3,7.3,4l3.4-2.5c10,5.9,13.9-3.7,15.1-11.2c-0.1-3-6.6,1-6.2-0.5c0.2-3.3-2.5-7.5-4.2-10.9l2-7.7
			c0.9-0.8-4.2-9.4-8.3-10.5C40.8,3.8,35.3,8.4,35.3,8.4L35.3,8.4z"/>
		<path id="Fill-12_2_" class="st3" d="M51.7,24.8c0,0.8,0,1.8,0.1,2.5c0,0.5-0.4,0.5-0.7,0.6l1.9,0.7c0.4,0.6,0.7,1.3,1,1.9
			c0.4,1.6,0.1,1.6-0.1,1.8c-0.7,0-1.4,0-2.1-0.1c0.3,0.2,0.4,0.3,0.4,0.5c0.1,0.4-0.2,0.9-0.6,1.3c0.6,0.3,1.6,0.6,2.4,0.9l0.9-2
			C54.5,30,53.3,27.3,51.7,24.8L51.7,24.8z"/>
		<path id="Fill-13_3_" class="st3" d="M55.3,34.5c1.1,0.4,2.6,0.3,4.6-0.7c0.3-0.2,0.6-0.1,0,0.3C57.2,36.4,55.9,35.2,55.3,34.5z"
			/>
		<path id="Fill-14_1_" class="st3" d="M60.1,33.4c0.3,0.6,0.1,1.1,0,1.6c-0.3,2.6-1.2,4.7-2.8,6.9c-5.2,8.4-10.5,3.1-14.7-0.3
			L40.9,46c-0.1,0.4-0.5,0.7,2.2,1.9l2.8-2C56.5,53.9,63.9,34.7,60.1,33.4L60.1,33.4z"/>
		<path id="Fill-15_2_" class="st3" d="M43.9,40.9c-0.7,0.1-2.8,0.8-2.9,1.2l1-1.5L43.9,40.9z"/>
		<path id="Fill-16_1_" class="st3" d="M42.5,32c0.1,0,0.8,0.2,0.7,0.1c-0.1-0.1,0,0.9,0.2,1.4l-0.8,1.7c1.5-1.7,3.8-1.6,5.9-1.8
			l-1-0.6c0.2-0.6,0-1.1-0.1-1.6L42.5,32z"/>
		<path id="Fill-17_1_" class="st3" d="M46.1,27c-1.6,0.5-3.1,1.3-4.1,2.9c0.8-2.8,0.9-2.7,1.2-2.8C44.3,26.7,45.2,27,46.1,27z"/>
		<path id="Fill-18_2_" class="st4" d="M37.7,59.4c-1.9,2.1-6.1-0.2-9.7-1.3c-8.9-5.7-10.7-11-10.8-16.3c-0.5-7.5,1.8-11.9,4.8-12.9
			c-1.9,3.7-2.8,10.4-1.9,15.4c0.7,2.8,0.7,7.4,5.4,9.9c2.3,1.3,1.7,2.3,3.2,3.5C30.4,59,35,60.2,37.7,59.4L37.7,59.4z"/>
		<path id="Fill-19_2_" class="st4" d="M40.6,24.6c-3.2-4.6-7.7-6.3-12.8-6.5c1-0.3,2-0.5,3.1-1c0.3-0.3,0.2-0.7,0.1-1.2
			c-4.9-1.3-8-2.9-11.9-4.3l10.6,2.5C36.7,14.5,36.1,16.2,40.6,24.6L40.6,24.6z"/>
		<path id="Fill-20_2_" class="st4" d="M44,22.5c-2.4-3.4-4.7-7.5-7.8-10.1c-7.5-3.4-15-5.9-23.8-8.2l2.8-3.6
			c9.3,2.1,18,5.7,25.8,11.5C42.4,15.4,43.3,18.7,44,22.5L44,22.5z"/>
		<path id="Fill-21_1_" class="st4" d="M48.8,16.5c0,0-1.3-3-2-4.1c-1.5-1.7-2.3-4.8-5.3-6.2c1,0.3,1.6-0.1,3.6,1.8l3.1,5.9
			L48.8,16.5z"/>
		<path id="Fill-22_2_" class="st4" d="M50.5,21.6c0.3-2.6,0.9-6.7,0.2-8.4c-1.9-2.5-3.7-5.1-5.6-7.5c-0.3-0.3-0.5-0.7-0.8-1
			c2.6,0.7,5.4,2.5,9.1,9.7L50.5,21.6z"/>
		<path id="Fill-23" d="M39.4,21.9c-1.1-0.8-2-3.7-3.6-4.4c-1.5-0.1-2-0.6-4-0.2c0.7-0.4,1.4-0.8,2.1-1c0.5-0.1,1,0,1.5,0.1
			c0.1-0.1,0.2-0.1,0.2-0.2c-2-1.2-6-1.2-8.7-1.9c3.1,0.1,6.6-0.1,9,0.7C37.8,16.7,38.4,19.8,39.4,21.9z"/>
		<path id="Fill-24_3_" d="M45.1,7.9c0.4,0,2.8,3.7,2.9,4.4c0.2,1.3,0.7,2.9,0.8,4.3c-0.4-1.4-0.8-2.7-1.3-4.1
			c-0.2-0.4-0.5-1.2-1.6-2.4C45.4,9.2,45.3,8.5,45.1,7.9L45.1,7.9z"/>
		<polygon id="Fill-25_1_" points="53.1,28 52.1,28 53.2,28.4 		"/>
		<path id="Fill-26_1_" d="M46.2,27c-1-0.1-2-0.1-3,0.1c-0.4,0.6-0.4,1.1-0.6,1.6C43.8,27.4,44.3,27.3,46.2,27z"/>
		<path id="Fill-27_2_" d="M60,34c-0.6,0.4-0.6,0.9-2.3,1.4c-1.2,0.3-1.9-0.2-2.5-0.8c0.9,0.2,1,0.9,3.3,0.2L60,34z"/>
		<path id="Fill-28_1_" d="M54.9,34.2c-0.4,1.1-0.8,2.2-1.3,3.3c-1,1.2-0.6,0.5-2.2,2.4c0.5-0.8,1.2-1.5,1.5-2.3
			c0.2-0.5,0.5-1.1,0.7-1.6c-0.4-0.2-1.3-0.2-1.4-0.1c-1.4,0.8-1.6,1.7-2.5,2.5c0.6-0.9,1.1-2,1.8-2.8c0.1-0.1,0.6-0.1,0.9-0.2
			c-0.5-0.1-1.4-0.3-1.5-0.3c-0.9,0.2-1.4,1-2.1,1.5c0.5-0.7,0.9-1.4,1.6-2.1c0.1-0.1,1.7,0.1,2.6,0.4l0,0.3l0.5,0.2l0.4-0.9
			L54.9,34.2z"/>
		<path id="Fill-29_1_" d="M43.9,40.9c-0.2-0.1-2.2-0.3-2.2-0.3c-0.8,0.5-0.9,1.1-0.9,1.5C42.2,40.9,42.1,40.9,43.9,40.9L43.9,40.9z
			"/>
		<path id="Fill-30_1_" d="M42.4,32c0,0,1.4-0.2,1.4-0.1c-0.1,0.5,0.2,1.7,0.2,1.5l-0.8,0.7c1.7-0.8,3.4-0.7,5.2-0.8
			c0,0-1.5-0.4-1.4-0.4c0.3,0-0.1-1.6-0.2-1.6c0.3-0.1,0.6-0.2,0.9-0.2C45.6,30.5,44.3,30.8,42.4,32L42.4,32z"/>
		<path id="Fill-31_1_" d="M54.8,33.1l-0.3,0.2c0-0.9-1-0.9-1.9-0.9l-0.7-0.2c0.2,0.2,0.9,0.2,0.6,0.6c-0.2,0.1-0.3,0.6-0.4,1
			l-0.4,0c0.7,0.3,1.3,0.5,2,0.8l0.4,0.1l1-0.6L54.8,33.1z"/>
		<path id="Fill-32_1_" class="st5" d="M45.3,32.4c-0.2-0.3-1-0.3-1.1-0.1c-0.1,0.2,0,1.2,0.2,1.1c0.3-0.2,0.6-0.3,1-0.3
			C45.4,32.9,45.4,32.7,45.3,32.4z"/>
		<path id="Fill-33_2_" class="st5" d="M53.1,34c0.1-0.1,0.2-0.6,0.2-0.8c-0.1-0.4-0.9-0.3-0.9-0.3c-0.2,0.1-0.3,0.7-0.3,0.9
			C52.2,34,53,34.1,53.1,34L53.1,34z"/>
		<path id="Fill-34_1_" d="M21,52.5l0.5,0c2.8,1.4,7.4,3.4,14.1,2.3l1.1,1.7c-3,1.4-6.1,1.1-9.1,1.2L21,52.5z"/>
		<path id="Fill-35_2_" d="M16.9,41.6l1.4,5.9c3.8,2.4,10.2,5.1,15.6,4.8l-1.2-2.7C21.5,47.3,20.6,44.3,16.9,41.6L16.9,41.6z"/>
		<path id="Fill-36" d="M20.4,29.5c0.7,4.6,1.6,8,5.6,11c2.4,1.8,4.9,3.5,7.8,4.9c0,0-0.3,1.3-0.5,1.3c-8.8-1-15.2-8.2-16-11.6
			C18.2,32.6,19.2,31.1,20.4,29.5L20.4,29.5z"/>
		<path id="Fill-37_2_" d="M24.7,26.9c1.2,5.1,4,10.2,6.7,14.9c1,1.3,1.3,1.9,2.8,2.6c2.1,0.7,3.6,0.5,5.1,0.4
			c-0.4-0.8-0.8-1.6-1.3-2.3c-3.4-2.7-1.8-5.2-0.9-6.8c-1.9-0.5-4.4-1.5-4.8-2.9c-0.6-4.4-0.3-5.7,0.3-8
			C30.1,25.5,27.4,26,24.7,26.9L24.7,26.9z"/>
		<path id="Fill-38" d="M46.2,45.2c-1.5-1.2-2.8-2.4-3.6-3.6c-0.3,1.5-1.3,2.5-2,3.5c-0.2,0.2-0.3,0.6,0.5,1.6
			C41.3,47,42,47,42.5,47c-0.5-0.4-1.3-0.8-1.4-1.1c0.9,0.6,1.7,0.8,2.4,0.7c0.2,0,0.4-0.2,0.5-0.5c0.3-0.7,0.6-0.9,0.8-1.1l0.6,0.7
			L46.2,45.2z M15.2,0c-0.9,0.6-1.7,1.3-2.6,2.3c-1.5,1.5-2.4,3-3.9,4.1C8.4,6.6,7.6,7,6.5,7.1c-0.5,0-0.8,0.1-1.7,0
			C4,6.6,3.2,6.9,2.5,7.8C1.7,9,0.6,11.2,0.2,12.6c-0.9,3.6,1.4,6.5,3.5,8.8c1.9,1.9,3,3.1,3.8,4.8c0.6,1.1,1,2.6,1.5,3.7
			c0.2,0.3,0.1,0.3,0.6,0.4c1,0.2,2.4,0.2,3.6,0.3c0.5,0,1.3,0,2-0.1c1-0.2,2.1-0.4,3-0.7c0.9-0.2,1.8-0.5,2.5-0.8
			c-0.1,0.3-0.8,0.6-1.1,1.1c-2.5,3.6-3.2,6.8-2.8,11.9c0.2,2.2,0.8,4.1,1.5,6.2c0.4,1,1.1,2.5,1.8,3.5c2.2,3,7,7,13.7,8.5
			c1.2,0.2,2.5,0.1,3.8-0.3c3.3-1,10.1-3.4,10.1-3.4s-6,0.5-8.8,0.2c-0.6-0.1-1.3-0.1-1.8-0.6c-0.1-0.1-0.3-0.6-0.2-0.6
			c0.2,0,0.9-0.3,2-0.4C36.9,55,37,55,36.8,54.5c-0.3-0.6-0.6-1.5-1.1-2.3c1,0.1,3.2,0.2,3.9-0.6c0,0-1.3,0.1-2.4,0
			c-0.4,0-1-0.3-1.2-0.4c-0.5-0.2-0.9-0.3-1-0.4c-0.2-0.5-0.3-0.6-0.5-1.2c-0.3-0.8-0.3-1.7-0.4-2.5c0.8,0.9,1.7,1.7,3,2.1
			c0,0,1.6,0.7,2.8,0.3l0.2-0.1c0,0-0.8,0.1-1.1-0.1c-2.4-1-2.8-1.9-3.1-2.4l-1-1.6c0.3-0.6,0.5-0.7,0.9-0.7
			c1.3,0.1,1.8,0.2,2.6,0.1c0.5,1.1,0.7,2.1,1.8,2.9c3.9,1.2,4.8-0.3,5.7-1.7c2.8,2.1,7.4,2.7,10.7,0c4.1-4.7,5.4-12.1,5-12.6
			c-0.5-0.9-1.2-1.8-1.7-1.6c-2,0.6-2.8,1.6-4.8,1.4c0.2,0,0.6,0,0.6,0c0.2-1.7,0-2.5-0.1-2.7c-0.6-1.4-1.4-2.8-2-3.8
			c-0.1-0.2-0.6-1.9-1.3-2.6c-0.3-0.3-1.1-0.9-1.1-0.9l-0.1,0.7c0,0,0.3,0,0.4,0.5c0.4,1.7,2.6,5.8,2.7,6c0.8,1.2,0.1,2.8,0.7,3.6
			c0.1,0.1,1.2,0,2.1,0c1.4-0.3,1.4-0.9,2.6-1c0.8-0.1,0.9,1.5,0.9,1.6c-0.2,1.7-0.7,3.7-1.5,5.6c-1.7,3.2-3.6,6.1-6.2,6.5
			c-3.2,0.6-4.9-0.9-6.7-1.8l-0.7,0.6c-2.3,2.3-5,2.1-6.1-0.9c-0.6-1.2-1.3-1.9-1.9-2.9l-3.3,2.4c-0.3,0.6-0.6,1.4-1,2.4
			c-0.3,0.7-0.5,1.9-0.5,2.8c-0.4,0.7,1.5,3.6,2.6,5.4c0.3,0.5,1,1.4,1,1.5c0.2,0.6,0.7,1.1,0.8,1.2c2.2,2.9-2.8,2.2-3.8,2
			c-2-0.3-4-1.2-5.9-2.3c-0.1-0.1-0.2-0.1-0.3-0.2c-2.2-1.4-4.2-3.2-6-4.9c-1-1.2-2-3.6-2.7-5.3c-1.1-4.1-2.6-11.2,1.6-16.5
			c0.3-0.3,0.6-0.8,0.8-0.9c1.3-0.8,2.6-1.4,4.1-1.7l-0.1-1c-0.7,0.2-3.2,1.1-3.9,1.4c-1.6,0.5-2.9,0.9-4.9,1.4
			c-0.7,0.1-1.3,0.1-1.9,0c-1.5-0.2-3.9,0-4.1-0.2c-1-1.4-1.3-3.8-2.2-5.1l0,0l0,0c-0.5-0.7-1.1-1.3-1.7-1.9c-2.2-2.1-4-4.2-4.5-6.4
			c-0.1-0.6-0.5-1.3-0.3-3.2l0,0l0,0C1.7,11.1,2.6,9.7,4,8.2c1.5,0,3,0.1,4.1,0.3c0.5,0.1,1.6,0.2,2.8,0.7c2.9,1.1,6.6,2.8,6.6,2.8
			c-2.8-1.6-6-3.6-8-4C9.2,7.9,9,7.8,8.9,7.6c3-1.8,3.6-3.9,5.6-5.7c0.9-0.4,1.3-0.6,2-0.7c7.1,1.1,11.6,4,15.2,5.9
			c1.4,0.8,2.7,1.4,4,2.1c1.1,0.4,4.4,2.9,5.4,4.2c1,2.1,1.7,4.3,2.4,6.5c0.5,2.2,0.9,3.1,0.9,3.1s-0.4-1.8-0.3-2.2
			c0.4,0.2,1.4,0.5,1.8,0.4c0,0-1.8-0.9-2-1.8c-0.8-2.7-1.5-6.8-1.7-7c-0.6-0.7-3-2.6-4.5-3.4c-0.6-0.3-0.9-0.5-0.9-0.7
			c0.5-0.5,1.1-1.1,1.6-1.5c0.5-0.4,1-0.8,1.7-1.1c3.1-1.4,4.8,0.5,5.3,0.1c0,0-0.7-0.8-0.4-0.6C45,5.3,46,5.5,46.1,5.6
			c1.1,0.9,4.1,4.1,5.8,7.5c0.4,0.8,0.6,1.4,0.4,2.4c-0.2,1-0.4,1.5-0.6,2.2c-0.2,0.4-1.3,3.5-1.3,3.9c-0.2,1.7,0.7,3.8,0.7,3.8
			c0-0.6,0-0.9,0-1.3l0.1-0.7c0,0,0-0.2,0-0.3c0-0.5,0.2-0.9,0.2-1.2c0.4-2.2,1-3.8,1.7-5.7c0.2-0.5,0.5-0.8,0.5-1.1
			c0-0.7-0.6-1.5-1-2.4c-0.4-0.9-0.9-1.8-1.6-2.9c-1.5-2.2-2.8-3.9-5.2-5c-0.7-0.3-3.3-0.6-4.2-0.4c-1.1,0.2-2,0.5-2.8,0.9
			c-1.2,0.8-2.1,1.9-3.2,2.6c-2.4-1.2-3.6-2.1-3.8-2.2c-1.4-0.8-3.2-1.7-5-2.5C25.8,2.4,20.2,0.4,15.2,0L15.2,0z"/>
		<path id="Stroke-39" class="st6" d="M46.2,45.2c-1.5-1.2-2.8-2.4-3.6-3.6c-0.3,1.5-1.3,2.5-2,3.5c-0.2,0.2-0.3,0.6,0.5,1.6
			C41.3,47,42,47,42.5,47c-0.5-0.4-1.3-0.8-1.4-1.1c0.9,0.6,1.7,0.8,2.4,0.7c0.2,0,0.4-0.2,0.5-0.5c0.3-0.7,0.6-0.9,0.8-1.1l0.6,0.7
			L46.2,45.2z M15.2,0c-0.9,0.6-1.7,1.3-2.6,2.3c-1.5,1.5-2.4,3-3.9,4.1C8.4,6.6,7.6,7,6.5,7.1c-0.5,0-0.8,0.1-1.7,0
			C4,6.6,3.2,6.9,2.5,7.8C1.7,9,0.6,11.2,0.2,12.6c-0.9,3.6,1.4,6.5,3.5,8.8c1.9,1.9,3,3.1,3.8,4.8c0.6,1.1,1,2.6,1.5,3.7
			c0.2,0.3,0.1,0.3,0.6,0.4c1,0.2,2.4,0.2,3.6,0.3c0.5,0,1.3,0,2-0.1c1-0.2,2.1-0.4,3-0.7c0.9-0.2,1.8-0.5,2.5-0.8
			c-0.1,0.3-0.8,0.6-1.1,1.1c-2.5,3.6-3.2,6.8-2.8,11.9c0.2,2.2,0.8,4.1,1.5,6.2c0.4,1,1.1,2.5,1.8,3.5c2.2,3,7,7,13.7,8.5
			c1.2,0.2,2.5,0.1,3.8-0.3c3.3-1,10.1-3.4,10.1-3.4s-6,0.5-8.8,0.2c-0.6-0.1-1.3-0.1-1.8-0.6c-0.1-0.1-0.3-0.6-0.2-0.6
			c0.2,0,0.9-0.3,2-0.4C36.9,55,37,55,36.8,54.5c-0.3-0.6-0.6-1.5-1.1-2.3c1,0.1,3.2,0.2,3.9-0.6c0,0-1.3,0.1-2.4,0
			c-0.4,0-1-0.3-1.2-0.4c-0.5-0.2-0.9-0.3-1-0.4c-0.2-0.5-0.3-0.6-0.5-1.2c-0.3-0.8-0.3-1.7-0.4-2.5c0.8,0.9,1.7,1.7,3,2.1
			c0,0,1.6,0.7,2.8,0.3l0.2-0.1c0,0-0.8,0.1-1.1-0.1c-2.4-1-2.8-1.9-3.1-2.4l-1-1.6c0.3-0.6,0.5-0.7,0.9-0.7
			c1.3,0.1,1.8,0.2,2.6,0.1c0.5,1.1,0.7,2.1,1.8,2.9c3.9,1.2,4.8-0.3,5.7-1.7c2.8,2.1,7.4,2.7,10.7,0c4.1-4.7,5.4-12.1,5-12.6
			c-0.5-0.9-1.2-1.8-1.7-1.6c-2,0.6-2.8,1.6-4.8,1.4c0.2,0,0.6,0,0.6,0c0.2-1.7,0-2.5-0.1-2.7c-0.6-1.4-1.4-2.8-2-3.8
			c-0.1-0.2-0.6-1.9-1.3-2.6c-0.3-0.3-1.1-0.9-1.1-0.9l-0.1,0.7c0,0,0.3,0,0.4,0.5c0.4,1.7,2.6,5.8,2.7,6c0.8,1.2,0.1,2.8,0.7,3.6
			c0.1,0.1,1.2,0,2.1,0c1.4-0.3,1.4-0.9,2.6-1c0.8-0.1,0.9,1.5,0.9,1.6c-0.2,1.7-0.7,3.7-1.5,5.6c-1.7,3.2-3.6,6.1-6.2,6.5
			c-3.2,0.6-4.9-0.9-6.7-1.8l-0.7,0.6c-2.3,2.3-5,2.1-6.1-0.9c-0.6-1.2-1.3-1.9-1.9-2.9l-3.3,2.4c-0.3,0.6-0.6,1.4-1,2.4
			c-0.3,0.7-0.5,1.9-0.5,2.8c-0.4,0.7,1.5,3.6,2.6,5.4c0.3,0.5,1,1.4,1,1.5c0.2,0.6,0.7,1.1,0.8,1.2c2.2,2.9-2.8,2.2-3.8,2
			c-2-0.3-4-1.2-5.9-2.3c-0.1-0.1-0.2-0.1-0.3-0.2c-2.2-1.4-4.2-3.2-6-4.9c-1-1.2-2-3.6-2.7-5.3c-1.1-4.1-2.6-11.2,1.6-16.5
			c0.3-0.3,0.6-0.8,0.8-0.9c1.3-0.8,2.6-1.4,4.1-1.7l-0.1-1c-0.7,0.2-3.2,1.1-3.9,1.4c-1.6,0.5-2.9,0.9-4.9,1.4
			c-0.7,0.1-1.3,0.1-1.9,0c-1.5-0.2-3.9,0-4.1-0.2c-1-1.4-1.3-3.8-2.2-5.1l0,0l0,0c-0.5-0.7-1.1-1.3-1.7-1.9c-2.2-2.1-4-4.2-4.5-6.4
			c-0.1-0.6-0.5-1.3-0.3-3.2l0,0l0,0C1.7,11.1,2.6,9.7,4,8.2c1.5,0,3,0.1,4.1,0.3c0.5,0.1,1.6,0.2,2.8,0.7c2.9,1.1,6.6,2.8,6.6,2.8
			c-2.8-1.6-6-3.6-8-4C9.2,7.9,9,7.8,8.9,7.6c3-1.8,3.6-3.9,5.6-5.7c0.9-0.4,1.3-0.6,2-0.7c7.1,1.1,11.6,4,15.2,5.9
			c1.4,0.8,2.7,1.4,4,2.1c1.1,0.4,4.4,2.9,5.4,4.2c1,2.1,1.7,4.3,2.4,6.5c0.5,2.2,0.9,3.1,0.9,3.1s-0.4-1.8-0.3-2.2
			c0.4,0.2,1.4,0.5,1.8,0.4c0,0-1.8-0.9-2-1.8c-0.8-2.7-1.5-6.8-1.7-7c-0.6-0.7-3-2.6-4.5-3.4c-0.6-0.3-0.9-0.5-0.9-0.7
			c0.5-0.5,1.1-1.1,1.6-1.5c0.5-0.4,1-0.8,1.7-1.1c3.1-1.4,4.8,0.5,5.3,0.1c0,0-0.7-0.8-0.4-0.6C45,5.3,46,5.5,46.1,5.6
			c1.1,0.9,4.1,4.1,5.8,7.5c0.4,0.8,0.6,1.4,0.4,2.4c-0.2,1-0.4,1.5-0.6,2.2c-0.2,0.4-1.3,3.5-1.3,3.9c-0.2,1.7,0.7,3.8,0.7,3.8
			c0-0.6,0-0.9,0-1.3l0.1-0.7c0,0,0-0.2,0-0.3c0-0.5,0.2-0.9,0.2-1.2c0.4-2.2,1-3.8,1.7-5.7c0.2-0.5,0.5-0.8,0.5-1.1
			c0-0.7-0.6-1.5-1-2.4c-0.4-0.9-0.9-1.8-1.6-2.9c-1.5-2.2-2.8-3.9-5.2-5c-0.7-0.3-3.3-0.6-4.2-0.4c-1.1,0.2-2,0.5-2.8,0.9
			c-1.2,0.8-2.1,1.9-3.2,2.6c-2.4-1.2-3.6-2.1-3.8-2.2c-1.4-0.8-3.2-1.7-5-2.5C25.8,2.4,20.2,0.4,15.2,0L15.2,0z"/>
	</g>
</g>
</svg>
