<?xml version="1.0" encoding="utf-8"?>
<!-- Generator: Adobe Illustrator 21.0.0, SVG Export Plug-In . SVG Version: 6.00 Build 0)  -->
<svg version="1.1" id="图层_1" xmlns="http://www.w3.org/2000/svg" xmlns:xlink="http://www.w3.org/1999/xlink" x="0px" y="0px"
	 viewBox="0 0 140 100" style="enable-background:new 0 0 140 100;" xml:space="preserve">
<style type="text/css">
	.st0{opacity:0.8;fill:#F87509;enable-background:new    ;}
	.st1{filter:url(#Adobe_OpacityMaskFilter);}
	.st2{fill:#FFFFFF;}
	.st3{mask:url(#mask-6);fill:#F8F9F9;}
</style>
<rect id="Rectangle-20" class="st0" width="140" height="100"/>
<g id="Page-1_1_" transform="translate(24.000000, 26.000000)">
	<g id="Group-3" transform="translate(59.054725, 0.067987)">
		<g id="Fill-1-Clipped">
			<g>
				<g id="path-5_1_">
				</g>
				<defs>
					<filter id="Adobe_OpacityMaskFilter" filterUnits="userSpaceOnUse" x="0.1" y="0" width="33.3" height="28.3">
						<feColorMatrix  type="matrix" values="1 0 0 0 0  0 1 0 0 0  0 0 1 0 0  0 0 0 1 0"/>
					</filter>
				</defs>
				<mask maskUnits="userSpaceOnUse" x="0.1" y="0" width="33.3" height="28.3" id="mask-6">
					<g class="st1">
						<polygon id="path-5" class="st2" points="33.4,0 0.1,0 0.1,28.3 33.4,28.3 						"/>
					</g>
				</mask>
				<path id="Fill-1_3_" class="st3" d="M27.9,9.5c0.1,0.2,0.3,0.5,0.4,0.7c-1.3,1.5-2.5,3.1-3.9,4.6c-1.3,1.4-1.6,2.7-0.5,4.4
					c0.9,1.5,1.5,3.1,2.6,5.3c-2.4-0.5-4.1-0.8-5.8-1.2c-0.2,0.2-0.4,0.3-0.6,0.5c0.6,1,0.9,2.4,1.7,2.8c1.6,0.8,3.5,1.3,5.4,1.6
					c2.7,0.4,3.9-1.6,2.7-4.1c-0.9-1.9-2.1-3.7-2.9-5.7c-0.3-0.8-0.2-2.2,0.3-2.9c1.5-2.1,3.4-4,4.9-6.1c0.6-0.8,0.7-2.1,1-3.1
					c-1.1-0.1-2.2-0.5-3.3-0.3c-1.9,0.3-3.9,0.8-5.7,1.5c-2.3,0.9-3.7,0.3-4.6-2c-0.4-1.1-1.1-2.2-1.8-3c-0.9-1-2.1-1.7-3.1-2.5
					c-0.8,1.2-1.9,2.2-2.4,3.5c-0.6,1.7-0.8,3.6-1,5.4c-0.2,1.8-1,2.8-2.8,3.3c-2.2,0.5-4.4,1.2-6.5,2c-2,0.7-2.8,2.7-1.4,3.8
					c1.7,1.5,3.9,2.6,6.1,3.3c1,0.3,2.5-1,4.3-1.8c-2.4-1.1-4.2-1.9-6-2.8c1.7-1.2,3.3-1.8,4.9-2.2c2.6-0.5,3.9-1.8,4-4.6
					c0.1-1.7,0.6-3.4,1-5.1c1.6,1.7,2.7,3.3,3.6,5c0.7,1.2,1.5,1.6,2.9,1.2C23.7,10.4,25.9,10,27.9,9.5"/>
			</g>
		</g>
	</g>
	<path id="Fill-12_1_" class="st2" d="M87,9.5c-2.1,0.5-4.2,0.9-6.3,1.6c-1.4,0.4-2.2,0.1-2.9-1.2c-1-1.7-2-3.4-3.6-5
		c-0.3,1.7-0.9,3.4-1,5.1c-0.1,2.8-1.4,4.1-4,4.6c-1.7,0.3-3.2,1-4.9,2.2c1.8,0.8,3.5,1.6,6,2.8c-1.8,0.8-3.3,2.1-4.3,1.8
		c-2.2-0.6-4.3-1.8-6.1-3.3c-1.4-1.1-0.5-3.1,1.4-3.8c2.1-0.8,4.3-1.5,6.5-2c1.8-0.4,2.6-1.5,2.8-3.3c0.2-1.8,0.4-3.7,1-5.4
		c0.5-1.3,1.6-2.3,2.4-3.5C75,0.9,76.1,1.6,77,2.6c0.8,0.9,1.4,1.9,1.8,3c0.9,2.3,2.3,2.9,4.6,2c1.8-0.7,3.8-1.2,5.7-1.5
		c1-0.2,2.2,0.2,3.3,0.3c-0.3,1.1-0.4,2.3-1,3.1c-1.5,2.1-3.4,4-4.9,6.1c-0.5,0.7-0.6,2.1-0.3,2.9c0.8,2,1.9,3.8,2.9,5.7
		c1.2,2.5,0,4.4-2.7,4.1c-1.8-0.3-3.7-0.8-5.4-1.6c-0.8-0.4-1.2-1.8-1.7-2.8c0.2-0.2,0.4-0.3,0.6-0.5c1.7,0.3,3.4,0.7,5.8,1.2
		c-1-2.2-1.6-3.9-2.6-5.3c-1.1-1.7-0.8-3,0.5-4.4c1.4-1.5,2.6-3.1,3.9-4.6C87.3,10,87.1,9.8,87,9.5"/>
	<path id="Fill-15_1_" class="st2" d="M30.7,33.9c0-2.7-1.9-4.6-4.6-4.6c-3.2,0-5.8,2.7-5.8,5.9c0,2.5,1.9,4.5,4.5,4.5
		C27.8,39.9,30.7,37,30.7,33.9 M19.3,42.1c-0.3,2.3-0.6,4.2-1,6.3h-3.8c0.9-5.6,1.5-11.2,2.8-16.6c0.8-3.2,3.6-5.1,6.8-6.1
		c3.7-1.1,7.6,0.4,9.3,3.3c2,3.4,1.3,8.2-1.8,11.2C28.2,43.7,24.2,44.7,19.3,42.1"/>
	<path id="Fill-18_1_" class="st2" d="M0,38.8c1.3-0.7,2.5-1.4,3.8-2.1c0.2,0.4,0.4,0.7,0.6,1c1.3,2,3.3,2.5,4.9,1.2
		c1.6-1.3,1.5-2.6-0.3-4.7c-1.2-1.3-2.4-2.5-3.5-3.9c-2.8-3.5-2.2-7.2,1.4-9.8c3.7-2.6,7.7-1.7,10.1,2.4c-1.1,0.8-2.2,1.7-3.3,2.5
		c-0.2-0.1-0.4-0.1-0.5-0.2c-1.2-1.6-2.6-2.9-4.5-1.3c-2,1.8,0.2,2.9,1.1,4.1c1.1,1.5,2.6,2.7,3.8,4.3c1.9,2.5,1.5,5.2-0.1,7.6
		c-2,3.1-5,4.2-8.6,3.8C2.3,43.3,0.8,41.5,0,38.8"/>
	<path id="Fill-20_1_" class="st2" d="M49.5,42.9c0.3-2.6,0.7-5.3,0.8-8c0.2-3.3-1.1-5.2-3.6-5.5c-2.8-0.4-5.6,1.3-6.5,4
		c-0.6,1.9-0.6,3.9,1.1,5c1.3,0.8,3.1,0.9,4.8,1.1c0.7,0.1,1.4-0.5,2.1-0.9c0.5,4-0.3,4.9-4.2,5c-5.8,0.1-9.5-5.4-7.3-11.2
		c1.4-3.8,4.3-6.3,8.4-6.8c5.6-0.8,9.7,3.3,9.1,9c-0.2,1.9-0.5,3.8-0.7,5.7C53.1,43.5,53.1,43.5,49.5,42.9"/>
	<path id="Fill-22_1_" class="st2" d="M71.9,20.2c-0.4,3.3-0.8,6.3-1.2,9.3c0.1,0.1,0.3,0.1,0.4,0.2c2.1-2.3,4.2-4.6,6.3-7
		c2.6,4.8-2.3,6.1-3.8,9.2c2.4,3.5,5,7.2,7.6,10.9c-4.2,0.9-4.5,0.7-6.6-2.5c-1.3-2-2.6-4.1-4.4-6.7c-0.4,2.6-0.6,4.5-0.9,6.4
		c-0.5,3.4-0.5,3.4-4.5,3c0.3-2.7,0.7-5.4,1-8.1c0.4-2.8,1-5.7,1-8.5C66.9,22.9,68.8,21.3,71.9,20.2"/>
	<path id="Fill-24_2_" class="st2" d="M55.2,42.9c0.5-3.7,0.9-7.2,1.4-10.8c0.6-5,3-6.8,8.3-5.9c-0.1,1.1-0.3,2.3-0.4,3.3
		c-3.8,0.6-3.8,0.6-4.2,4.3c-0.3,2.1-0.5,4.3-0.8,6.4C58.9,43.5,58.9,43.5,55.2,42.9"/>
</g>
</svg>
