<?xml version="1.0" encoding="utf-8"?>
<!-- Generator: Adobe Illustrator 21.0.0, SVG Export Plug-In . SVG Version: 6.00 Build 0)  -->
<svg version="1.1" id="图层_1" xmlns="http://www.w3.org/2000/svg" xmlns:xlink="http://www.w3.org/1999/xlink" x="0px" y="0px"
	 viewBox="0 0 140 100" style="enable-background:new 0 0 140 100;" xml:space="preserve">
<style type="text/css">
	.st0{opacity:0.98;fill:#2C6791;enable-background:new    ;}
	.st1{fill:#FFFFFF;}
</style>
<rect id="Path_14_" class="st0" width="140" height="100"/>
<path id="Shape_15_" class="st1" d="M79.4,10.1c0.5,0.6,0.9,1.1,1.3,1.7c5.8,7.7,7.5,17,5.8,26.5c-0.1,0.6-0.4,0.6-0.9,1.1
	c-2.8,2.7-5.4,5.5-7.1,9c-0.7,1.5-1,3.1-1.4,4.8c-0.1,0.5,0.2,1.4,0.6,1.6c0.4,0.2,1.3-0.1,1.7-0.4c1.8-1.9,3.5-3.9,5.1-5.9
	c1.1-1.4,2.1-2.9,3.2-4.3c0.3,3.1,0.3,6.1-1.2,8.8c-0.6,1.8-1.4,2-2.3,3c-1.1,0.8-2.3,2-3.1,3.1c-1.2,1.9-1.1,3.5,0.7,4.8
	c0.1,0.1,0.7,0.4,0.9,0.4c-0.4,0.3-0.8,0.4-1.7,0.6c0,1.4-1.2,2.3-1.5,3c-0.2,0.6-0.2,0.7-0.3,1.4c-0.4,6-1.3,12.5-3.6,18.1
	c-0.8,1.9-1.7,3.1-3.5,3.9c-0.2,0.1-1.3,0.6-1.4,0.7c0.5-0.7,0.6-1.8-0.1-2.7c-0.4-0.6-2.2-0.6-2.8-1.1c0.1,0,0.9,0,1,0
	c0.9,0,1.7,0,2-1.1c0.2-0.9-0.3-1.8-1.2-2.4c-0.6-0.4-1-0.5-1.5-1.1c-0.1-0.1-0.3-0.8-0.2-1.3c0-0.1,0.1-0.1,0.1,0
	c0.6,0.5,1.4,1.1,1.8,1.7c0.3,0.3,0.7,0.6,1,0.6c0.3,0,0.5-0.4,0.8-0.6c0.8-0.7,1.1-1,1.5-2c0.1-0.5-0.1-1.4-0.3-2
	c-0.7-2.7-0.9-5.5-0.2-8.2c0.5-1.9,1.2-3.9,2.3-5.6c1.7-2.7,1.8-5.1,0-7.6c-3.1-4.4-2.7-8.8-0.2-13.2c1.8-3.2,4.1-6,6.6-8.6
	c0.5-0.5,0.9-0.6,1-1.3c1.8-8.5,0.7-17.2-3.4-24.8c-0.2-0.3-1.7-2.4-1.7-2.6C77.6,8,79.4,10.2,79.4,10.1z M62.8,56.3
	c-0.1-1.2-0.1-2.4-0.3-3.6c-0.7-4.6-3.2-8.3-6.3-11.6c-0.2-0.3-0.5-0.6-0.8-0.8c-1.5-1.1-2-2.6-2.2-4.4c-1.1-9.9,1.4-18.6,7.9-26.1
	c0-0.1,1.3-1.7,1.5-1.8c-1.8,3.2-4,6.3-5,11.7c-1,5.2-1,10.3,0.1,15.5c0.1,0.5,0.5,1,0.9,1.5c2.7,2.9,5.3,5.9,6.8,9.5
	c0.7,1.8,1.2,3.7,1.5,5.6C67.2,54.3,65.6,55.9,62.8,56.3z M60.1,64.4c2.5-1.7,4.3-1.1,5.3,1.1c1.1,2.4,1.8,5.8,1.9,8.5
	c-0.6-1.5-1.5-4-2.1-5.5c-0.3-0.7-0.7-1.2-1.5-1.2c-0.8,0-1.4-0.5-1.6-1.2c-0.1-0.4-0.2-0.9-0.4-1.1C61.4,64.5,60.8,64.5,60.1,64.4z
	 M59.2,56.5c-3.2-2.2-5.6-4.9-6-9.1C55,48.2,58.2,53,59.2,56.5z"/>
</svg>
