<?xml version="1.0" encoding="utf-8"?>
<!-- Generator: Adobe Illustrator 21.0.0, SVG Export Plug-In . SVG Version: 6.00 Build 0)  -->
<svg version="1.1" id="图层_1" xmlns="http://www.w3.org/2000/svg" xmlns:xlink="http://www.w3.org/1999/xlink" x="0px" y="0px"
	 viewBox="0 0 140 100" style="enable-background:new 0 0 140 100;" xml:space="preserve">
<style type="text/css">
	.st0{opacity:0.9;fill:#5A96F1;enable-background:new    ;}
	.st1{fill:#FFFFFF;}
	.st2{filter:url(#Adobe_OpacityMaskFilter);}
	.st3{mask:url(#mask-2);fill:#FFFFFF;}
	.st4{filter:url(#Adobe_OpacityMaskFilter_1_);}
	.st5{mask:url(#mask-4);fill:#FFFFFF;}
</style>
<rect id="Path_13_" class="st0" width="140" height="100"/>
<g id="Page-1" transform="translate(24.000000, 26.000000)">
	<path id="Fill-1_2_" class="st1" d="M88.8,12.2c0-0.1-0.1-0.1-0.1-0.2c0,0.1-0.1,0.1-0.1,0.2c0,0.1,0.1,0.1,0.2,0.2
		C88.8,12.3,88.8,12.2,88.8,12.2"/>
	<path id="Fill-3_1_" class="st1" d="M75.9,28.6c0.1-1.2-0.6-1.7-1.7-1.3c-1.8,0.7-2.4,2.4-2.8,4.1c-0.3,1,0.4,1.5,1.4,1.2
		C74.2,32.1,75.8,30.1,75.9,28.6 M75.3,20.5c-0.7,1.9-1.3,3.7-2,5.6c1.2-0.6,2.1-1.1,3.2-1.1c1.7,0,2.5,0.9,2.5,2.6
		c-0.2,4.3-4.6,7.8-8.9,7.1c-1.5-0.2-2.3-1.3-1.9-2.7c1.2-3.5,2.5-7,3.8-10.4c0.1-0.3,0.3-0.4,0.6-0.5
		C73.4,20.9,74.2,20.7,75.3,20.5"/>
	<path id="Fill-5" class="st1" d="M88.8,12.2c0,0.1-0.1,0.1-0.1,0.2c-0.1-0.1-0.2-0.1-0.2-0.2c0,0,0.1-0.1,0.1-0.2
		C88.7,12.1,88.8,12.1,88.8,12.2"/>
	<path id="Fill-7_1_" class="st1" d="M20.6,31c0,1.4,0.8,2,2,1.5c1.5-0.7,2.1-2,2.5-3.5c0.2-0.6,0.1-1.2-0.4-1.6
		c-0.5-0.5-1.1-0.4-1.7-0.1C21.5,28.2,20.9,29.6,20.6,31 M21.2,34.8c-2.9,0-4.2-1.8-3.4-4.5c1-3.2,3.7-5.3,6.9-5.2
		c2.6,0,3.8,1.6,3.3,4.1C27.3,32.4,24.5,34.7,21.2,34.8"/>
	<path id="Fill-9_1_" class="st1" d="M43.4,29c1,0,1.8,0,2.5-0.2c0.6-0.2,1.2-0.4,1-1.1c-0.2-0.7-0.9-0.6-1.4-0.5
		C44.5,27.4,43.8,27.9,43.4,29 M47.2,32.2c0.2,1.8,0.1,1.9-1.5,2.3c-1.1,0.3-2.2,0.3-3.3,0.2c-1.6-0.2-2.4-1.2-2.4-2.8
		c0-3.5,3.2-6.9,6.7-6.9c1.4,0,2.4,0.5,2.7,1.5c0.4,1.1,0,2.6-1.1,3.4c-1.1,0.9-2.5,1.1-3.9,1.2c-0.4,0-0.8,0-1.1,0
		c-0.3,0-0.6-0.1-0.7,0.2c-0.1,0.3,0.1,0.6,0.3,0.8c0.5,0.4,1,0.5,1.6,0.5C45.5,32.7,46.3,32.3,47.2,32.2"/>
	<path id="Fill-11_1_" class="st1" d="M56.8,22.4c-0.2,0.4-0.3,0.6-0.4,0.9c-0.2,0.5-0.6,1.1-0.4,1.5c0.2,0.5,0.9,0.1,1.3,0.2
		c0.2,0,0.4,0,0.4,0.2c0.2,0.6-0.9,2-1.5,1.9c-1-0.2-1.5,0.3-1.8,1.2c-0.3,0.9-0.6,1.7-0.9,2.6c-0.5,1.4-0.4,1.6,1.2,1.8
		c-0.5,0.7-0.1,2-1.6,2c-2.9,0.1-3.6-0.7-2.5-3.4c0.5-1.4,1-2.7,1.5-4c-0.3-0.4-1.2,0.1-1-0.4c0.2-0.7,0-1.7,1.1-1.9
		c0.3,0,0.8,0.1,0.9-0.4c0.3-1.9,1.9-1.8,3.2-2.1C56.4,22.5,56.5,22.5,56.8,22.4"/>
	<path id="Fill-13_1_" class="st1" d="M0,34.7c2.6,0.3,2.6,0.3,3.4-2c0.1-0.2,0.1-0.4,0.2-0.5c0.5-1.3,0.9-2.8,1.8-3.9
		c0.6-0.6,1.2-1.5,2.1-0.9c0.8,0.5,0.2,1.4,0,2.1C7,30.9,6.4,32.5,5.8,34c-0.1,0.2-0.3,0.5-0.1,0.7c0.5,0.4,2.7-0.1,2.9-0.7
		c0.5-1.4,1-2.8,1.6-4.2c0.4-0.9,0.9-1.8,1.8-2.4c0.4-0.3,0.9-0.6,1.4-0.2c0.5,0.4,0.3,0.9,0.2,1.4c-0.1,0.3-0.2,0.5-0.3,0.8
		c-0.6,1.7-1.3,3.5-2,5.4c0.9,0,1.6,0,2.4,0c0.3,0,0.5-0.1,0.6-0.4c0.8-2.4,2-4.6,2.5-7.1c0.3-1.4-0.5-2.2-1.9-2.2
		c-1.4,0-2.6,0.6-3.6,1.5c-1.1-1.9-1.6-1.9-5.7-0.3c-0.3-0.4,0.5-0.7,0-1.1c-0.5-0.4-2.1,0.1-2.3,0.7c-0.5,1.5-1.1,2.9-1.6,4.4
		C1.1,31.7,0.6,33.2,0,34.7"/>
	<path id="Fill-15" class="st1" d="M0,34.7c0.6-1.5,1.1-3,1.7-4.5c0.5-1.5,1.1-2.9,1.6-4.4c0.2-0.6,1.8-1.1,2.3-0.7
		c0.4,0.4-0.3,0.7,0,1.1c4.1-1.6,4.6-1.6,5.7,0.3c1.1-0.9,2.2-1.5,3.6-1.5c1.4,0,2.2,0.8,1.9,2.2c-0.5,2.5-1.6,4.8-2.5,7.1
		c-0.1,0.3-0.3,0.4-0.6,0.4c-0.8,0-1.5,0-2.4,0c0.7-1.9,1.3-3.6,2-5.4c0.1-0.3,0.2-0.5,0.3-0.8c0.1-0.5,0.3-1-0.2-1.4
		c-0.5-0.3-1-0.1-1.4,0.2c-0.8,0.6-1.4,1.4-1.8,2.4c-0.6,1.4-1.1,2.8-1.6,4.2c-0.2,0.6-2.4,1.1-2.9,0.7c-0.2-0.2,0-0.5,0.1-0.7
		c0.6-1.5,1.2-3.1,1.7-4.6c0.2-0.7,0.8-1.6,0-2.1c-0.9-0.5-1.6,0.3-2.1,0.9c-1,1.1-1.3,2.6-1.8,3.9c-0.1,0.2-0.1,0.4-0.2,0.5
		C2.6,35,2.6,35,0,34.7"/>
	<path id="Fill-17" class="st1" d="M27.5,34.8c1.2-3.2,2.3-6.2,3.4-9.3c0.1-0.4,1.9-0.7,2.4-0.4c0.3,0.1,0.3,0.1,0,1.3
		c0.6-0.3,1.2-0.7,1.7-0.9c0.5-0.2,1-0.4,1.5-0.4c2.1-0.1,2.9,0.7,2.4,2.7c-0.5,2.3-1.6,4.4-2.3,6.6c-0.3,0.7-0.8,0.4-1.3,0.4
		c-1.8,0-1.8,0-1.2-1.6c0.5-1.4,1.1-2.8,1.6-4.3c0.2-0.5,0.4-1.2-0.2-1.6c-0.6-0.4-1.1-0.1-1.6,0.2c-0.9,0.6-1.5,1.5-1.9,2.4
		c-0.5,1.2-1.1,2.5-1.4,3.7c-0.3,0.9-0.7,1.2-1.6,1.1C28.7,34.7,28.2,34.8,27.5,34.8"/>
	<path id="Fill-19_1_" class="st1" d="M61,31.4c0,1,0.7,1.4,1.6,1.1c0.8-0.3,1.4-0.8,1.8-1.5c0.4-0.8,0.8-1.7,1.1-2.5
		c0.4-1,0.1-1.5-1-1.3C62.7,27.5,60.9,29.6,61,31.4 M63.6,33.5c-0.9,0.6-1.8,1.1-2.8,1.2c-1.8,0.2-2.9-0.9-2.9-2.7
		c0.2-3.5,3.6-6.9,7.1-6.9c1.3,0,1.8-0.5,2.1-1.6c0.1-0.7,0.6-1.3,0.7-1.9c0.2-2.2,1.9-2.5,3.8-2.8c-0.8,2.3-1.6,4.5-2.3,6.7
		c-1,2.8-1.9,5.6-2.9,8.5c-0.2,0.7-2,1.2-2.6,0.8c-0.3-0.3,0-0.6,0-1c0-0.1,0.1-0.3,0-0.3C63.7,33.3,63.7,33.4,63.6,33.5"/>
	<g id="Group-23" transform="translate(47.419782, 6.914013)">
		<g id="Fill-21-Clipped">
			<g>
				<g id="path-1_1_">
				</g>
				<defs>
					<filter id="Adobe_OpacityMaskFilter" filterUnits="userSpaceOnUse" x="0" y="0" width="43.9" height="30.4">
						<feColorMatrix  type="matrix" values="1 0 0 0 0  0 1 0 0 0  0 0 1 0 0  0 0 0 1 0"/>
					</filter>
				</defs>
				<mask maskUnits="userSpaceOnUse" x="0" y="0" width="43.9" height="30.4" id="mask-2">
					<g class="st2">
						<polygon id="path-1" class="st1" points="43.9,30.4 43.9,0 0,0 0,30.4 						"/>
					</g>
				</mask>
				<path id="Fill-21" class="st3" d="M33.4,30.4c0.9-1.1,1.7-2.1,2.4-3.2c5.1-8.3,3.1-16.6-5.6-21C21.1,1.6,11.9,2,3,7
					c-1,0.6-1.9,1.4-2.9,2.1c-0.2-0.4,0.1-0.5,0.3-0.7c3-3.3,6.9-5.2,11-6.6c6.2-2,12.5-2.5,18.9-0.7c3.9,1.1,7.4,3,10.2,6.1
					c3.8,4.2,4.5,9.5,2,14.5c-1.8,3.6-4.5,6.3-8,8.3C34.1,30.2,33.9,30.5,33.4,30.4"/>
			</g>
		</g>
	</g>
	<g id="Group-26" transform="translate(32.227036, 0.013341)">
		<path id="Fill-24_1_" class="st1" d="M0.1,21.5C4.7,12.5,11.2,5.6,21,2.2c5.4-1.8,11-2.4,16.6-1.7c7.3,0.9,13.4,4,18,9.9
			c0.3,0.4,0.7,0.8,0.8,1.3c-0.3,0.1-0.4-0.1-0.5-0.2c-5.8-5.7-13-7.2-20.7-6.8C29.2,5,23.6,6.7,18.6,10c-3.4,2.2-6.2,5-8.1,8.6
			c-0.2,0.3-0.3,0.7-0.8,0.8c-3.1,0.8-6.2,1.5-9.3,2.3C0.3,21.6,0.3,21.6,0.1,21.5"/>
	</g>
	<path id="Fill-27_1_" class="st1" d="M65,41.2C64.9,41.2,64.9,41.2,65,41.2c-0.1,0.1,0,0.2,0,0.2c0,0,0.1,0,0.1-0.1
		C65,41.3,65,41.2,65,41.2 M61.7,46.8c0.6-1.9,1.3-3.7,1.6-5.6c0.1-0.7,1.3-1,1.5-0.5c0.3,0.6,0.5,0.3,0.8,0.2
		c0.3-0.2,0.6-0.3,0.9-0.4c1.4-0.3,2.1,0.3,1.7,1.8c-0.4,1.4-0.8,2.8-1.3,4.2c-0.3,0.9-1,0.4-1.7,0.5c0.4-1.4,0.9-2.6,1.2-3.9
		c0.1-0.4,0.4-1-0.2-1.3c-0.5-0.3-0.9,0.1-1.3,0.5c-1,1-1.4,2.2-1.7,3.5C63.3,46.8,62.8,47.2,61.7,46.8"/>
	<path id="Fill-29" class="st1" d="M59.7,42.9c0-0.5,0.1-1.1-0.5-1.3c-0.5-0.2-1,0-1.4,0.4c-0.7,0.7-1.2,1.6-1.2,2.6
		c0,0.4,0,0.9,0.4,1.1c0.5,0.2,1,0.1,1.4-0.2C59.2,44.8,59.6,44,59.7,42.9 M55.1,44.9c0.1-2.2,1.8-4.3,4-4.6
		c1.4-0.2,2.4,0.7,2.4,2.1c0,2-1.6,4-3.6,4.6C56.2,47.5,55,46.5,55.1,44.9"/>
	<path id="Fill-31" class="st1" d="M46.4,40.6c-0.5,1.9-1.4,3.7-1.6,5.7c-0.1,0.7-0.7,0.6-1.2,0.6c-0.7,0.1-0.2-0.6-0.5-0.8
		c-0.2,0.1-0.3,0.3-0.5,0.4c-0.8,0.5-1.6,0.9-2.4,0.3c-0.8-0.6-0.4-1.4-0.2-2.2c0.3-1,0.7-1.9,0.9-3c0.2-1.1,0.8-1.3,1.9-1.1
		c-0.4,1.3-0.9,2.5-1.2,3.8c-0.1,0.4-0.4,1,0.1,1.4c0.6,0.3,1-0.2,1.4-0.6c0.9-1,1.3-2.2,1.6-3.4C44.8,40.7,45.3,40.3,46.4,40.6"/>
	<path id="Fill-33_1_" class="st1" d="M74.3,40.6c-0.2,0.9-0.6,1.4-1.5,1.1c-0.2-0.1-0.5,0-0.7,0c-0.4,0-0.7,0.2-0.7,0.6
		c-0.1,0.3,0.2,0.6,0.5,0.7c0.9,0.4,1.6,1,1.3,2.1c-0.3,1.2-1.1,1.8-2.3,1.9c-0.5,0.1-1.1,0.2-1.6,0c-0.3-0.1-0.9,0.2-0.7-0.4
		c0.1-0.4,0.1-1.1,0.9-0.8c0.2,0.1,0.5,0.1,0.7,0.1c0.6,0,1.4,0.1,1.6-0.6c0.2-0.7-0.5-0.8-0.9-1.1c-0.6-0.4-1-0.9-0.8-1.7
		c0.2-1,0.9-1.7,1.9-1.9C72.6,40.3,73.4,40.4,74.3,40.6"/>
	<path id="Fill-35_1_" class="st1" d="M28.7,40.6c-0.1,0.9-0.5,1.3-1.5,1c-0.1,0-0.3,0-0.5,0c-0.4,0-0.8,0.1-0.9,0.5
		c-0.1,0.5,0.2,0.7,0.6,0.9c0.7,0.4,1.4,0.9,1.2,1.8c-0.2,1-0.8,1.8-1.9,2c-0.7,0.1-1.4,0.3-2,0.1c-0.3-0.1-0.9,0.2-0.7-0.4
		c0.1-0.4,0.1-1.1,0.9-0.8c0.6,0.2,1.2,0.2,1.7,0c0.6-0.2,0.9-0.7,0.2-1.2c-1-0.6-2-1.2-1.3-2.6c0.5-1.1,1.6-1.6,3.3-1.5
		C28.2,40.5,28.5,40.4,28.7,40.6"/>
	<path id="Fill-37_1_" class="st1" d="M50.7,38.7c-0.2,0.7-0.4,1.3-0.7,2c0.5,0,0.9,0.1,1.3,0.1c-0.1,0.8-0.3,1.4-1.3,1.2
		c-0.4-0.1-0.6,0.2-0.7,0.6c-0.2,0.6-0.4,1.2-0.6,1.9c-0.3,1.4-0.2,1.5,1.2,1.2c-0.2,1.2-0.9,1.7-2.2,1.4c-1.1-0.3-0.8-1.1-0.7-1.9
		c0.1-0.6,0.4-1.2,0.6-1.9c0.1-0.4,0.8-1-0.2-1.4c-0.2-0.1,0-1,0.6-1.1c0.6,0,0.7-0.4,0.8-0.8C49.3,38.9,49.3,38.9,50.7,38.7"/>
	<path id="Fill-39_1_" class="st1" d="M35.7,46.9c1-2.9,2.1-5.8,2.8-8.7c0.2-0.8,1-0.6,1.4-0.5c0.7,0.2,0.1,0.7,0,1
		c-0.8,2.3-1.6,4.7-2.3,7C37.2,46.9,37.2,46.9,35.7,46.9"/>
	<path id="Fill-41_1_" class="st1" d="M54.7,40.6c-0.6,2-1.3,3.9-1.8,5.7c-0.3,0.9-1,0.4-1.7,0.7c0.5-1.5,0.9-2.7,1.3-4
		c0.1-0.4,0.3-0.7,0.3-1.1C52.9,40.7,53.6,40.4,54.7,40.6"/>
	<path id="Fill-43_1_" class="st1" d="M55.7,38.3c-0.1,0.7-0.5,1.3-1.3,1.4c-0.5,0.1-0.7-0.2-0.7-0.7c0.1-0.8,0.5-1.2,1.3-1.4
		C55.4,37.6,55.8,37.8,55.7,38.3"/>
	<g id="Group-47" transform="translate(29.004332, 40.267262)">
		<g id="Fill-45-Clipped">
			<g>
				<g id="path-3_1_">
				</g>
				<defs>
					<filter id="Adobe_OpacityMaskFilter_1_" filterUnits="userSpaceOnUse" x="0" y="0.1" width="6.3" height="6.8">
						<feColorMatrix  type="matrix" values="1 0 0 0 0  0 1 0 0 0  0 0 1 0 0  0 0 0 1 0"/>
					</filter>
				</defs>
				<mask maskUnits="userSpaceOnUse" x="0" y="0.1" width="6.3" height="6.8" id="mask-4">
					<g class="st4">
						<polygon id="path-3" class="st1" points="0,6.9 6.3,6.9 6.3,0.1 0,0.1 						"/>
					</g>
				</mask>
				<path id="Fill-45_1_" class="st5" d="M4.7,2.8c0-0.6,0-1.1-0.5-1.4c-0.5-0.2-1,0-1.4,0.4C2.1,2.5,1.7,3.4,1.7,4.4
					c0,0.4,0,0.9,0.4,1.1c0.5,0.2,1,0.1,1.4-0.3C4.2,4.6,4.6,3.7,4.7,2.8 M6.3,2.2c0,2.1-1.7,4.2-3.7,4.7C1.2,7.1,0.2,6.3,0.1,4.9
					C-0.1,2.8,1.8,0.4,4,0.1C5.4-0.1,6.4,0.7,6.3,2.2"/>
			</g>
		</g>
	</g>
</g>
</svg>
