<?xml version="1.0" encoding="utf-8"?>
<!-- Generator: Adobe Illustrator 21.0.0, SVG Export Plug-In . SVG Version: 6.00 Build 0)  -->
<svg version="1.1" id="图层_1" xmlns="http://www.w3.org/2000/svg" xmlns:xlink="http://www.w3.org/1999/xlink" x="0px" y="0px"
	 viewBox="0 0 140 100" style="enable-background:new 0 0 140 100;" xml:space="preserve">
<style type="text/css">
	.st0{opacity:0.8;fill:#80C522;enable-background:new    ;}
	.st1{fill:#FFFFFF;}
</style>
<rect id="Path_15_" class="st0" width="140" height="100"/>
<path id="Shape_16_" class="st1" d="M90.3,55.3v-5.7c-3.7,2-10.4,3-20.2,3c-8.7,0-15.4-1-20.1-3v7.8c1.1,0.9,3.4,1.7,7,2.4
	c3.6,0.7,8,1.1,13.1,1.1c3.6,0,6.9-0.2,9.9-0.5c0.5-0.8,1-1.5,1.7-2.2c2-1.9,4.3-2.9,7.1-2.9C89.3,55.2,89.8,55.2,90.3,55.3z
	 M80.3,70.2c0.1,0.4,0.2,0.9,0.4,1.3c-3,0.3-6.4,0.5-10.2,0.5c-5.5,0-10.1-0.3-13.7-1C53,70.3,50,68.1,50,68v-7.2
	c4.6,1.9,11.3,2.8,20,2.8c3.1,0,6.1-0.1,8.9-0.4c-0.1,0.6-0.2,1.2-0.2,1.9C78.8,67,79.3,68.7,80.3,70.2z M70.1,38.4
	c-3.8,0-7.2-0.2-10.3-0.6c-3.1-0.4-5.5-0.9-7.2-1.5c-1.7-0.7-2.6-1.4-2.6-2.1c0-1.2,1.9-2.2,5.7-3c3.8-0.8,8.6-1.2,14.3-1.2
	c3.8,0,7.2,0.2,10.3,0.6c3.1,0.4,5.5,0.9,7.2,1.5c1.7,0.7,2.6,1.4,2.6,2.1c0,1.2-1.9,2.2-5.8,3C80.6,38,75.8,38.4,70.1,38.4z
	 M90.3,46.3c-0.3,0.5-1.4,1-3.1,1.5s-4.1,0.9-7.2,1.3c-3,0.4-6.4,0.5-9.9,0.5c-5.2,0-9.5-0.3-13.1-1c-3.6-0.7-5.9-1.5-7-2.3v-7.9
	c3.7,2.2,10.4,3.2,20.1,3.2c2.2,0,4.3-0.1,6.4-0.2c2.1-0.2,4-0.4,5.8-0.6c1.8-0.3,3.4-0.6,4.9-1s2.5-0.9,3.1-1.4V46.3z M88.8,58
	c2,0,3.7,0.7,5.1,2.1s2.1,3,2.1,5c0,1.9-0.7,3.6-2.1,4.9c-1.4,1.4-3.1,2-5.1,2s-3.7-0.7-5.1-2c-1.4-1.4-2.1-3-2.1-4.9
	c0-1.9,0.7-3.6,2.1-5C85.2,58.7,86.8,58,88.8,58z"/>
</svg>
