<?xml version="1.0" encoding="utf-8"?>
<!-- Generator: Adobe Illustrator 21.0.0, SVG Export Plug-In . SVG Version: 6.00 Build 0)  -->
<svg version="1.1" id="图层_1" xmlns="http://www.w3.org/2000/svg" xmlns:xlink="http://www.w3.org/1999/xlink" x="0px" y="0px"
	 viewBox="0 0 140 100" style="enable-background:new 0 0 140 100;" xml:space="preserve">
<style type="text/css">
	.st0{opacity:0.8;fill:#3683AC;enable-background:new    ;}
	.st1{fill:#FFFFFF;}
</style>
<rect id="Rectangle-20_1_" class="st0" width="140" height="100"/>
<g id="Group" transform="translate(30.000000, 28.000000)">
	<path id="Shape_17_" class="st1" d="M0.2,37.3h2.6V27l4.1,9c0.5,1.1,1.1,1.5,2.4,1.5c1.3,0,1.9-0.4,2.4-1.5l4.1-9v10.3h2.6V27
		c0-1-0.4-1.5-1.2-1.7c-2-0.6-3.3-0.1-3.9,1.3l-4,8.9l-3.9-8.9c-0.6-1.3-1.9-1.9-3.9-1.3C0.6,25.5,0.2,26,0.2,27L0.2,37.3L0.2,37.3z
		 M20.6,28.9h2.6v5.7c0,0.3,0.1,1,1.5,1.1c0.7,0,5.7,0,5.7,0v-6.8h2.6c0,0,0,9.2,0,9.2c0,2.3-2.8,2.8-4.2,2.8h-8.3v-1.8
		c0,0,8.3,0,8.3,0c1.7-0.2,1.5-1,1.5-1.3v-0.7h-5.6c-2.6,0-4.3-1.1-4.3-2.4C20.6,34.7,20.6,29,20.6,28.9L20.6,28.9z"/>
	<g id="Shape_18_" transform="translate(34.987212, 25.168317)">
		<path class="st1" d="M0.1,12.1h7.6c0.9,0,1.7-0.2,2.4-0.5c1.1-0.5,1.7-1.2,1.7-2.1V7.6c0-0.8-0.6-1.5-1.9-1.9
			C9.2,5.4,8.4,5.3,7.7,5.3H4.5c-1.1,0-1.6-0.3-1.7-1c0-0.1,0-0.2,0-0.2V2.9c0-0.1,0-0.1,0-0.2C2.9,2.1,3.2,2,4.1,1.9
			c0.1,0,0.2,0,0.3,0h7.5V0.1H4.5c-1.1,0-1.6,0.1-2.1,0.2C0.8,0.8,0.1,1.6,0.1,2.9v1.5c0,1.2,1.3,2.2,3.6,2.4c0.3,0,0.5,0,0.8,0h2.7
			c0.1,0,0.2,0,0.3,0C8.3,7,8.7,7.1,8.9,7.4c0.2,0.2,0.2,0.3,0.2,0.5v1.5C9.1,9.6,9,9.8,8.7,10c-0.2,0.2-0.6,0.3-1.1,0.4
			c-0.1,0-0.2,0-0.3,0H0.1V12.1L0.1,12.1z M28.2,9.1c0,1.8,1.3,2.8,4,3c0.3,0,0.5,0,0.8,0h6.8v-1.7h-6.9c-1.5,0-2.1-0.4-2.1-1.3v-9
			h-2.6V9.1L28.2,9.1z M13.5,9.2V3c0-1.6,1.1-2.5,3.3-2.8c0.2,0,0.5,0,0.7-0.1h5c0.3,0,0.5,0,0.7,0.1c2.2,0.3,3.3,1.3,3.3,2.8v6.2
			c0,1.3-0.5,2-1.6,2.4l2.6,2.3h-3.1l-2.1-1.9l-2.1,0.1h-2.8c-0.5,0-1-0.1-1.5-0.2C14.3,11.5,13.5,10.7,13.5,9.2L13.5,9.2z
			 M16.3,9.1c0,0.1,0,0.2,0.1,0.3c0.2,0.7,0.8,1.1,1.9,1.1h2.4l-2.2-2h3.1l1.9,1.7C23.7,10,24,9.7,24,9.4c0-0.1,0-0.2,0-0.3V3.2
			c0-0.1,0-0.2,0-0.2c-0.2-0.7-0.8-1.1-1.8-1.1h-4c-1.2,0-1.9,0.5-1.9,1.3L16.3,9.1L16.3,9.1z"/>
	</g>
	<path id="Shape_19_" class="st1" d="M77.1,22.4c-1.6,0-2.9,0.1-3.9,0.5c-0.3,0.1-0.8,0.1-0.8,0.5c0.2,0.2,0.2,0.4,0.3,0.6
		c0.3,0.4,0.7,0.9,1.1,1.2c0.4,0.3,0.8,0.6,1.3,0.9c0.8,0.5,1.7,0.8,2.4,1.2c0.5,0.3,0.9,0.6,1.3,1c0.2,0.2,0.4,0.4,0.6,0.5v0
		c-0.1-0.2-0.2-0.4-0.3-0.6c-0.2-0.2-0.4-0.4-0.6-0.6c-0.6-0.8-1.3-1.4-2.1-2c-0.6-0.4-2-1.1-2.3-1.8c0,0,0,0,0,0
		c0.4-0.1,1-0.2,1.4-0.3c0.7-0.2,1.3-0.1,2-0.3c0.3-0.1,0.6-0.2,1-0.3v-0.2c-0.4-0.4-0.6-0.9-1-1.2c-1-0.9-2.2-1.7-3.3-2.5
		c-0.6-0.4-1.4-0.7-2.1-1c-0.2-0.1-0.6-0.2-0.8-0.4c-0.4-0.5-0.6-1-0.8-1.5c-0.6-1.1-1.1-2.3-1.7-3.5c-0.3-0.8-0.6-1.6-1-2.3
		C65.7,7,63.4,5,59.9,2.9c-0.7-0.4-1.6-0.6-2.6-0.8L55.8,2c-0.3-0.1-0.6-0.5-0.9-0.7c-1.2-0.7-4.1-2.3-5-0.2
		c-0.5,1.3,0.8,2.6,1.3,3.2c0.3,0.5,0.8,1,1,1.5c0.2,0.3,0.2,0.7,0.3,1c0.3,0.9,0.6,1.9,1.1,2.7c0.2,0.4,0.5,0.9,0.7,1.2
		c0.2,0.2,0.5,0.3,0.5,0.7c-0.3,0.4-0.3,1-0.5,1.5c-0.7,2.2-0.4,5,0.6,6.7c0.3,0.5,1.1,1.6,2.1,1.2c0.9-0.4,0.7-1.5,1-2.5
		c0.1-0.2,0-0.4,0.1-0.5v0c0.3,0.5,0.6,1.1,0.8,1.6c0.6,1,1.7,2,2.6,2.7c0.5,0.4,0.9,1,1.5,1.2v0h0c-0.1-0.2-0.3-0.3-0.5-0.4
		c-0.4-0.3-0.8-0.8-1.1-1.2c-0.8-1.1-1.6-2.4-2.3-3.6c-0.3-0.6-0.6-1.3-0.9-1.9c-0.1-0.2-0.1-0.6-0.3-0.7c-0.3,0.5-0.7,0.8-1,1.4
		c-0.4,0.9-0.4,1.9-0.6,3c-0.1,0,0,0-0.1,0c-0.6-0.2-0.9-0.8-1.1-1.4c-0.6-1.4-0.7-3.7-0.2-5.3c0.1-0.4,0.8-1.8,0.5-2.1
		c-0.1-0.4-0.5-0.6-0.7-0.9c-0.3-0.4-0.5-0.9-0.7-1.3c-0.5-1.1-0.7-2.3-1.2-3.5c-0.2-0.5-0.7-1.1-1-1.5c-0.4-0.5-0.8-0.9-1.1-1.5
		c-0.1-0.2-0.2-0.6-0.1-0.8c0-0.2,0.1-0.2,0.3-0.3c0.3-0.2,1,0.1,1.3,0.2c0.7,0.3,1.4,0.6,2,1c0.3,0.2,0.6,0.6,1,0.7h0.4
		c0.6,0.1,1.4,0,2,0.2c1.1,0.3,2,0.8,2.9,1.4c2.6,1.7,4.8,4,6.3,6.8c0.2,0.5,0.3,0.9,0.6,1.4c0.4,1,1,2,1.4,2.9
		c0.4,0.9,0.8,1.9,1.4,2.7c0.3,0.4,1.5,0.6,2.1,0.9c0.4,0.2,1,0.3,1.4,0.5c0.7,0.4,1.4,0.9,2,1.4C76.1,21.5,77.1,22,77.1,22.4
		L77.1,22.4z"/>
	<path id="Shape_20_" class="st1" d="M56.6,5c-0.3,0-0.6,0-0.8,0.1v0h0C56,5.5,56.2,5.7,56.4,6c0.2,0.3,0.3,0.6,0.5,1l0,0
		c0.3-0.2,0.4-0.5,0.4-1c-0.1-0.1-0.1-0.3-0.2-0.4C57,5.3,56.7,5.2,56.6,5L56.6,5z"/>
	<path id="Shape_21_" class="st1" d="M76,35.5c0,1.1,0.9,1.9,1.9,1.9c1,0,1.9-0.8,1.9-1.9c0-1.1-0.9-1.9-1.9-1.9
		C76.9,33.6,76,34.4,76,35.5z M79.5,35.5c0,0.9-0.7,1.5-1.5,1.5c-0.8,0-1.5-0.7-1.5-1.5c0-0.9,0.7-1.5,1.5-1.5
		C78.8,34,79.5,34.7,79.5,35.5L79.5,35.5z M78.5,36.6h0.4l-0.6-1c0.3,0,0.6-0.2,0.6-0.6c0-0.4-0.3-0.6-0.8-0.6h-0.9v2.2h0.4v-0.9
		h0.3L78.5,36.6L78.5,36.6z M77.6,35.4v-0.6H78c0.2,0,0.5,0,0.5,0.3c0,0.3-0.2,0.3-0.5,0.3L77.6,35.4L77.6,35.4z"/>
</g>
</svg>
