<?xml version="1.0" encoding="utf-8"?>
<!-- Generator: Adobe Illustrator 21.0.0, SVG Export Plug-In . SVG Version: 6.00 Build 0)  -->
<svg version="1.1" id="图层_1" xmlns="http://www.w3.org/2000/svg" xmlns:xlink="http://www.w3.org/1999/xlink" x="0px" y="0px"
	 viewBox="0 0 140 100" style="enable-background:new 0 0 140 100;" xml:space="preserve">
<style type="text/css">
	.st0{opacity:0.8;fill:#FB0000;enable-background:new    ;}
	.st1{fill:#FFFFFF;}
</style>
<rect id="Path_17_" class="st0" width="140" height="100"/>
<path id="Fill-1_5_" class="st1" d="M107.2,54.9c-1.8,0-3.3-1.2-3.7-2.8h9.8l1.3-2.1h-11.1c0.5-1.6,1.9-2.8,3.7-2.8h6.7l1.4-2.1
	h-8.2c-3.3,0-6,2.7-6,5.9c0,3.3,2.7,5.9,6,5.9h7.1l1.3-2.1H107.2z M79.2,57c-3.3,0-6-2.7-6-5.9c0-3.3,2.7-5.9,6-5.9h8.2l-1.3,2.1
	h-6.7c-2.1,0-3.9,1.7-3.9,3.9s1.7,3.8,3.9,3.8h8.3L86.3,57H79.2z M35.7,54.9c2.1,0,3.9-1.7,3.9-3.8s-1.7-3.9-3.9-3.9h-6.6
	c-2.1,0-3.9,1.7-3.9,3.9s1.7,3.8,3.9,3.8H35.7z M29,57c-3.3,0-6-2.7-6-5.9c0-3.3,2.7-5.9,6-5.9h6.9c3.3,0,6,2.7,6,5.9
	c0,3.3-2.7,5.9-6,5.9H29z M53.1,53.1c2.2,0,4-1.8,4-4c0-2.2-1.8-4-4-4H43V57h2.3v-9.8h7.6c1.1,0,1.9,0.9,1.9,1.9
	c0,1.1-0.9,1.9-1.9,1.9l-6.5,0l6.8,5.9h3.3L52,53.1H53.1z M91,54.9v-9.8h-2.3v10.7c0,0.3,0.1,0.6,0.3,0.8c0.2,0.2,0.5,0.3,0.8,0.3
	h10.4l1.3-2.1H91z M62.9,52.8H69l-3.2-5.2L59.9,57h-2.7l7.2-11.3c0.3-0.5,0.8-0.7,1.4-0.7c0.6,0,1.1,0.3,1.4,0.7L74.4,57h-2.7
	l-1.3-2.1h-6.2L62.9,52.8z"/>
</svg>
